<svg id="Layer_1" data-name="Layer 1" xmlns="http://www.w3.org/2000/svg" viewBox="0 0 377.27 330.68"><defs><style>.cls-1{fill:#faae43;}.cls-2{fill:#149546;}.cls-3{fill:#272424;}.cls-4{fill:gray;}</style></defs><path class="cls-1" d="M59.92,193.22c3.9-5.35,2.62-12-3.56-15.43.47-1.81,1.08-3.63,1.41-5.5.53-3,1.59-5.9,2.23-8.88a3.35,3.35,0,0,1,2.11-2.61c5-2.15,9.92-4.44,15-6.5,4.19-1.72,8.48-3.21,12.74-4.76,1.48-.53,3-.94,4.67-1.46,1,.15,1.52,1.17,2.19,1.9,3.41,3.76,6.74,7.6,10.1,11.41l1.78,2c-2.76,10.42-5.94,20.53-9.56,30.51s-7.64,19.67-12.31,29.41a63.42,63.42,0,0,1-7.62-6.83c-2.38-2.36-4.67-4.81-6.89-7.31s-4.5-5.12-6.55-7.83A76.69,76.69,0,0,1,59.92,193.22Z"/><path class="cls-2" d="M118.73,148.19a10.15,10.15,0,0,0,8.61-7.57l14-1.32c10,20,6.48,43.86-3,57.48A197.41,197.41,0,0,0,115.47,162Z"/><path class="cls-2" d="M134.32,202.81c-11.36,14.41-28.88,21.59-41.39,22a348,348,0,0,0,20.37-55c1.52,1.06,6.64,8.15,11.53,15.87A171.62,171.62,0,0,1,134.32,202.81Z"/><path class="cls-2" d="M116,128.89c-4.56,1.41-7,4-7.85,8.87l-11.37,3L81.92,126.47a9.86,9.86,0,0,0-.33-8.34A78.64,78.64,0,0,1,92.84,106,59.09,59.09,0,0,1,118,114C117.53,119,116.75,123.91,116,128.89Z"/><path class="cls-2" d="M57.44,114l6.48,5.27a9.87,9.87,0,0,0,2.65,10.67,158.37,158.37,0,0,0-11.24,27.2l-10.64,5.6a110,110,0,0,1-4.49-14.66,108.94,108.94,0,0,1-2.68-14.93A60.12,60.12,0,0,1,57.44,114Z"/><path class="cls-3" d="M254.6,174.23H249l-.69-3.08c-1.34.84-2.53,1.62-3.75,2.33a12.18,12.18,0,0,1-6.43,1.44,15.85,15.85,0,0,1-2.66-.24c-3.9-.69-6-3.27-7.18-6.85a37.6,37.6,0,0,1-1.38-11.7,33,33,0,0,1,1.09-9.21c1.31-4.46,4.15-7.15,8.81-7.95a43.28,43.28,0,0,1,16.2.5,3.27,3.27,0,0,1,.5.17l-.57,5.62h-3.17c-2.65,0-5.3-.08-7.95,0a15.16,15.16,0,0,0-2.9.49,3.46,3.46,0,0,0-2.57,2.45,22.64,22.64,0,0,0-1,4.74,36.55,36.55,0,0,0,.47,11.19,4.71,4.71,0,0,0,2.09,3.41,5.79,5.79,0,0,0,2.37.76,12.73,12.73,0,0,0,7-1.8V154h7.23C254.83,155.05,254.94,172.31,254.6,174.23Z"/><path class="cls-3" d="M191.37,174.17l-2.51-9h-12c-.84,3-1.69,6-2.55,9h-8c1-3.39,2.05-6.71,3.07-10,1.11-3.64,2.2-7.28,3.31-10.92q1.88-6.13,3.77-12.28a2.6,2.6,0,0,1,2.55-1.86c2.47,0,4.94,0,7.42,0,1.4,0,2.29.28,2.92,2.32l4.11,13.29c1.2,3.9,2.38,7.81,3.57,11.71.78,2.54,1.55,5.09,2.35,7.74ZM187.13,159c-1.26-4.67-2.5-9.25-3.75-13.9h-1.16c-1.23,4.61-2.46,9.19-3.72,13.9Z"/><path class="cls-3" d="M332,174.2H324c1.36-3.15,3-6,4.47-9s2.95-5.88,4.5-9l-8.39-17.05h8c2.17,4.64,4.33,9.25,6.46,13.88.21.45.44.61,1,.49l6.69-14.4h8l-8.43,17.11,9.12,17.92h-8.11c-2.61-5.12-4.89-10.48-7.77-16Z"/><path class="cls-2" d="M45.52,207.73a59.15,59.15,0,0,1-15.86-28.25l11.73-7.59c1.3,3.06,2.8,5.85,3.81,8.74A9,9,0,0,0,43,188.38a9.33,9.33,0,0,0,4.15,6.53l-1.24,12.7Z"/><path class="cls-3" d="M294.24,174.2h-7.68v-35h7.68Z"/><path class="cls-2" d="M72.39,132.37a24,24,0,0,0,2.71-.26,23.14,23.14,0,0,0,2.61-.86L90,142.87a283.3,283.3,0,0,0-26.49,10.24A125,125,0,0,1,72.39,132.37Z"/><path class="cls-2" d="M51.92,213.08c.39-5.42.63-10.93,1.48-16.34.82-.63,1.2-.14,1.59.43,1.15,1.67,2.24,3.38,3.48,5q4.06,5.28,8.28,10.46a145.41,145.41,0,0,0,10.7,11.09c.13.13.26.28.41.45C73.38,224.89,56.42,217.65,51.92,213.08Z"/><path class="cls-2" d="M39.08,166l-10.67,6.71a60,60,0,0,1,4.12-30A162.39,162.39,0,0,0,39.08,166Z"/><path class="cls-2" d="M123.93,118A59.38,59.38,0,0,1,138,133.26l-11.39,1.09a25.25,25.25,0,0,0-1.92-2.57,26.55,26.55,0,0,0-2.49-2C122.78,126,123.34,122.14,123.93,118Z"/><path class="cls-2" d="M83.65,105.88,77,113.51c-1.62-.17-3.16-.37-4.7-.49s-2.94.69-4.4,1.41l-4.36-3.58A59.27,59.27,0,0,1,83.65,105.88Z"/><path class="cls-4" d="M252.06,211l.07-.9c1.16,0,2.28,0,3.4,0a7.59,7.59,0,0,0,2.18-.35,3.14,3.14,0,0,0,2.17-2.26c.19-.8.41-1.59.61-2.39l-.26-.22a8.61,8.61,0,0,0-1.4.86,5,5,0,0,1-3.14,1.16,2.54,2.54,0,0,1-3-2.56,11.83,11.83,0,0,1,0-2.66,22.64,22.64,0,0,1,.82-3.44,3.4,3.4,0,0,1,3.56-2.74,19.81,19.81,0,0,1,6,.42c-.22,1.52-.43,3.07-.65,4.61-.32,2.15-.6,4.3-1,6.44a4.93,4.93,0,0,1-4.17,4.22A10.49,10.49,0,0,1,252.06,211Zm2.19-6.27a2.22,2.22,0,0,0,2.61.67,7.63,7.63,0,0,0,3.36-2.09,3.08,3.08,0,0,0,.69-1.57c.24-1.3.38-2.63.53-3.95a9,9,0,0,0,0-1.05c-1.49,0-2.86-.05-4.23,0a2.58,2.58,0,0,0-2.44,2.18A15.77,15.77,0,0,0,254.25,204.71Z"/><path class="cls-2" d="M101.59,145.93l8.09-2,2.36,3,.51-.34c-.4,3.07-1.4,6-2,9.3Z"/><path class="cls-4" d="M170.91,206.55l-1-.11v-1.71c-.5.35-.87.58-1.2.85a5.74,5.74,0,0,1-3.28,1.26c-2.43.11-4.06-.86-4.36-3.57a17.47,17.47,0,0,1,1.22-9,5.18,5.18,0,0,1,3.93-3.24,16.74,16.74,0,0,1,6.56.23l-.3,1h-4.27c-2.72,0-3.92.83-4.83,3.42a20.8,20.8,0,0,0-.88,6.74,3.91,3.91,0,0,0,.63,2,2.33,2.33,0,0,0,1.23.95,5.22,5.22,0,0,0,5.45-2.14,5.91,5.91,0,0,0,.45-2c.19-1.12.34-2.24.51-3.42h1.47C171.77,200.7,171.34,203.6,170.91,206.55Z"/><path class="cls-4" d="M249.55,206.49h-1.48c-.34-1.61-.67-3.19-1-5-1,0-2.08-.07-3.14-.08s-2.18,0-3.46,0l-2.46,5h-1.61c2.53-5.2,5-10.26,7.45-15.34h2.36c1,2.4,1.2,5.07,1.83,7.62S249,203.81,249.55,206.49Zm-2.78-6.36c-.49-2.64-1-5.1-1.42-7.56,0-.16-.22-.29-.48-.63l-3.82,8C243,200.36,244.79,200,246.77,200.13Z"/><path class="cls-4" d="M184.59,196.76c1,.45,2.11.91,3.18,1.39.85.37,1.72.7,2.54,1.14a3,3,0,0,1,1.48,3.27,9.33,9.33,0,0,1-.25,1.3,3.29,3.29,0,0,1-2.37,2.62c-2.54.64-5.06.3-7.65,0a3.73,3.73,0,0,1,.07-.71,1.36,1.36,0,0,1,.24-.35h4.58c.39,0,.79,0,1.18-.09a3,3,0,0,0,2.57-3.91,2,2,0,0,0-1.34-1.28c-1.38-.55-2.75-1.13-4.14-1.63a2.81,2.81,0,0,1-1.63-1.61,4.2,4.2,0,0,1,3.15-5.95,20.7,20.7,0,0,1,6.23.24v1c-1.71,0-3.34.13-5,0-2.32-.23-3.51,1.47-3.1,3.69C184.41,196.07,184.47,196.26,184.59,196.76Z"/><path class="cls-4" d="M201.08,195.8l1.88-.13c.14-.79.27-1.56.4-2.32a2.94,2.94,0,0,1,2.61-2.81,11.64,11.64,0,0,1,2.95,0c.59.06.81.51.43,1.15h-2.17a2.25,2.25,0,0,0-2.51,2.16c-.07.59-.08,1.18-.12,1.9H208l-.14,1.13h-3.61c-.26,1.9-.51,3.65-.74,5.39s-.49,3.71-.74,5.57a5.14,5.14,0,0,1-.21.86c-.61,1.88-1.52,2.52-3.53,2.47-.59,0-1.18-.09-1.85-.15v-1.12c.58,0,1.06,0,1.54,0s1-.09,1.45-.13a4,4,0,0,0,1.13-2.69c.38-3,.89-6,1.35-8.95.05-.33,0-.67.07-1.13l-1.76-.18Z"/><path class="cls-4" d="M348,202.19c-.21,2.41.43,3.24,2.59,3.34,1.17.05,2.35-.11,3.53-.17l1,0v1a13.47,13.47,0,0,1-6.58.22,3.16,3.16,0,0,1-2.1-3,13.42,13.42,0,0,1,.68-5.1,4.22,4.22,0,0,1,4.14-3c.84,0,1.68,0,2.52,0a2.71,2.71,0,0,1,2.48,1.35v1.79a3,3,0,0,1-2.73,3c-1.12.16-2.25.23-3.37.35Zm-.19-1.28a5.76,5.76,0,0,0,.77.11l2.64-.27c.68-.08,1.36-.17,2-.3,1-.18,1.63-1,1.64-2.48,0-.81-.63-1.33-1.8-1.35a9.87,9.87,0,0,0-2.76.3,2.38,2.38,0,0,0-1.38,1A21.44,21.44,0,0,0,347.84,200.91Z"/><path class="cls-4" d="M209.73,202.4c.25-1.25.45-2.52.78-3.75a4.4,4.4,0,0,1,4.29-3.21c.74,0,1.49,0,2.22.05a3.06,3.06,0,0,1,3,2.77,10.42,10.42,0,0,1-1.2,6.53,3.16,3.16,0,0,1-1.74,1.51,8.27,8.27,0,0,1-4.34.4,3.31,3.31,0,0,1-2.85-3.53c0-.25,0-.49,0-.74Zm9-2.64c-.08-2.46-.73-3.12-3.16-3H215a2.75,2.75,0,0,0-2.8,2,17.16,17.16,0,0,0-.81,3.58c-.21,2.63.85,3.37,3.13,3.26.25,0,.5,0,.74,0a3,3,0,0,0,2.74-2.31C218.26,202.08,218.45,200.91,218.69,199.76Z"/><path class="cls-4" d="M325,195.82h1.18c0,3.15-1.11,6.14-.93,9.2a2.39,2.39,0,0,0,2.78.23,18.35,18.35,0,0,0,3-2.13,2.24,2.24,0,0,0,.59-1.31c.29-1.94.5-3.9.76-6l1.19-.15c.41.35-.77,8.92-1.4,10.77h-.88v-1.81a10,10,0,0,0-1,.43,21.6,21.6,0,0,1-2.4,1.42c-1.58.64-3.11.63-4.13-1.1A43.08,43.08,0,0,1,325,195.82Z"/><path class="cls-4" d="M302.78,195.71l1.41.09c-.51,3.6-1,7.08-1.5,10.56H301.6v-2c-.9.65-1.66,1.28-2.49,1.79a4.13,4.13,0,0,1-3.39.56,2.19,2.19,0,0,1-1.74-2.54c.24-2,.54-3.92.81-5.87.11-.78.23-1.55.36-2.43l1.43-.15c-.22,3.15-1,6.12-1.13,9a1.93,1.93,0,0,0,2.54.66,18.15,18.15,0,0,0,3-1.84,2.53,2.53,0,0,0,.94-1.79C302.17,199.78,302.48,197.83,302.78,195.71Z"/><path class="cls-4" d="M291.33,195.86l-.1.87h-3.4c-2.05,0-3.19.73-3.66,2.71a18.23,18.23,0,0,0-.36,4.11,1.59,1.59,0,0,0,1.61,1.78,35.11,35.11,0,0,0,3.84.07h.81l.09,1c-2.6.58-5.1,1.13-7.51-.92a9.61,9.61,0,0,1,.87-8.12,4,4,0,0,1,2.65-1.8A14,14,0,0,1,291.33,195.86Z"/><path class="cls-4" d="M321.6,195.68l0,1.09H317.9c-.28,2.89-1.08,5.53-.92,8.43l2.9.19.11,1a7.23,7.23,0,0,1-3.66.11,3.08,3.08,0,0,1-.86-3c.36-2.14.62-4.3.93-6.54l-1.82-.21,0-.95,1.84-.14c.23-1,.47-2.06.71-3.14h1.28l-.33,3.15Z"/><path class="cls-2" d="M52.89,165.46,50.37,176l-.27.05-3.22-7.24Z"/><path class="cls-4" d="M311.59,205.43l-.07,1a1.29,1.29,0,0,1-.34.17c-3.75.34-3.83-1-3.45-3.67.56-3.95,1.14-7.89,1.73-12l1.45-.25c-.34,2.57-.68,4.93-.94,7.29s-1.13,4.66-.67,7.16Z"/><path class="cls-4" d="M177.55,191.18,179,191c-.47,5.24-1.42,10.31-2,15.48h-1.53C176.16,201.37,176.84,196.35,177.55,191.18Z"/><path class="cls-4" d="M225.74,199.22c-.35,2.37-.72,4.78-1.09,7.22h-1.44c.51-3.59,1-7.08,1.5-10.61l1-.1.19,1.87c1.81-.73,3.07-2.5,5.3-2.08l-.08,1.15C228.89,196.61,227.5,198.13,225.74,199.22Z"/><path class="cls-4" d="M339.43,199.22c-.37,2.48-.73,4.8-1.09,7.21h-1.41c.49-3.55,1-7,1.47-10.61l1-.07c0,.62.06,1.17.1,1.91,1.9-.83,3.23-2.55,5.43-2.18.1.63-.05,1.09-.72,1.17C342.28,196.89,341,198.3,339.43,199.22Z"/><path class="cls-4" d="M273.94,196.69c-2,.1-3.37,1.22-4.73,2.24a2.34,2.34,0,0,0-.67,1.41c-.26,1.55-.41,3.11-.63,4.67-.06.48-.2.94-.31,1.46l-1.43.08c.51-3.65,1-7.19,1.52-10.75h1.12c-.05.68-.1,1.29-.16,2,1.88-.84,3.17-2.79,5.58-2.32Z"/><path class="cls-4" d="M276,206.57c.52-3.7,1-7.21,1.52-10.78h1.46c-.5,3.54-1,7-1.48,10.63Z"/></svg>