<svg id="Layer_1" data-name="Layer 1" xmlns="http://www.w3.org/2000/svg" viewBox="0 0 377.27 330.68"><defs><style>.cls-1{fill:#20f;}</style></defs><path d="M182.74,219.56h2.56V220a10.61,10.61,0,0,0,.31,3,2.24,2.24,0,0,0,1,1.37,4.49,4.49,0,0,0,1.71.44c.77.09,2.35.13,4.75.13a14,14,0,0,0,3-.25,3.14,3.14,0,0,0,1.6-.82,2.06,2.06,0,0,0,.43-1,10.78,10.78,0,0,0,.14-2,6.24,6.24,0,0,0-.51-3.22,2.91,2.91,0,0,0-2-.78l-7.07-.55c-2.11-.16-3.57-.69-4.38-1.58s-1.22-2.4-1.22-4.52a10.5,10.5,0,0,1,.4-3.22,4.69,4.69,0,0,1,1.29-2,4.1,4.1,0,0,1,2-.87,25.52,25.52,0,0,1,4.4-.25h.82a24.37,24.37,0,0,1,5,.34,5.65,5.65,0,0,1,2.42,1.17,3.21,3.21,0,0,1,1,1.58,8.73,8.73,0,0,1,.32,2.54c0,.3,0,.53,0,.69s0,.3,0,.42H198V210a9.47,9.47,0,0,0-.15-1.94,2,2,0,0,0-.47-1,3.08,3.08,0,0,0-1.7-.67,35.75,35.75,0,0,0-4.64-.19c-2.36,0-3.85.26-4.45.8s-.91,1.6-.91,3.2a4.59,4.59,0,0,0,.59,2.72,3.2,3.2,0,0,0,2.29.89l7.21.59a5.75,5.75,0,0,1,4,1.57c.76.88,1.14,2.35,1.14,4.4a14.85,14.85,0,0,1-.29,3.38,4.59,4.59,0,0,1-1,1.89,4.48,4.48,0,0,1-2.24,1.31,23.29,23.29,0,0,1-5.14.38h-1.14a21.81,21.81,0,0,1-4.49-.32,5,5,0,0,1-2.2-1.13,4.32,4.32,0,0,1-1.27-2,10.64,10.64,0,0,1-.41-3.2Z"/><path d="M203.82,210.81h2.4l4.82,14,4.79-14h2.38l-6.12,17.64a10.52,10.52,0,0,1-2,3.88,3.83,3.83,0,0,1-2.8,1l-.57,0-.69-.09,0-2.11.26,0h.46a2.67,2.67,0,0,0,1.72-.5,4.58,4.58,0,0,0,1.14-1.95l.61-1.68h-.73Z"/><path d="M220.38,222.21h2.43v.37a2.23,2.23,0,0,0,.92,2.06,8.22,8.22,0,0,0,3.72.56c2.08,0,3.37-.19,3.85-.57a2.72,2.72,0,0,0,.72-2.21,2.82,2.82,0,0,0-.59-2.11,5.65,5.65,0,0,0-3-.65c-.58,0-1.37-.07-2.37-.1a11.9,11.9,0,0,1-3.88-.45,2.89,2.89,0,0,1-1.32-1.38,6.44,6.44,0,0,1-.39-2.53c0-1.79.46-3,1.37-3.65s2.93-1,6-1c2.41,0,4.05.31,4.9.91a3.65,3.65,0,0,1,1.29,3.2h-2.4v-.16a1.49,1.49,0,0,0-.93-1.49,11,11,0,0,0-3.71-.41,7.35,7.35,0,0,0-3.42.5,2.34,2.34,0,0,0-.74,2.06,4.47,4.47,0,0,0,.14,1.34,1,1,0,0,0,.5.59,8.62,8.62,0,0,0,3.2.44l1,0c1.35.06,2.41.13,3.19.21a6.05,6.05,0,0,1,1.65.36,3.08,3.08,0,0,1,1.53,1.42,8.3,8.3,0,0,1,0,5.39,4,4,0,0,1-1.6,1.64,4.35,4.35,0,0,1-1.71.48,27.69,27.69,0,0,1-3.29.15q-4.32,0-5.71-1c-.93-.66-1.39-1.86-1.39-3.61Z"/><path d="M237.75,212.86v-2.05h2v-3.65h2.4v3.65h8v2.05h-8v8.94a3.9,3.9,0,0,0,.63,2.59,4.51,4.51,0,0,0,4.73,0,4,4,0,0,0,.6-2.61v-.48h2.44v.14c0,2.28-.38,3.81-1.14,4.6s-2.32,1.19-4.7,1.19c-1.86,0-3.15-.42-3.88-1.26s-1.08-2.34-1.08-4.53v-8.6Z"/><path d="M260.8,227.25c-2.43,0-4.12-.47-5.09-1.42s-1.44-2.6-1.44-5V217q0-3.58,1.43-5c1-1,2.65-1.42,5.06-1.42h1.13c2.42,0,4.12.47,5.08,1.42s1.45,2.6,1.45,5v2.44l-11.66,0c0,.16,0,.35,0,.54s0,.49,0,.85c0,1.67.27,2.79.8,3.36s1.61.85,3.23.85h1.13a5.29,5.29,0,0,0,3-.62,2.85,2.85,0,0,0,1-2.18h2.5a5,5,0,0,1-1.7,3.81,7.78,7.78,0,0,1-4.77,1.17Zm-4-9.91h9.18v-.63a4.41,4.41,0,0,0-.81-3.09c-.55-.55-1.63-.82-3.24-.82h-1.13c-1.6,0-2.66.27-3.2.82a4.46,4.46,0,0,0-.8,3.09Z"/><path d="M273.09,227V210.81h2.34V213a3.48,3.48,0,0,1,1.7-1.84,7.22,7.22,0,0,1,3.15-.59,6.86,6.86,0,0,1,3.23.63,3.82,3.82,0,0,1,1.73,2.05,4.55,4.55,0,0,1,1.88-2.05,6.33,6.33,0,0,1,3-.63c2.12,0,3.6.42,4.42,1.26s1.23,2.36,1.23,4.54V227h-2.4v-9.87c0-1.81-.23-3-.71-3.55a3.45,3.45,0,0,0-2.73-.84,4.15,4.15,0,0,0-3.27,1.15,5.45,5.45,0,0,0-1,3.68V227h-2.32v-11a3.65,3.65,0,0,0-.7-2.6,3.88,3.88,0,0,0-2.68-.68,4.41,4.41,0,0,0-3.39,1.17,5.22,5.22,0,0,0-1.09,3.66V227Z"/><path d="M300,222.21h2.43v.37a2.21,2.21,0,0,0,.93,2.06,8.14,8.14,0,0,0,3.71.56c2.08,0,3.37-.19,3.85-.57a2.72,2.72,0,0,0,.73-2.21,2.81,2.81,0,0,0-.6-2.11,5.57,5.57,0,0,0-3-.65c-.59,0-1.38-.07-2.37-.1a12,12,0,0,1-3.89-.45,2.91,2.91,0,0,1-1.31-1.38,6.41,6.41,0,0,1-.4-2.53c0-1.79.46-3,1.37-3.65s2.93-1,6-1c2.42,0,4.05.31,4.91.91a3.67,3.67,0,0,1,1.28,3.2h-2.4v-.16a1.49,1.49,0,0,0-.93-1.49,10.89,10.89,0,0,0-3.71-.41,7.27,7.27,0,0,0-3.41.5c-.5.33-.74,1-.74,2.06a4.16,4.16,0,0,0,.14,1.34,1,1,0,0,0,.49.59,8.66,8.66,0,0,0,3.2.44l1,0c1.36.06,2.42.13,3.19.21a6.05,6.05,0,0,1,1.65.36,3,3,0,0,1,1.53,1.42,8.21,8.21,0,0,1,0,5.39,4.09,4.09,0,0,1-1.6,1.64,4.41,4.41,0,0,1-1.71.48,27.88,27.88,0,0,1-3.3.15c-2.87,0-4.78-.33-5.71-1s-1.39-1.86-1.39-3.61Z"/><path d="M336.46,174.81,323,156.63h7.27l13.27,18.18-13.27,18.28H323.1Zm16.41,0-13.36-18.18h7.18l13.36,18.18-13.27,18.28h-7.27Z"/><path class="cls-1" d="M23.72,157.06q0-11,4.21-15.33t14.89-4.31h6.7q10.59,0,14.86,3.71t4.28,12.62v2.5H62.11v-1.58q0-6.51-2.66-8.89t-10.39-2.39H44.63a32.43,32.43,0,0,0-7.57.63,9.12,9.12,0,0,0-4,2.14A7.86,7.86,0,0,0,30.9,150a39.07,39.07,0,0,0-.64,8.64V175a38.81,38.81,0,0,0,.64,8.61,7.81,7.81,0,0,0,2.21,3.83A8.91,8.91,0,0,0,37,189.54a31.53,31.53,0,0,0,7.68.64h4.43q7.94,0,10.55-2.51c1.74-1.66,2.62-4.87,2.62-9.59,0-.72,0-1.27,0-1.65s0-.75-.06-1.08h6.51v3.77q0,9.56-4.14,13.29t-15,3.73h-6.7q-10.66,0-14.89-4.31T23.72,176.5Z"/><path class="cls-1" d="M93.38,196q-9.09,0-12.71-3.54T77.05,180v-9.63q0-8.92,3.61-12.48t12.65-3.54h2.8q9.09,0,12.71,3.54t3.62,12.48v6.13l-29.15,0c0,.41,0,.87-.06,1.37s0,1.2,0,2.1c0,4.18.66,7,2,8.41s4,2.14,8.09,2.14h2.8q5.43,0,7.55-1.56c1.42-1,2.24-2.85,2.47-5.45h6.24q-.47,6.58-4.24,9.51C105.61,195,101.64,196,96.19,196ZM83.29,171.23h22.95v-1.58q0-5.7-2-7.74c-1.36-1.36-4-2-8.09-2h-2.8q-6,0-8,2t-2,7.74Z"/><path class="cls-1" d="M123.19,195.45V154.9H129v5.55a8.72,8.72,0,0,1,4-4.62,15,15,0,0,1,7.16-1.47q6.63,0,9.3,3.2t2.68,11.32v.31h-6.05V168c0-3.23-.51-5.41-1.54-6.52s-3-1.68-5.81-1.68c-3.34,0-5.76,1-7.24,2.83s-2.24,5-2.24,9.26v23.57Z"/><path class="cls-1" d="M174.83,196q-9.09,0-12.71-3.54T158.5,180v-9.63q0-8.92,3.6-12.48t12.65-3.54h2.81q9.09,0,12.71,3.54t3.62,12.48v6.13l-29.15,0c0,.41-.05.87-.06,1.37s0,1.2,0,2.1c0,4.18.67,7,2,8.41s4,2.14,8.08,2.14h2.81q5.43,0,7.55-1.56c1.41-1,2.23-2.85,2.47-5.45h6.23q-.45,6.58-4.23,9.51c-2.52,1.95-6.49,2.93-11.94,2.93Zm-10.09-24.76h22.95v-1.58q0-5.7-2-7.74t-8.09-2h-2.81q-6,0-8,2t-2,7.74Z"/><path class="cls-1" d="M204.79,195.45V138.11h6v22.57a10.67,10.67,0,0,1,4.68-4.84,18,18,0,0,1,7.95-1.48q8.67,0,12.23,3.59t3.56,12.43V180q0,8.82-3.56,12.4T223.39,196a17.88,17.88,0,0,1-8.32-1.63,9.94,9.94,0,0,1-4.54-5.15v6.24Zm6-23.57v6.63q0,6.31,3,9.18t9.45,2.87q5.9,0,7.83-2.12t1.95-9.78v-6.93q0-7.71-1.95-9.82t-7.83-2.12q-6.51,0-9.45,2.87t-3,9.22"/><path class="cls-1" d="M249.92,195.45V154.9h5.82v5.55a8.68,8.68,0,0,1,4-4.62,14.93,14.93,0,0,1,7.16-1.47q6.61,0,9.3,3.2t2.68,11.32v.31H272.8V168c0-3.23-.51-5.41-1.54-6.52s-3-1.68-5.81-1.68c-3.35,0-5.76,1-7.25,2.83s-2.23,5-2.23,9.26v23.57Z"/><path class="cls-1" d="M301.57,196q-9.09,0-12.71-3.54T285.24,180v-9.63q0-8.92,3.6-12.48t12.65-3.54h2.81q9.09,0,12.71,3.54t3.62,12.48V180q0,8.94-3.6,12.46T304.38,196Zm12.86-17.33v-6.93q0-7.66-1.95-9.76t-8.18-2.1h-2.81c-4.13,0-6.84.69-8.11,2.08s-1.9,4.64-1.9,9.78v6.93q0,7.74,1.92,9.82c1.29,1.39,4,2.08,8.09,2.08h2.81c4.13,0,6.85-.7,8.17-2.12s2-4.67,2-9.78"/></svg>