<svg id="Layer_1" data-name="Layer 1" xmlns="http://www.w3.org/2000/svg" viewBox="0 0 377.27 330.68"><defs><style>.cls-1{fill:#878787;}.cls-2{fill:#f28b0f;}</style></defs><g id="Crop_Marks" data-name="Crop Marks"><path class="cls-1" d="M133.28,187.89h-21.9c-4.8,0-8.5-.7-11.1-2.2s-3.9-4.1-3.9-7.7v-31.5h8.2v30.1c0,2.1.7,3.6,2,4.4,1,.6,3.2,1,6.5,1h20v5.9Z"/><path class="cls-1" d="M173.68,180.09a6.61,6.61,0,0,1-2.8,5.6,12,12,0,0,1-7.5,2.2h-13.9c-3.3,0-6-.6-7.9-1.9a6.26,6.26,0,0,1-3.2-5.7v-5.5a6.81,6.81,0,0,1,2.9-5.8c1.9-1.4,4.5-2,7.9-2h17.4a6.56,6.56,0,0,0-1-3.7c-.8-.9-2.3-1.3-4.6-1.3h-22.4v-5.3H162c7.9,0,11.8,2.6,11.8,7.9v15.5Zm-7.3-1v-6c0-.7-.6-1-1.7-1h-13.9c-3.5,0-5.2,1.3-5.2,3.9v3.1a2.9,2.9,0,0,0,1.5,2.6,7.24,7.24,0,0,0,3.7.9h10.4C164.68,182.49,166.38,181.39,166.38,179.09Z"/><path class="cls-1" d="M208.58,187.79v-19.7c0-3.2-2-4.8-6.1-4.8h-8.1c-4.1,0-6.2,1.6-6.2,4.8v19.7h-7.3v-21.6c0-6.3,3.7-9.5,11.1-9.5h12.8c7.3,0,11,3.2,11,9.5v21.6Z"/><path class="cls-1" d="M260.28,146.49v32.7c0,3.1-1.1,5.4-3.4,6.7a15.72,15.72,0,0,1-8.3,2h-12.8c-7.4,0-11.1-2.8-11.1-8.5v-14.9a7.31,7.31,0,0,1,3-6.1,13.2,13.2,0,0,1,8.1-2.3h17.4v-9.7h7.1Zm-7.3,31.9v-15.5c0-.9-.6-1.3-1.8-1.3h-13.4c-3.9,0-5.9,1.5-5.9,4.4v12a4.11,4.11,0,0,0,1.1,3.2,7.69,7.69,0,0,0,4.8,1.2h8.8C250.88,182.49,253,181.09,253,178.39Z"/><path class="cls-2" d="M304.58,169.09l-27.9,8.2v1a3.91,3.91,0,0,0,1.9,3.6,11.05,11.05,0,0,0,4.4.7h21.5v5.3h-22.9c-3.9,0-6.9-.6-8.7-1.8a7.15,7.15,0,0,1-3.6-6.7v-14.7c0-5.3,3.9-7.9,11.6-7.9h12.8q10.8,0,10.8,8.4v3.9Zm-7.5-3v-.5c0-2.4-1.9-3.6-5.8-3.6h-8c-4.5,0-6.7,1.3-6.7,4v6.1Z"/><path class="cls-2" d="M346.18,187.89h-8.7l-10.4-10.8-10.4,10.8H308l15-16-14-15.2h8.5l9.4,10,25.8-26.3h8.6l-30.2,31.5Z"/><path class="cls-1" d="M55.88,188c-1.7-3.2-3.4-6.7-5-10.5a110.87,110.87,0,0,1-6.8-20.1,4.94,4.94,0,0,1-2.6-1.3,71.66,71.66,0,0,0-13,10.9,4.68,4.68,0,0,1,.5,5.6A73.27,73.27,0,0,0,55.88,188Z"/><path class="cls-1" d="M74.28,194.29a70.3,70.3,0,0,1-10.6-1.3,3.81,3.81,0,0,1-.9,1.3c1.1,1.8,2.1,3.5,2.9,4.9A42.61,42.61,0,0,0,74.28,194.29Z"/><path class="cls-2" d="M71.38,148.79a50.07,50.07,0,0,0-7.8-.1,46.78,46.78,0,0,0-14.2,3.4,4.79,4.79,0,0,1-1.3,4.1,4.44,4.44,0,0,1-1.1.8,116.17,116.17,0,0,0,6.6,19.4c1.6,3.6,3.3,7.1,4.9,10.2a4.76,4.76,0,0,1,3.3.5,49.77,49.77,0,0,0,12.8-26.3,39.68,39.68,0,0,0,.6-6.7,5,5,0,0,1-2.5-1.3A4.49,4.49,0,0,1,71.38,148.79Z"/><path class="cls-1" d="M45.48,148.29a4.2,4.2,0,0,1,2.5,1.2,46.84,46.84,0,0,1,15.5-3.7,57.45,57.45,0,0,1,9.4.2,4.6,4.6,0,0,1,1.8-1,49.33,49.33,0,0,0-2-9.2l-.3-1c-5.9-4.2-12.4-5.8-20.2-5.8a26.29,26.29,0,0,0-4.9.4A42.63,42.63,0,0,0,45.48,148.29Z"/><path class="cls-1" d="M54.78,190.69a77.09,77.09,0,0,1-20.9-10.4,66.45,66.45,0,0,1-7.1-5.8,4.55,4.55,0,0,1-4.1-.4c-1.3,1.7-2.6,3.5-3.8,5.4a36,36,0,0,0,24.6,21.1,67.42,67.42,0,0,0,11.7-7.6A3.66,3.66,0,0,1,54.78,190.69Z"/><path class="cls-1" d="M86.28,152.89a33.3,33.3,0,0,0-5.9-2.3,4.88,4.88,0,0,1-1.3,2.3,4.44,4.44,0,0,1-1.1.8,69.27,69.27,0,0,1-.7,7.6,49.74,49.74,0,0,1-9.7,23.2,43.34,43.34,0,0,1-4,4.7,6.89,6.89,0,0,0,.3.8,69.08,69.08,0,0,0,13.6,1.4,36.07,36.07,0,0,0,11.1-26.2,33.22,33.22,0,0,0-2.3-12.3Z"/><path class="cls-1" d="M77.68,145.19a4.19,4.19,0,0,1,1.6,1.1,5,5,0,0,1,.8,1.2,39.24,39.24,0,0,1,4.5,1.5,38.64,38.64,0,0,0-8.2-10.6A37.38,37.38,0,0,1,77.68,145.19Z"/><path class="cls-1" d="M22.68,166.19a4.54,4.54,0,0,1,3.2-.6c1-1.1,2-2.1,3-3.1a63.38,63.38,0,0,1,11-8.8.31.31,0,0,1,.2-.1,5,5,0,0,1,1.3-4,4.44,4.44,0,0,1,1.1-.8,45.36,45.36,0,0,1,1.4-18.7,36.46,36.46,0,0,0-27.3,28.3C18.58,161.19,20.68,163.79,22.68,166.19Z"/><path class="cls-1" d="M20.68,171.69a4.21,4.21,0,0,1,.1-3.3c-1.6-1.9-3.2-3.8-4.7-5.8-.1,1-.1,2-.1,3a37.1,37.1,0,0,0,1.6,10.5C18.58,174.59,19.68,173.09,20.68,171.69Z"/><path class="cls-1" d="M60.18,195.59a4.49,4.49,0,0,1-3-.5,67.76,67.76,0,0,1-9.2,6.3,34,34,0,0,0,4.5.3,35.88,35.88,0,0,0,10.4-1.6A44.54,44.54,0,0,1,60.18,195.59Z"/></g></svg>