<svg id="Layer_1" data-name="Layer 1" xmlns="http://www.w3.org/2000/svg" viewBox="0 0 377.27 330.68"><defs><style>.cls-1{fill:#231f20;}.cls-2{fill:#16bcef;}.cls-2,.cls-3{fill-rule:evenodd;}.cls-3{fill:#5cb747;}</style></defs><path class="cls-1" d="M84.69,249.26H59.52c-5.53,0-9.76-.85-12.72-2.55s-4.42-4.66-4.42-8.87V201.62h9.47v34.55q0,3.66,2.33,5.09,1.77,1.1,7.52,1.1h23Z"/><path class="cls-1" d="M146.66,249.26H137.2V201.52h9.46Z"/><path class="cls-1" d="M250.63,243.55a5.76,5.76,0,0,1-2,4.48,8.13,8.13,0,0,1-5.74,2,8,8,0,0,1-5.25-1.52,21,21,0,0,1-2.86-3.85l-22-33.56v38.26h-9V208.62q0-7,7.71-7a8.27,8.27,0,0,1,5.34,1.47,18.33,18.33,0,0,1,2.94,3.85l21.86,33.51V202.09h9Z"/><path class="cls-1" d="M356.3,249.26H345.21l-16-17.75-15.38,17.75H302.61l21.65-24.18-20.79-23.46h11.22l14.61,16.75,14.91-16.75h11.23L334.68,225Z"/><path class="cls-2" d="M131.53,104.24c6.9-1.18,12,.08,17.2,4.41,12.9,10.7,19.87,16.3,29.86,24.41,10.29,8.34,10.75,19.68.6,28.22-10.61,8.95-21.45,17.67-32.67,25.81-2.78,2-11.84,1-12.14.52.72-.39,25.37-20.12,36.57-29.17,10.58-8.62,10.58-13.26.07-21.85C158,125.93,145,115.25,131.53,104.24Z"/><path class="cls-3" d="M258.51,104.24c-6.88-1.18-12,.08-17.19,4.41-12.89,10.7-19.87,16.3-29.86,24.41-10.29,8.34-10.75,19.68-.61,28.22,10.62,8.95,21.45,17.67,32.68,25.81,2.79,2,11.84,1,12.15.52-.73-.39-25.38-20.12-36.58-29.17-10.59-8.62-10.58-13.26-.08-21.85C232.05,125.93,245.05,115.25,258.51,104.24Z"/></svg>