<svg id="Layer_1" data-name="Layer 1" xmlns="http://www.w3.org/2000/svg" viewBox="0 0 377.27 330.68"><defs><style>.cls-1{fill:#3b5202;}.cls-2{fill:#75a300;}.cls-3{fill:#8c8c8c;}</style></defs><polygon class="cls-1" points="301.52 157.23 304.78 160.5 301.53 163.76 293.11 172.17 289.84 168.9 298.26 160.5 301.52 157.23"/><polygon class="cls-1" points="306.26 152.48 309.53 155.75 306.28 159.02 303.01 155.75 306.26 152.48"/><polygon class="cls-1" points="311.03 147.73 314.3 151 311.03 154.25 307.76 150.98 311.03 147.73"/><polygon class="cls-1" points="315.78 142.98 319.05 146.25 315.78 149.5 312.51 146.23 315.78 142.98"/><polygon class="cls-1" points="332.2 133.08 323.79 141.5 320.53 144.75 317.26 141.49 320.53 138.23 328.93 129.81 332.2 133.08"/><polygon class="cls-1" points="306.26 161.97 309.53 165.25 306.28 168.51 297.86 176.92 294.59 173.65 303.01 165.25 306.26 161.97"/><polygon class="cls-1" points="311.01 157.23 314.28 160.5 311.03 163.76 307.76 160.5 311.01 157.23"/><polygon class="cls-1" points="315.78 152.48 319.05 155.75 315.78 159 312.51 155.73 315.78 152.48"/><polygon class="cls-1" points="320.53 147.73 323.79 151 320.53 154.25 317.26 150.98 320.53 147.73"/><polygon class="cls-1" points="336.95 137.82 328.54 146.25 325.27 149.5 322 146.23 325.27 142.98 333.68 134.56 336.95 137.82"/><polygon class="cls-1" points="311.01 166.72 314.28 169.99 311.03 173.26 302.6 181.67 299.33 178.4 307.76 169.99 311.01 166.72"/><polygon class="cls-1" points="315.76 161.97 319.03 165.25 315.78 168.51 312.51 165.25 315.76 161.97"/><polygon class="cls-1" points="320.53 157.23 323.79 160.5 320.53 163.75 317.26 160.48 320.53 157.23"/><polygon class="cls-1" points="325.27 152.48 328.54 155.75 325.27 159 322 155.73 325.27 152.48"/><polygon class="cls-1" points="341.7 142.57 333.29 151 330.02 154.25 326.75 150.98 330.02 147.73 338.43 139.31 341.7 142.57"/><polygon class="cls-1" points="315.76 171.47 319.03 174.74 315.78 178.01 307.35 186.42 304.08 183.15 312.51 174.74 315.76 171.47"/><polygon class="cls-1" points="320.51 166.72 323.78 169.99 320.53 173.26 317.26 169.99 320.51 166.72"/><polygon class="cls-1" points="325.27 161.97 328.54 165.25 325.27 168.5 322 165.23 325.27 161.97"/><polygon class="cls-1" points="330.02 157.23 333.29 160.5 330.02 163.75 326.75 160.48 330.02 157.23"/><polygon class="cls-1" points="346.45 147.32 338.04 155.75 334.77 159 331.5 155.73 334.77 152.48 343.18 144.05 346.45 147.32"/><polygon class="cls-1" points="320.53 176.22 323.78 179.49 320.53 182.76 312.1 191.17 308.83 187.91 317.26 179.49 320.53 176.22"/><polygon class="cls-1" points="325.27 171.47 328.53 174.74 325.27 178.01 322 174.74 325.27 171.47"/><polygon class="cls-1" points="330.02 166.72 333.29 169.99 330.02 173.24 326.75 169.99 330.02 166.72"/><polygon class="cls-1" points="334.77 161.97 338.04 165.25 334.77 168.5 331.5 165.25 334.77 161.97"/><polygon class="cls-1" points="351.2 152.07 342.79 160.5 339.52 163.75 336.25 160.5 339.52 157.23 347.94 148.8 351.2 152.07"/><polygon class="cls-2" points="351.2 168.9 347.94 172.17 339.52 163.75 336.25 160.5 334.77 159 331.5 155.73 317.26 141.49 308.83 133.08 312.1 129.81 320.53 138.23 334.77 152.48 338.04 155.75 339.52 157.23 342.79 160.5 351.2 168.9"/><polygon class="cls-2" points="346.45 173.65 343.2 176.92 334.77 168.5 331.5 165.25 330.02 163.75 326.75 160.48 325.27 159 322 155.73 312.51 146.23 304.08 137.82 307.35 134.56 315.78 142.98 325.27 152.48 328.54 155.75 330.02 157.23 333.29 160.5 334.77 161.97 338.04 165.25 346.45 173.65"/><polygon class="cls-2" points="341.7 178.4 338.45 181.67 330.02 173.24 326.75 169.99 325.27 168.5 322 165.23 320.53 163.75 317.26 160.48 315.78 159 312.51 155.73 307.76 150.98 299.33 142.57 302.6 139.31 311.03 147.73 315.78 152.48 319.05 155.75 320.53 157.23 323.79 160.5 325.27 161.97 328.54 165.25 333.29 169.99 341.7 178.4"/><polygon class="cls-2" points="336.95 183.17 333.68 186.42 325.27 178.01 322 174.74 320.53 173.26 317.26 169.99 303.01 155.75 294.59 147.32 297.86 144.05 306.26 152.48 309.53 155.75 311.01 157.23 314.28 160.5 315.76 161.97 319.03 165.25 323.78 169.99 325.27 171.47 328.53 174.74 336.95 183.17"/><polygon class="cls-2" points="332.2 187.91 328.93 191.17 320.53 182.76 317.26 179.49 315.78 178.01 312.51 174.74 311.03 173.26 307.76 169.99 298.26 160.5 289.84 152.07 293.11 148.8 301.52 157.23 304.78 160.5 306.26 161.97 309.53 165.25 319.03 174.74 320.53 176.22 323.78 179.49 332.2 187.91"/><path class="cls-3" d="M41.54,193V140.5H52.47l22.78,35.08V140.5H85.69V193H74.41L52,158.78V193Z"/><path class="cls-3" d="M92.57,193V140.5H103.8V193Z"/><path class="cls-3" d="M111.44,193V140.5h23.65q8.92,0,13,1.42a12.64,12.64,0,0,1,6.48,5,14.54,14.54,0,0,1,2.43,8.28,13.56,13.56,0,0,1-3.69,9.77q-3.68,3.84-11,4.85a26.13,26.13,0,0,1,6,4.41,59.67,59.67,0,0,1,6.4,8.53L161.47,193H148l-8.13-11.44a75.61,75.61,0,0,0-5.92-7.72,8.61,8.61,0,0,0-3.38-2.18,19.4,19.4,0,0,0-5.66-.59h-2.28V193Zm11.23-30.32H131c5.39,0,8.76-.21,10.1-.65a6,6,0,0,0,3.15-2.22,6.54,6.54,0,0,0,1.14-3.94,6.07,6.07,0,0,0-1.5-4.28,7,7,0,0,0-4.23-2.06c-.92-.12-3.65-.18-8.21-.18h-8.77Z"/><path class="cls-3" d="M156.93,175.94l10.93-1c.66,3.46,2,6,4,7.63A12.54,12.54,0,0,0,180,185q5.43,0,8.18-2.17a6.31,6.31,0,0,0,2.75-5.07,4.62,4.62,0,0,0-1.15-3.17,9.54,9.54,0,0,0-4-2.28q-2-.65-9-2.29-9-2.11-12.68-5.2a13.37,13.37,0,0,1-5.12-10.57,12.92,12.92,0,0,1,2.41-7.5,15,15,0,0,1,7-5.33,29.45,29.45,0,0,1,10.95-1.82q10.49,0,15.77,4.33a15,15,0,0,1,5.57,11.58l-11.24.46q-.72-4-3.1-5.82t-7.11-1.77q-4.9,0-7.67,1.9a3.76,3.76,0,0,0-1.79,3.26,4,4,0,0,0,1.67,3.19q2.13,1.68,10.33,3.51A56.92,56.92,0,0,1,193.81,164a15.29,15.29,0,0,1,6.15,5.34,15.73,15.73,0,0,1-.44,16.82,15.72,15.72,0,0,1-7.51,5.86A33.17,33.17,0,0,1,179.9,194q-10.56,0-16.22-4.61T156.93,175.94Z"/><path class="cls-3" d="M254.05,193H241.82L237,181.1H214.72L210.12,193H198.2l21.68-52.54h11.88Zm-20.69-20.79-7.67-19.49-7.52,19.49Z"/><path class="cls-3" d="M257.2,193V140.93h11.24v43.25h27.94V193Z"/></svg>