<svg id="Layer_1" data-name="Layer 1" xmlns="http://www.w3.org/2000/svg" viewBox="0 0 377.27 330.68"><defs><style>.cls-1{fill:#03a550;}.cls-2{fill:#fff;}</style></defs><polygon class="cls-1" points="113.61 169.84 113.61 267.01 98.73 267.01 100.29 249.26 107.23 169.84 113.61 169.84"/><rect class="cls-1" x="127.1" y="169.82" width="14.89" height="109.29"/><polygon class="cls-1" points="169.65 279.12 154.76 279.12 160.44 77.64 169.65 77.64 169.65 279.12"/><path class="cls-1" d="M198.28,77.65V106c-4-5.87-10.59-5.91-14.9-.17V77.65Z"/><polygon class="cls-1" points="282.76 267 267.87 267 267.87 169.84 274.22 169.84 281.2 249.27 282.76 267"/><rect class="cls-1" x="239.48" y="169.82" width="14.89" height="109.29"/><polygon class="cls-1" points="211.82 279.12 226.72 279.12 221.05 77.64 211.82 77.64 211.82 279.12"/><path class="cls-1" d="M284.19,266.91c-.47.44-.95.89-1.44,1.33a136.65,136.65,0,0,1-178.65,4.7c-2.15-1.75-4.26-3.59-6.3-5.51a120.62,120.62,0,0,1,19.73-19,105.39,105.39,0,0,0,12,9.38,109.32,109.32,0,0,0,127.07-3.33,99.24,99.24,0,0,0,7.77-6.46A120.26,120.26,0,0,1,284.19,266.91Z"/><path d="M327.43,167.24a136,136,0,0,1-43.24,99.67A120.26,120.26,0,0,0,264.34,248a109.41,109.41,0,1,0-146.81.41,120.62,120.62,0,0,0-19.73,19A136.67,136.67,0,1,1,327.43,167.24Z"/><path class="cls-2" d="M135.39,287.42l3.35-3.38a13.14,13.14,0,0,0,5.69,4.37c2.28.87,3.41.57,3.77-.38,1.17-3.09-10.75-5-8-12.27,1.32-3.48,5.23-5.23,11-3a15.59,15.59,0,0,1,6.41,4.38l-3.25,3.44a12.26,12.26,0,0,0-4.82-3.55c-2.31-.88-3.44-.42-3.81.55-1.13,3,10.75,5,8,12.13-1.29,3.39-5.23,5.2-11,3A16.39,16.39,0,0,1,135.39,287.42Z"/><path class="cls-2" d="M161,287.62c.92-6.18,6.45-10,13-9s10.77,6.23,9.85,12.41-6.45,10-13,9S160.05,293.8,161,287.62Zm17,2.53a5.63,5.63,0,1,0-6.44,5.06A5.58,5.58,0,0,0,178,290.15Z"/><path class="cls-2" d="M190.31,280.3l5.88-.13.46,20.81-5.89.13Z"/><path class="cls-2" d="M213.73,293.49l-3.16.57,1,5.45-5.8,1-3.68-20.49,9.37-1.69c5.59-1,9.62,1.26,10.46,5.95a6.91,6.91,0,0,1-2.84,7.19l5.57,5.64-6.2,1.12ZM211.91,283l-3.22.58,1.07,6L213,289c2.4-.43,3.4-1.76,3.06-3.63S214.31,282.57,211.91,283Z"/><path class="cls-2" d="M231.19,293.21l.18-4.75a13.17,13.17,0,0,0,7.15-.63c2.26-.91,2.89-1.9,2.52-2.84-1.22-3.06-11.33,3.56-14.19-3.62-1.38-3.46.32-7.4,6.06-9.69a15.58,15.58,0,0,1,7.69-1.11l-.06,4.73a12.31,12.31,0,0,0-6,.64c-2.29.92-2.81,2-2.43,3,1.18,3,11.27-3.63,14.11,3.5,1.34,3.37-.33,7.37-6.08,9.66A16.27,16.27,0,0,1,231.19,293.21Z"/><path class="cls-2" d="M92.87,230.13l-2.94.28a9,9,0,0,0-1.12-5.22c-1-1.84-2.08-2.24-2.9-1.77-2.51,1.43,3.65,8.24-1.33,11.08-2.28,1.3-5.22.54-7.4-3.27a10.52,10.52,0,0,1-1.46-5.33l2.9-.39a8.69,8.69,0,0,0,1.07,4.32c1,1.84,2.14,2.15,3,1.67,2.47-1.4-3.67-8.23,1.25-11,2.24-1.28,5.21-.51,7.39,3.32A11,11,0,0,1,92.87,230.13Z"/><path class="cls-2" d="M80.34,220.69c-4.26,1.71-8.74-.33-10.55-4.85s0-9.09,4.25-10.81,8.74.36,10.54,4.85S84.59,219,80.34,220.69Zm-5-12.3A4.83,4.83,0,1,0,81.76,211,4.69,4.69,0,0,0,75.38,208.39Z"/><path class="cls-2" d="M73.59,196.42l2.59,1.51L80,197l.83,3.45-15,3.63L65,200.64,72,199,63.37,194l-.94-3.85,8.19,4.59,6.72-8.59,1,4Z"/><path class="cls-2" d="M69.8,187.74c-4.56.45-8.29-2.77-8.76-7.62s2.53-8.72,7.11-9.17,8.29,2.79,8.76,7.61S74.36,187.29,69.8,187.74Zm-1.3-13.2a4.83,4.83,0,1,0,5.39,4.32A4.72,4.72,0,0,0,68.5,174.54Z"/><path class="cls-2" d="M63.59,165,63.43,170l-2.9-.09.41-13.43,2.91.09-.16,4.93,12.51.39-.11,3.56Z"/><path class="cls-2" d="M68.61,155.85c-4.52-.73-7.3-4.8-6.52-9.61s4.69-7.79,9.23-7.05,7.3,4.83,6.52,9.61S73.14,156.59,68.61,155.85Zm2.13-13.09a4.83,4.83,0,1,0,4.1,5.56A4.7,4.7,0,0,0,70.74,142.76Z"/><path class="cls-2" d="M79.22,134l-2.11-2.06a9,9,0,0,0,3.23-4.24c.72-2,.35-3-.54-3.36-2.72-1-3.89,8.13-9.28,6.19-2.47-.88-3.81-3.61-2.32-7.74a10.23,10.23,0,0,1,3.1-4.58l2.17,2a8.64,8.64,0,0,0-2.58,3.61c-.72,2-.25,3,.66,3.35,2.68,1,3.87-8.14,9.2-6.22,2.43.87,3.77,3.63,2.28,7.78A11,11,0,0,1,79.22,134Z"/><path class="cls-2" d="M75.79,112.81l-2.18,4.43L71,116l5.94-12.06,2.61,1.29-2.19,4.43,11.24,5.53L87,118.34Z"/><path class="cls-2" d="M93.69,100.15l-3.91,6,2,2.95-2,3.07L80.63,98l1.92-3,16.69,2.63-2,3.14Zm-2.89-.54-6.29-1.16,3.62,5.26Z"/><path class="cls-2" d="M91.83,87.35l-3.16,3.79-2.23-1.86L95,79l2.24,1.87-3.16,3.79,9.61,8-2.28,2.74Z"/><path class="cls-2" d="M114.34,77.79l2,2.08-8.66,8.23L97,76.92l8.45-8,2,2.07-5.87,5.59,2.3,2.43L109.07,74l1.92,2L105.8,81l2.46,2.59Z"/><path class="cls-2" d="M113.43,62.68l2.9-2.08,9,12.53-2.9,2.08Z"/><path class="cls-2" d="M132.19,50.94l7.67,13.38-2.54,1.46L126,61.48l4.66,8.13-3.06,1.75L119.91,58l2.56-1.47,11.32,4.31-4.66-8.13Z"/><path class="cls-2" d="M140.56,50.45,136,52.33l-1.11-2.69,12.43-5.12,1.11,2.68-4.56,1.89,4.77,11.57L145.33,62Z"/><path class="cls-2" d="M165,52.5l.77,2.76-11.5,3.23-4.17-14.85,11.22-3.15.78,2.76-7.81,2.19.91,3.22L162,46.73l.75,2.67-6.89,1.94,1,3.43Z"/><path class="cls-2" d="M177.33,53.44l-3.56-3.82-.18,0-3.07.45.62,4.25-3.53.52-2.24-15.26,6.61-1c4.07-.6,6.93,1.14,7.44,4.56A5,5,0,0,1,177,48.48l4.14,4.4ZM172.2,41.55l-2.87.42.78,5.32,2.87-.42c2.16-.32,3.1-1.48,2.86-3.14S174.36,41.23,172.2,41.55Z"/><path class="cls-2" d="M196.6,37.2l.25,15.42-2.93.05-7.84-9.24.15,9.36-3.53.06-.25-15.42,3,0,7.82,9.24-.16-9.37Z"/><path class="cls-2" d="M210.09,51,203,50l-1.8,3.09-3.63-.49,8.89-14.36,3.49.47,4.76,16.21-3.71-.5Zm-.75-2.84L207.71,42l-3.22,5.53Z"/><path class="cls-2" d="M219.3,40.4l3.46.92-3.21,12.09,7.48,2-.75,2.81-10.92-2.89Z"/><path class="cls-2" d="M241.56,64.6l-.91-5.14-.16-.08-2.82-1.29-1.8,3.9-3.24-1.49,6.43-14,6.07,2.78c3.74,1.72,5.2,4.74,3.75,7.88a5,5,0,0,1-4.91,3.1l1.07,6Zm2.18-12.77-2.65-1.21-2.24,4.89,2.64,1.21c2,.91,3.41.45,4.11-1.08S245.72,52.74,243.74,51.83Z"/><path class="cls-2" d="M258.08,71l-1.52,2.43-10.14-6.32L254.59,54l9.89,6.17L263,62.59l-6.88-4.29-1.78,2.84,6.08,3.79-1.47,2.36-6.08-3.79-1.89,3Z"/><path class="cls-2" d="M279.21,71.82l-14.93,7.74-2.73-2.23,4.59-16.16,3,2.44-3.32,11.51,10.65-5.54Z"/><path class="cls-2" d="M280,90.84l-2.08,2-8.24-8.64,11.16-10.65,8,8.43-2.08,2-5.6-5.86-2.42,2.31,4.95,5.18-2,1.92-4.95-5.19-2.58,2.47Z"/><path class="cls-2" d="M299.93,96.62l-12.48,9.08-1.72-2.37,3-11.73-7.58,5.51-2.07-2.86,12.48-9.07,1.73,2.39-3.06,11.71,7.57-5.51Z"/><path class="cls-2" d="M294.81,104.73l7.65-4,1.66,3.16-7.53,4c-2.59,1.36-3.07,3.06-2.07,5s2.68,2.48,5.27,1.12l7.53-4,1.64,3.12-7.65,4c-4,2.11-7.45,1-9.49-2.9S290.8,106.84,294.81,104.73Z"/><path class="cls-2" d="M303.07,132.92l-2.69,1-4.11-11.22,14.5-5.3,4,11-2.69,1-2.79-7.62-3.14,1.15,2.46,6.73-2.61,1-2.46-6.73L300.18,125Z"/><path class="cls-2" d="M303.55,139.77l2.86.71a9.06,9.06,0,0,0-.65,5.29c.38,2.08,1.23,2.8,2.16,2.63,2.84-.53-.74-9,4.9-10,2.57-.48,5.1,1.2,5.9,5.51a10.37,10.37,0,0,1-.37,5.52l-2.87-.59a8.73,8.73,0,0,0,.42-4.43c-.39-2.08-1.31-2.73-2.27-2.56-2.79.52.76,9-4.81,10-2.53.47-5.08-1.24-5.88-5.57A11,11,0,0,1,303.55,139.77Z"/><path class="cls-2" d="M308.15,166l-2.86.18-.76-11.92,15.39-1,.75,11.63-2.86.19-.52-8.09-3.34.21.46,7.15-2.77.18-.47-7.15-3.56.23Z"/><path class="cls-2" d="M304.69,177.92l4.47-2.71V175l.19-3.1-4.29-.27.21-3.56,15.4.94-.4,6.67c-.25,4.11-2.55,6.55-6,6.34a5,5,0,0,1-4.67-3.46l-5.16,3.15Zm12.7-2.58.17-2.9-5.36-.33L312,175c-.14,2.18.81,3.34,2.48,3.45S317.25,177.52,317.39,175.34Z"/><path class="cls-2" d="M316.44,200.87l-13.84-9.54.68-3.46,16.43-3.54-.75,3.79-11.72,2.46,9.89,6.81Z"/><path class="cls-2" d="M315.66,202.68l-1,3.42-14.78-4.4,1-3.42Z"/><path class="cls-2" d="M306.62,206.48c4.31,1.74,6.05,6.3,4.25,10.75a8,8,0,0,1-4.92,4.86l-1.1-2.92a5,5,0,0,0,3.13-2.92,4.93,4.93,0,0,0-9.14-3.71,4.92,4.92,0,0,0,.23,4.28l-2.82,1.33a7.92,7.92,0,0,1-.16-6.94C297.89,206.78,302.31,204.73,306.62,206.48Z"/><path class="cls-2" d="M289.82,230.32l-2.5-1.4,5.86-10.41,13.44,7.57-5.72,10.15-2.49-1.4,4-7.07-2.92-1.64L296,232.36,293.54,231l3.51-6.24L293.94,223Z"/></svg>