<svg id="Layer_1" data-name="Layer 1" xmlns="http://www.w3.org/2000/svg" xmlns:xlink="http://www.w3.org/1999/xlink" viewBox="0 0 377.27 330.68"><defs><style>.cls-1{fill:none;}.cls-2{clip-path:url(#clip-path);}.cls-3,.cls-4{fill:#8a8e96;}.cls-4,.cls-5{fill-rule:evenodd;}.cls-5,.cls-6{fill:#71b52b;}</style><clipPath id="clip-path"><rect class="cls-1" x="-2.63" y="128.72" width="368.68" height="91.95"/></clipPath></defs><g class="cls-2"><path class="cls-3" d="M116.74,162.27l1.76-3.89a13.11,13.11,0,0,0,7.36,2.33c3.06,0,4.31-1,4.31-2.4,0-4.17-13-1.3-13-9.59,0-3.8,3.06-6.95,9.4-6.95a15,15,0,0,1,7.75,2l-1.59,3.93a12.61,12.61,0,0,0-6.19-1.76c-3.06,0-4.24,1.15-4.24,2.55,0,4.12,13,1.28,13,9.47,0,3.73-3.09,6.92-9.47,6.92-3.54,0-7.11-1-9.09-2.58"/><path class="cls-3" d="M158.42,154.65v-12.5h5.17v12.31c0,4.24,1.85,6,5,6s5-1.75,5-6V142.15h5.11v12.5c0,6.57-3.77,10.2-10.11,10.2s-10.11-3.63-10.11-10.2"/><polygon class="cls-3" points="207.76 146.36 200.61 146.36 200.61 142.15 220.06 142.15 220.06 146.36 212.92 146.36 212.92 164.47 207.76 164.47 207.76 146.36"/><path class="cls-3" d="M256.83,164.47l-4.3-6.22h-4.75v6.22h-5.17V142.15h9.66c6,0,9.7,3.09,9.7,8.1a7.24,7.24,0,0,1-4.6,7l5,7.18ZM252,146.36h-4.21v7.78H252c3.15,0,4.75-1.47,4.75-3.89s-1.6-3.89-4.75-3.89"/><path class="cls-3" d="M300.52,159.69H290.16l-2,4.78h-5.29l9.95-22.32h5.1l10,22.32H302.5Zm-1.62-3.93-3.54-8.54-3.54,8.54Z"/><path class="cls-3" d="M353.84,166.86a7.58,7.58,0,0,1-6,2.74c-3.31,0-5.64-1.21-9.08-4.84-6.13-.77-10.43-5.39-10.43-11.45,0-6.63,5.17-11.54,12.21-11.54s12.21,4.88,12.21,11.54a11.23,11.23,0,0,1-8,10.9,4.12,4.12,0,0,0,3.16,1.56,4.85,4.85,0,0,0,3.63-1.65Zm-13.33-6.41a7.14,7.14,0,1,0-7-7.14,6.8,6.8,0,0,0,7,7.14"/><polygon class="cls-3" points="124.63 172.19 119.14 172.19 119.14 171.53 130.82 171.53 130.82 172.19 125.33 172.19 125.33 186.47 124.63 186.47 124.63 172.19"/><path class="cls-3" d="M150.21,181H140.5a4.74,4.74,0,0,0,4.93,4.86,4.52,4.52,0,0,0,3.67-1.64l.45.47a5.29,5.29,0,0,1-4.12,1.81,5.39,5.39,0,0,1-5.61-5.61c0-3.29,2.21-5.62,5.2-5.62a5.2,5.2,0,0,1,5.19,5.53Zm-9.69-.58h9a4.55,4.55,0,0,0-4.53-4.51,4.5,4.5,0,0,0-4.5,4.51"/><path class="cls-3" d="M161.4,180.92a5.36,5.36,0,0,1,5.51-5.62,5,5,0,0,1,4.1,1.9l-.53.45a4.25,4.25,0,0,0-3.57-1.68,5,5,0,0,0,0,9.92,4.25,4.25,0,0,0,3.57-1.68l.53.42a5,5,0,0,1-4.1,1.9,5.35,5.35,0,0,1-5.51-5.61"/><path class="cls-3" d="M192.86,180v6.51h-.71V180c0-2.65-1.41-4-3.82-4a4.19,4.19,0,0,0-4.46,4.52v6h-.7V170.63h.7V178a4.65,4.65,0,0,1,4.53-2.74c2.71,0,4.46,1.6,4.46,4.66"/><path class="cls-3" d="M216.13,180v6.51h-.7V180c0-2.65-1.41-4-3.82-4a4.18,4.18,0,0,0-4.46,4.52v6h-.71V175.39h.69v2.71a4.6,4.6,0,0,1,4.54-2.8c2.71,0,4.46,1.6,4.46,4.66"/><path class="cls-3" d="M228.48,180.92a5.45,5.45,0,1,1,5.45,5.61,5.36,5.36,0,0,1-5.45-5.61m10.18,0a4.74,4.74,0,1,0-4.73,5,4.66,4.66,0,0,0,4.73-5"/><rect class="cls-3" x="251.82" y="170.63" width="0.7" height="15.84"/><path class="cls-3" d="M265,180.92a5.44,5.44,0,1,1,5.44,5.61,5.35,5.35,0,0,1-5.44-5.61m10.18,0a4.75,4.75,0,1,0-4.74,5,4.66,4.66,0,0,0,4.74-5"/><path class="cls-3" d="M298.07,175.39v10c0,3.63-1.75,5.27-5.23,5.27a6.94,6.94,0,0,1-5-1.79l.4-.53a6.48,6.48,0,0,0,4.55,1.68c3.1,0,4.55-1.4,4.55-4.54v-2.35a5.14,5.14,0,0,1-4.83,2.94,5.39,5.39,0,1,1,0-10.78,5.16,5.16,0,0,1,4.85,3v-2.88Zm-.68,5.29a4.82,4.82,0,1,0-4.82,4.76,4.59,4.59,0,0,0,4.82-4.76"/><path class="cls-3" d="M311.42,171.8a.71.71,0,1,1,.71.69.71.71,0,0,1-.71-.69m.37,3.59h.7v11.08h-.7Z"/><path class="cls-3" d="M335.34,181h-9.72a4.76,4.76,0,0,0,4.94,4.86,4.53,4.53,0,0,0,3.67-1.64l.45.47a5.31,5.31,0,0,1-4.12,1.81,5.4,5.4,0,0,1-5.62-5.61c0-3.29,2.22-5.62,5.21-5.62a5.2,5.2,0,0,1,5.19,5.53Zm-9.69-.58h9a4.55,4.55,0,0,0-4.53-4.51,4.5,4.5,0,0,0-4.5,4.51"/><path class="cls-3" d="M346.08,185.06l.34-.56a6.28,6.28,0,0,0,4.06,1.41c2.5,0,3.5-.94,3.5-2.3,0-3.5-7.49-1-7.49-5.36,0-1.58,1.28-2.95,4.05-2.95a6.41,6.41,0,0,1,3.72,1.13l-.36.56a5.61,5.61,0,0,0-3.38-1.05c-2.3,0-3.31,1-3.31,2.29,0,3.61,7.48,1.17,7.48,5.38,0,1.73-1.43,2.92-4.23,2.92a6.55,6.55,0,0,1-4.38-1.47"/><path class="cls-4" d="M32.13,211.28c-7.46,0-14.93,0-22.4,0-1.49,0-1.77-.36-1.6-1.81a12.52,12.52,0,0,1,12.58-10.73c10.77-.06,21.54.05,32.31,0,12.79-.11,21.73-10.16,21-22.28-.39-6.57,3.12-9.79,7.77-12.82,1.28-.84,1.79-.35,2.3.88,3.79,9.2,3.7,18.35-.59,27.3-6.1,12.74-16.46,19.09-30.48,19.43-7,.17-13.93,0-20.9,0"/><path class="cls-5" d="M87.06,142.56c7.47,0,14.94,0,22.4,0,1.49,0,1.78.36,1.6,1.81a12.51,12.51,0,0,1-12.57,10.73c-10.77.06-21.54-.06-32.31,0-12.79.11-21.73,10.16-21,22.28.39,6.57-3.12,9.79-7.76,12.82-1.29.84-1.79.35-2.3-.88-3.79-9.2-3.71-18.35.58-27.3,6.11-12.74,16.46-19.09,30.48-19.43,7-.17,13.94,0,20.9,0"/><path class="cls-6" d="M131.44,202.35H124a3.66,3.66,0,0,0,3.8,3.75,3.49,3.49,0,0,0,2.83-1.26l.35.36a4.09,4.09,0,0,1-3.18,1.4,4.17,4.17,0,0,1-4.33-4.33,4,4,0,1,1,8-.07Zm-7.47-.44h7a3.51,3.51,0,0,0-3.49-3.47,3.46,3.46,0,0,0-3.47,3.47"/><path class="cls-6" d="M140.82,201v5.53h-.52v-1.71a3.32,3.32,0,0,1-3.18,1.76c-1.93,0-3.06-1-3.06-2.41,0-1.25.79-2.33,3.11-2.33h3.11V201a2.33,2.33,0,0,0-2.64-2.59,4.43,4.43,0,0,0-3,1.16l-.3-.4a5,5,0,0,1,3.36-1.25c2,0,3.16,1.07,3.16,3.08m-.54,3.06V202.3h-3.11c-1.86,0-2.57.79-2.57,1.86,0,1.22,1,2,2.55,2a3.1,3.1,0,0,0,3.13-2.06"/><path class="cls-6" d="M144.05,205.46l.26-.43a4.85,4.85,0,0,0,3.13,1.09c1.93,0,2.7-.72,2.7-1.78,0-2.7-5.78-.79-5.78-4.13,0-1.22,1-2.27,3.13-2.27a5,5,0,0,1,2.86.87l-.28.43a4.3,4.3,0,0,0-2.6-.81c-1.77,0-2.55.78-2.55,1.77,0,2.78,5.76.9,5.76,4.14,0,1.34-1.1,2.26-3.26,2.26a5,5,0,0,1-3.37-1.14"/><path class="cls-6" d="M160.53,198l-4.48,9.82c-.66,1.48-1.47,2-2.52,2a2.52,2.52,0,0,1-1.91-.76l.31-.42a2,2,0,0,0,1.6.7c.82,0,1.43-.38,2-1.61l.55-1.17L152.18,198h.59l3.59,7.91L160,198Z"/><rect class="cls-6" x="168.86" y="194.34" width="0.53" height="15.41"/><path class="cls-6" d="M183.49,206a2.57,2.57,0,0,1-1.71.59,2,2,0,0,1-2.17-2.19v-5.93H178V198h1.62v-1.88h.54V198H183v.47h-2.81v5.85a1.56,1.56,0,0,0,1.68,1.79,2,2,0,0,0,1.38-.51Z"/><path class="cls-6" d="M190.75,197.94v.54h-.15c-2,0-3.16,1.34-3.16,3.53v4.54h-.54V198h.53v2.05a3.24,3.24,0,0,1,3.32-2.12"/><path class="cls-6" d="M200.07,201v5.53h-.53v-1.71a3.31,3.31,0,0,1-3.18,1.76c-1.92,0-3.06-1-3.06-2.41,0-1.25.79-2.33,3.11-2.33h3.11V201a2.33,2.33,0,0,0-2.63-2.59,4.41,4.41,0,0,0-3,1.16l-.3-.4a5,5,0,0,1,3.36-1.25c2,0,3.16,1.07,3.16,3.08m-.55,3.06V202.3h-3.11c-1.86,0-2.56.79-2.56,1.86,0,1.22,1,2,2.55,2a3.08,3.08,0,0,0,3.12-2.06"/><path class="cls-6" d="M212.08,201.53v5h-.54v-5c0-2-1.09-3.11-2.95-3.11a3.22,3.22,0,0,0-3.43,3.49v4.61h-.55V198h.53v2.09a3.55,3.55,0,0,1,3.5-2.16c2.09,0,3.44,1.24,3.44,3.59"/><path class="cls-6" d="M215.31,205.46l.27-.43a4.79,4.79,0,0,0,3.12,1.09c1.93,0,2.7-.72,2.7-1.78,0-2.7-5.77-.79-5.77-4.13,0-1.22,1-2.27,3.12-2.27a5,5,0,0,1,2.87.87l-.28.43a4.34,4.34,0,0,0-2.6-.81c-1.78,0-2.56.78-2.56,1.77,0,2.78,5.76.9,5.76,4.14,0,1.34-1.1,2.26-3.25,2.26a5,5,0,0,1-3.38-1.14"/><path class="cls-6" d="M233.75,202.29a4.12,4.12,0,0,1-4.18,4.31,3.91,3.91,0,0,1-3.67-2.34v5.48h-.55V198h.53v2.33a3.9,3.9,0,0,1,3.69-2.4,4.13,4.13,0,0,1,4.18,4.35m-.55,0a3.65,3.65,0,1,0-3.65,3.81,3.61,3.61,0,0,0,3.65-3.81"/><path class="cls-6" d="M243.36,201v5.53h-.52v-1.71a3.32,3.32,0,0,1-3.18,1.76c-1.93,0-3.06-1-3.06-2.41,0-1.25.79-2.33,3.11-2.33h3.11V201a2.33,2.33,0,0,0-2.64-2.59,4.43,4.43,0,0,0-3,1.16l-.3-.4a5,5,0,0,1,3.36-1.25c2,0,3.16,1.07,3.16,3.08m-.54,3.06V202.3h-3.11c-1.86,0-2.57.79-2.57,1.86,0,1.22,1,2,2.55,2a3.1,3.1,0,0,0,3.13-2.06"/><path class="cls-6" d="M251.76,197.94v.54h-.15c-2,0-3.16,1.34-3.16,3.53v4.54h-.54V198h.52v2.05a3.26,3.26,0,0,1,3.33-2.12"/><path class="cls-6" d="M262.09,202.35h-7.48a3.66,3.66,0,0,0,3.8,3.75,3.5,3.5,0,0,0,2.83-1.26l.34.36a4.06,4.06,0,0,1-3.17,1.4,4.17,4.17,0,0,1-4.33-4.33,4,4,0,1,1,8-.07Zm-7.47-.44h7a3.48,3.48,0,0,0-7,0"/><path class="cls-6" d="M273.24,201.53v5h-.54v-5c0-2-1.09-3.11-2.95-3.11a3.23,3.23,0,0,0-3.44,3.49v4.61h-.54V198h.52v2.09a3.57,3.57,0,0,1,3.51-2.16c2.09,0,3.44,1.24,3.44,3.59"/><path class="cls-6" d="M281.82,206a2.6,2.6,0,0,1-1.72.59,2,2,0,0,1-2.17-2.19v-5.93h-1.61V198h1.61v-1.88h.55V198h2.81v.47h-2.81v5.85c0,1.15.57,1.79,1.67,1.79a2.07,2.07,0,0,0,1.39-.51Z"/><rect class="cls-6" x="290.66" y="194.34" width="0.53" height="15.41"/><path class="cls-6" d="M308.78,198v7.72c0,2.79-1.35,4.06-4,4.06a5.35,5.35,0,0,1-3.84-1.38l.31-.41a5,5,0,0,0,3.51,1.3c2.39,0,3.51-1.09,3.51-3.51V204a4,4,0,0,1-3.72,2.27,4.16,4.16,0,1,1,0-8.31,4,4,0,0,1,3.73,2.29V198Zm-.53,4.08a3.71,3.71,0,1,0-3.72,3.67,3.54,3.54,0,0,0,3.72-3.67"/><rect class="cls-6" x="313.42" y="194.34" width="0.54" height="12.21"/><path class="cls-6" d="M317.64,202.27a4.2,4.2,0,1,1,4.19,4.33,4.13,4.13,0,0,1-4.19-4.33m7.85,0a3.66,3.66,0,1,0-3.66,3.83,3.61,3.61,0,0,0,3.66-3.83"/><path class="cls-6" d="M338.1,202.27a4.12,4.12,0,0,1-4.18,4.33,3.9,3.9,0,0,1-3.69-2.39v2.34h-.53V194.34h.55v5.95a3.9,3.9,0,0,1,3.67-2.35,4.12,4.12,0,0,1,4.18,4.33m-.55,0a3.65,3.65,0,1,0-3.65,3.83,3.6,3.6,0,0,0,3.65-3.83"/><path class="cls-6" d="M347.71,201v5.53h-.52v-1.71A3.32,3.32,0,0,1,344,206.6c-1.93,0-3.06-1-3.06-2.41,0-1.25.79-2.33,3.11-2.33h3.11V201a2.33,2.33,0,0,0-2.64-2.59,4.41,4.41,0,0,0-3,1.16l-.3-.4a5,5,0,0,1,3.36-1.25c2,0,3.16,1.07,3.16,3.08m-.54,3.06V202.3h-3.11c-1.86,0-2.57.79-2.57,1.86,0,1.22,1,2,2.55,2a3.1,3.1,0,0,0,3.13-2.06"/><rect class="cls-6" x="352.26" y="194.34" width="0.54" height="12.21"/></g></svg>