<svg id="Layer_1" data-name="Layer 1" xmlns="http://www.w3.org/2000/svg" viewBox="0 0 232.28 76.57">
  <g>
    <g>
      <path d="M38.73,46.65c-.89-1.69-1.79-3.54-2.64-5.55A59.13,59.13,0,0,1,32.5,30.48a2.58,2.58,0,0,1-1.37-.68,37.85,37.85,0,0,0-6.87,5.75,2.46,2.46,0,0,1,.26,3A38.74,38.74,0,0,0,38.73,46.65Z"/>
      <path d="M48.45,50a37,37,0,0,1-5.6-.68,1.94,1.94,0,0,1-.47.68c.58,1,1.11,1.85,1.53,2.59A21.74,21.74,0,0,0,48.45,50Z"/>
      <path d="M33.24,25.68a2.18,2.18,0,0,1,1.32.63,24.51,24.51,0,0,1,8.19-1.95,29.69,29.69,0,0,1,5,.1,2.65,2.65,0,0,1,.95-.53,26.86,26.86,0,0,0-1-4.86l-.16-.52a17.49,17.49,0,0,0-10.67-3.07,14.69,14.69,0,0,0-2.59.21,22.53,22.53,0,0,0-.95,10Z"/>
      <path d="M38.15,48.07a40.42,40.42,0,0,1-11-5.49,34.73,34.73,0,0,1-3.75-3.06,2.38,2.38,0,0,1-2.16-.22c-.69.9-1.38,1.85-2,2.86a19,19,0,0,0,13,11.14,34.83,34.83,0,0,0,6.18-4,2,2,0,0,1-.21-1.22Z"/>
      <path d="M54.79,28.11a17.12,17.12,0,0,0-3.12-1.22A2.54,2.54,0,0,1,51,28.11a2.46,2.46,0,0,1-.58.42,38.57,38.57,0,0,1-.37,4A26.35,26.35,0,0,1,44.91,44.8a22.93,22.93,0,0,1-2.11,2.48,3.13,3.13,0,0,0,.16.42,36,36,0,0,0,7.18.74A19,19,0,0,0,56,34.6a17.55,17.55,0,0,0-1.22-6.49Z"/>
      <path d="M50.25,24a2.23,2.23,0,0,1,.84.58,2.8,2.8,0,0,1,.43.63,20.23,20.23,0,0,1,2.37.8,20.31,20.31,0,0,0-4.33-5.6A19.21,19.21,0,0,1,50.25,24Z"/>
      <path d="M21.2,35.13a2.42,2.42,0,0,1,1.69-.32c.53-.58,1.05-1.1,1.58-1.63a33.86,33.86,0,0,1,5.81-4.65.19.19,0,0,1,.11-.05,2.67,2.67,0,0,1,.68-2.12,2.61,2.61,0,0,1,.59-.42,23.82,23.82,0,0,1,.74-9.88A19.26,19.26,0,0,0,18,31c1.05,1.48,2.16,2.85,3.22,4.12Z"/>
      <path d="M20.14,38a2.26,2.26,0,0,1,.05-1.75c-.84-1-1.69-2-2.48-3.06-.05.53-.05,1.06-.05,1.58a19.84,19.84,0,0,0,.84,5.55c.53-.79,1.11-1.58,1.64-2.32Z"/>
      <path d="M41,50.66a2.37,2.37,0,0,1-1.58-.26,36.13,36.13,0,0,1-4.86,3.32,17.3,17.3,0,0,0,2.38.16A18.86,18.86,0,0,0,42.43,53,25.76,25.76,0,0,1,41,50.66Z"/>
      <path d="M134.65,45.91V38a1.89,1.89,0,0,0-1.26-2.06,14.67,14.67,0,0,0-2.86-.15,2,2,0,0,0-1.63.68,2.26,2.26,0,0,0-.43,1.59v7.87h-3V38a2,2,0,0,0-1.11-2.12,14.93,14.93,0,0,0-2.79-.15c-1.59,0-2.38.74-2.38,2.21l0,7.93h-3.06V37.3q0-4.27,4.43-4.28h2.75a4.62,4.62,0,0,1,2.11.37,3.75,3.75,0,0,1,1.48,1.32A4.33,4.33,0,0,1,130.59,33h2.69a4.12,4.12,0,0,1,3.17,1.16,4.08,4.08,0,0,1,1.16,3.12v8.61Z"/>
      <path d="M153.19,42.26V39.73c0-.27-.21-.43-.68-.43H146.7c-1.43,0-2.17.53-2.17,1.64v1.27a1.11,1.11,0,0,0,.64,1.06,2.89,2.89,0,0,0,1.53.37h4.38c1.43,0,2.11-.43,2.11-1.38Zm3.07.43a2.89,2.89,0,0,1-1.16,2.37A5.11,5.11,0,0,1,152,46h-5.81a6.22,6.22,0,0,1-3.33-.79,2.72,2.72,0,0,1-1.37-2.38V40.47A2.84,2.84,0,0,1,142.68,38a5.5,5.5,0,0,1,3.28-.85h7.29a2.17,2.17,0,0,0-.43-1.53,2.47,2.47,0,0,0-1.9-.53h-9.35V32.91h9.78q4.91,0,4.91,3.33Z"/>
      <path d="M166.93,33.12v2.17h-3.86V46.12A3,3,0,0,1,160,42.9V28.53h3.06v4.54h3.86v0Z"/>
      <rect x="169.94" y="32.97" width="3.06" height="12.99"/>
      <polygon points="191.44 45.96 187.79 45.96 183.46 41.42 179.13 45.96 175.54 45.96 181.82 39.25 175.96 32.91 179.5 32.91 183.46 37.09 192.65 27.68 196.24 27.68 185.2 39.25 191.44 45.96"/>
      <rect x="169.94" y="27.68" width="3.06" height="3.38"/>
      <path d="M77.61,41.79a3.51,3.51,0,0,1-1.27,3,5.71,5.71,0,0,1-3.7,1.11H66.83a7.39,7.39,0,0,1-4.12-1,3.15,3.15,0,0,1-1.26-1.53,6.88,6.88,0,0,1-.16-1.79V33.07a5.09,5.09,0,0,1,.26-1.79A3.3,3.3,0,0,1,63,29.9a7.6,7.6,0,0,1,3.85-.79h9.62v2.43h-9a4.56,4.56,0,0,0-2.22.37,1.67,1.67,0,0,0-.74,1.53v8a1.85,1.85,0,0,0,.79,1.64,4.12,4.12,0,0,0,2.06.37h4.33c1.69,0,2.54-.64,2.54-1.9v-5h3.33v5.18Z"/>
      <path d="M92.5,37v-.16c0-1-.79-1.42-2.32-1.42H86.91c-1.8,0-2.7.52-2.7,1.63v2.49L92.5,37Zm3.07,1.22L84.26,41.52V42A1.51,1.51,0,0,0,85,43.37a4.69,4.69,0,0,0,1.8.27h8.72V45.8h-9.3a6.74,6.74,0,0,1-3.54-.74,2.94,2.94,0,0,1-1.43-2.69v-6c0-2.11,1.59-3.22,4.7-3.22h5.18c3,0,4.39,1.16,4.39,3.43Z"/>
      <path d="M109.67,42.16V37a1.3,1.3,0,0,0-.69-1.26,2.93,2.93,0,0,0-1.69-.37h-3.48a3.22,3.22,0,0,0-1.8.37,1.36,1.36,0,0,0-.74,1.26V42.1a1.37,1.37,0,0,0,.74,1.22,3.21,3.21,0,0,0,1.59.37h3.91a2.67,2.67,0,0,0,1.53-.37,1.27,1.27,0,0,0,.63-1.16Zm3,.58a2.78,2.78,0,0,1-1.43,2.48,5.9,5.9,0,0,1-3.06.63H103A5.93,5.93,0,0,1,99.48,45a2.63,2.63,0,0,1-1.17-2.27V36.45a2.74,2.74,0,0,1,1.48-2.53,6.49,6.49,0,0,1,3.23-.64h5.12a5.79,5.79,0,0,1,3.12.64,2.78,2.78,0,0,1,1.42,2.53l-.05,6.29Z"/>
    </g>
    <g>
      <path d="M62,49.72h.53v6.81H62Z"/>
      <path d="M66.84,51.59h.36l.17.58a3.53,3.53,0,0,1,1.89-.67,1.51,1.51,0,0,1,1.53,1.59v3.44h-.54V53.09a1,1,0,0,0-1-1.06,3.71,3.71,0,0,0-1.89.54v4h-.53Z"/>
      <path d="M75.08,51.59h.36l.17.58a3.56,3.56,0,0,1,1.89-.67A1.51,1.51,0,0,1,79,53.09v3.44H78.5V53.09a1,1,0,0,0-1-1.06,3.71,3.71,0,0,0-1.89.54v4h-.53Z"/>
      <path d="M85.26,51.54c1.64,0,2.13.7,2.13,2.59s-.5,2.45-2.13,2.45-2.13-.68-2.13-2.45C83.13,52.11,83.68,51.54,85.26,51.54Zm0,4.51c1.06,0,1.6-.21,1.6-1.92s-.5-2.06-1.6-2.06-1.6.15-1.6,2.06C83.66,55.89,84.22,56.05,85.26,56.05Z"/>
      <path d="M91.56,51.59l1.68,4.17,1.7-4.17h.57l-2,4.94H93l-2-4.94Z"/>
      <path d="M99.1,54.79a1.15,1.15,0,0,1,1.24-1.24s2.13,0,2.13,0,0-.61,0-.62a.81.81,0,0,0-.92-.92,20.46,20.46,0,0,0-2.29.15v-.38a8.8,8.8,0,0,1,2.32-.28A1.3,1.3,0,0,1,103,52.93v3.6h-.39l-.14-.59a6.14,6.14,0,0,1-2.13.65,1.17,1.17,0,0,1-1.24-1.23Zm1.24,1.27a8.17,8.17,0,0,0,2.13-.51V54l-2.13.13a.69.69,0,0,0-.71.75v.48A.66.66,0,0,0,100.34,56.06Z"/>
      <path d="M106.88,51.72l.87-.14.14-1.38h.4v1.38h1.5v.53h-1.5v2.66c0,1,.34,1.17.64,1.23,0,0,.71.16.78.16v.37H109c-.74,0-1.21-.47-1.21-1.76V52.11h-.87Z"/>
      <path d="M113.78,50.25a.18.18,0,0,1,.19-.2h.34a.18.18,0,0,1,.18.2v.52a.17.17,0,0,1-.18.19H114a.18.18,0,0,1-.19-.19Zm.08,1.34h.53v4.94h-.53Z"/>
      <path d="M118.94,51.59l1.68,4.17,1.7-4.17h.57l-2,4.94h-.54l-2-4.94Z"/>
      <path d="M128.66,51.55c1.15,0,1.89.11,1.89,1.75,0,.73-.41,1.05-1.28,1.05h-2.15c0,1.42.34,1.7,1.1,1.7a15.31,15.31,0,0,0,2.23-.12v.39a8,8,0,0,1-2.23.26c-1.27,0-1.63-.64-1.63-2.54C126.59,51.84,127.18,51.55,128.66,51.55Zm.61,2.28c.45,0,.75-.1.75-.53,0-1.12-.32-1.22-1.35-1.22s-1.55.1-1.55,1.75Z"/>
      <path d="M140.37,51.32c0-1.35.79-1.66,1.83-1.66.49,0,1.85.15,2.24.21v.41c-.59,0-2.24-.09-2.24-.09-.76,0-1.3.13-1.3,1.13v.61c0,.89.43,1,1.09,1h1.24c1.24,0,1.47.76,1.47,1.53v.63c0,1.32-.94,1.53-1.86,1.53a21.22,21.22,0,0,1-2.28-.21V56c.39,0,1.42.08,2.28.08.54,0,1.33-.08,1.33-1v-.63c0-.63-.23-1-.94-1H142c-1.47,0-1.64-.76-1.64-1.53Z"/>
      <path d="M148.81,51.59l1.26,3.86c.23.68.72.53.72.53l1.48-4.39h.59l-2.18,6.5-.6.95h-.32l.85-2.51c-.2,0-.81,0-1.11-1l-1.28-3.92Z"/>
      <path d="M156.57,52.75c0-.76.32-1.21,1.28-1.21.49,0,1.85.09,2.34.13v.39h-2.34c-.66,0-.75.25-.75.69v.43c0,.61.29.63.75.63h1.38A1.09,1.09,0,0,1,160.44,55v.45c0,1-.61,1.17-1.21,1.17s-2.1-.11-2.46-.15v-.38h2.46a.58.58,0,0,0,.68-.64V55c0-.36-.19-.63-.68-.63h-1.38c-.87,0-1.28-.19-1.28-1.15Z"/>
      <path d="M164,51.72l.87-.14L165,50.2h.39v1.38h1.51v.53h-1.51v2.66c0,1,.35,1.17.64,1.23,0,0,.72.16.79.16v.37h-.76c-.73,0-1.2-.47-1.2-1.76V52.11H164Z"/>
      <path d="M173,51.55c1.15,0,1.88.11,1.88,1.75,0,.73-.4,1.05-1.27,1.05h-2.15c0,1.42.34,1.7,1.1,1.7a15.39,15.39,0,0,0,2.23-.12v.39a8,8,0,0,1-2.23.26c-1.27,0-1.63-.64-1.63-2.54C170.93,51.84,171.52,51.55,173,51.55Zm.61,2.28c.45,0,.74-.1.74-.53,0-1.12-.31-1.22-1.35-1.22s-1.54.1-1.54,1.75Z"/>
      <path d="M179.08,51.59h.36l.17.58a3.49,3.49,0,0,1,1.84-.65,1.48,1.48,0,0,1,1.36.74,3.53,3.53,0,0,1,2.06-.74,1.5,1.5,0,0,1,1.52,1.59v3.42h-.53V53.11a1,1,0,0,0-1-1.06,3.36,3.36,0,0,0-1.93.57,2.52,2.52,0,0,1,.05.48v3.43h-.53V53.11a1,1,0,0,0-1-1.06,3.59,3.59,0,0,0-1.84.54v3.94h-.53Z"/>
      <path d="M190.4,52.75c0-.76.32-1.21,1.28-1.21.49,0,1.85.09,2.34.13v.39h-2.34c-.66,0-.75.25-.75.69v.43c0,.61.29.63.75.63h1.38A1.09,1.09,0,0,1,194.27,55v.45c0,1-.62,1.17-1.21,1.17s-2.1-.11-2.46-.15v-.38h2.46a.58.58,0,0,0,.68-.64V55c0-.36-.19-.63-.68-.63h-1.38c-.87,0-1.28-.19-1.28-1.15Z"/>
    </g>
  </g>
</svg>
