<svg id="Layer_1" data-name="Layer 1" xmlns="http://www.w3.org/2000/svg" viewBox="0 0 377.27 330.68"><defs><style>.cls-1{fill:#da1c23;}</style></defs><g id="layer1"><g id="g290"><path id="path292" class="cls-1" d="M66.07,154.42a10.06,10.06,0,0,0-.82.63l-.08.07-.17.12a1.09,1.09,0,0,1-.17.13l-.19.13-.18.12-.2.12-.2.11-.21.12-.21.1-.22.11-.23.1-.23.09-.23.09-.22.08-.23.07-.22.06-.22.06-.22.05-.22.05-.21,0a16.71,16.71,0,0,1-2.69.24h-.68a16.27,16.27,0,0,1-11.2-4.41A14.65,14.65,0,0,1,42,142V125.27a14.65,14.65,0,0,1,4.66-10.65,16.26,16.26,0,0,1,11.2-4.4h.88a19.42,19.42,0,0,1,2.37.17l.21,0,.22,0,.23,0,.22.06.23.06.23.06.23.08.24.08.22.09.23.09.22.09.21.11.21.1.21.11.19.11.06,0,.08,0,.09,0,.08.06.08,0,.08.06.08.06.08,0,.07.06.08,0,.07.06.07.06.07.06.07,0,.06.06.07.06.06.06.07.06.12.1.11.06a.58.58,0,0,0,.16.05l.17,0,.17,0,.15-.05.14-.08.13-.1.1-.12a.61.61,0,0,0,.07-.14.88.88,0,0,0,0-.15,1.11,1.11,0,0,0,0-.17c0-.55,0-1.3.61-1.49a4.32,4.32,0,0,1,1.19,0h5.66c.58,0,1.45-.15,1.69.56a8.8,8.8,0,0,1,.06,2.18v35.77a87.12,87.12,0,0,1-.22,9.56c-1,8.82-5.41,16.31-14.74,18-5.65,1-11.28-1-15.64-4.62-.53-.44-1.64-1.18-1.6-1.94a1.23,1.23,0,0,1,.33-.71S48,165.35,48.29,165s.62-.7,1-.7c.57,0,1.16.54,2.19,1.14a16.16,16.16,0,0,0,5.66,2.29,8.77,8.77,0,0,0,3.87-.38c4.73-1.53,6-7.51,6.31-12.19V155s0-.06,0-.08l0-.08,0-.08,0-.07a.43.43,0,0,1,0-.07l0-.06-.06-.06,0-.05-.07-.05-.06,0-.07,0-.08,0-.08,0h-.33l-.08,0-.07,0-.14.07m1-12.25V125.33a5.94,5.94,0,0,0-2.44-4.89,7.63,7.63,0,0,0-5.21-1.91h-.86a7.35,7.35,0,0,0-5.33,2.25,6.67,6.67,0,0,0-2.41,5.09v15.57a6.67,6.67,0,0,0,2.41,5.09,7.4,7.4,0,0,0,5.33,2.26h.86a7.7,7.7,0,0,0,5.21-1.93,5.74,5.74,0,0,0,2.44-4.69"/></g><g id="g294"><path id="path296" class="cls-1" d="M140.18,156v-6.16a1,1,0,0,0-.29-.79,1.08,1.08,0,0,0-.74-.24h-17a1.36,1.36,0,0,1-.87-.22.72.72,0,0,1-.27-.58,1.39,1.39,0,0,1,.22-.74l18.58-35.07a3,3,0,0,0,.14-.36,1.75,1.75,0,0,0,.07-.36c0-.53-.4-.8-1.14-.82H108.49a.88.88,0,0,0-1,1v6.16c0,.7.32,1,1,1h15.89a1.46,1.46,0,0,1,.85.21.75.75,0,0,1,.29.61,1.75,1.75,0,0,1-.07.36,2.08,2.08,0,0,1-.14.36L106.53,155.5a3,3,0,0,0-.14.36,1.23,1.23,0,0,0-.06.36c0,.53.39.8,1.13.82h31.69a1.07,1.07,0,0,0,.79-.24,1.1,1.1,0,0,0,.24-.78"/></g><g id="g298"><path id="path300" class="cls-1" d="M87.53,104.72a1.26,1.26,0,0,0,.3.78,1.31,1.31,0,0,0,.93.31h6.41a1.31,1.31,0,0,0,.93-.31,1,1,0,0,0,.3-.77V97.42a1.34,1.34,0,0,0-.31-.94,1.32,1.32,0,0,0-.93-.32h-.51a1.35,1.35,0,0,0-1.1.47l-5.38,6-.25.31a1.36,1.36,0,0,0-.4,1v.64s0,.17,0,.17"/></g><g id="g302"><path id="path304" class="cls-1" d="M96.36,111.74a1.2,1.2,0,0,0-.25-.82,1.13,1.13,0,0,0-.85-.28H88.58a1.08,1.08,0,0,0-.84.32,1.15,1.15,0,0,0-.26.78v44.2a1.18,1.18,0,0,0,.26.83,1.13,1.13,0,0,0,.84.27h6.68a1,1,0,0,0,.84-.32,1.13,1.13,0,0,0,.26-.78Z"/></g><g id="g306"><path id="path308" class="cls-1" d="M351.76,146.56a.54.54,0,0,0-.19-.46.66.66,0,0,0-.43-.16.63.63,0,0,0-.42.16.54.54,0,0,0-.19.46v4.29h-3.85v-4.29a.54.54,0,0,0-.2-.46.63.63,0,0,0-.42-.16.66.66,0,0,0-.43.16.54.54,0,0,0-.19.46v10.19a.54.54,0,0,0,.19.46.69.69,0,0,0,.43.14.66.66,0,0,0,.42-.14.54.54,0,0,0,.2-.46v-4.67h3.85v4.67a.54.54,0,0,0,.19.47.72.72,0,0,0,.42.13.75.75,0,0,0,.43-.13.54.54,0,0,0,.19-.47Zm-10.6,8.18a1.32,1.32,0,0,1-.41,1,1.35,1.35,0,0,1-1,.41h-.15a1.47,1.47,0,0,1-1-.34,1.14,1.14,0,0,1-.41-.94v-3a1.08,1.08,0,0,1,.41-.9,1.47,1.47,0,0,1,1-.34h.15a1.38,1.38,0,0,1,1.4,1.37Zm1.23-2.78a2.6,2.6,0,0,0-2.63-2.62h-.12a2.23,2.23,0,0,0-.81.14,1.31,1.31,0,0,0-.6.39v-3.31a.57.57,0,0,0-.19-.46.68.68,0,0,0-.43-.16.63.63,0,0,0-.42.16.54.54,0,0,0-.2.46v10.23a.51.51,0,0,0,.2.43.72.72,0,0,0,.42.13.77.77,0,0,0,.39-.11.48.48,0,0,0,.21-.36,1.72,1.72,0,0,0,.53.32,2.22,2.22,0,0,0,.87.15h.15a2.5,2.5,0,0,0,1-.2,2.84,2.84,0,0,0,.84-.55,2.63,2.63,0,0,0,.57-.82,2.53,2.53,0,0,0,.21-1Zm-8.4,0a3.16,3.16,0,0,0-.21-1.16,2.23,2.23,0,0,0-1.42-1.29,3.21,3.21,0,0,0-1-.15h-.14a2.68,2.68,0,0,0-1.14.25,2.9,2.9,0,0,0-.88.67,2.94,2.94,0,0,0-.89-.67,2.64,2.64,0,0,0-1.13-.25h-.14a2.32,2.32,0,0,0-.8.13,1.6,1.6,0,0,0-.6.36.57.57,0,0,0-.23-.37.65.65,0,0,0-.37-.12.7.7,0,0,0-.44.16.57.57,0,0,0-.2.46v6.79a.54.54,0,0,0,.2.46.7.7,0,0,0,.84,0,.54.54,0,0,0,.2-.46v-4.92a1.1,1.1,0,0,1,.42-.91,1.5,1.5,0,0,1,1-.34h.14a1.39,1.39,0,0,1,1,.38,1.36,1.36,0,0,1,.41,1v4.75a.57.57,0,0,0,.2.48.66.66,0,0,0,.42.15.68.68,0,0,0,.42-.15.57.57,0,0,0,.19-.48V152a1.36,1.36,0,0,1,.41-1,1.4,1.4,0,0,1,1-.39h.14a1.44,1.44,0,0,1,1,.34,1.27,1.27,0,0,1,.38,1v4.81a.54.54,0,0,0,.2.46.7.7,0,0,0,.84,0,.54.54,0,0,0,.2-.46Zm-12.56-.18a.57.57,0,0,0-.18-.43.59.59,0,0,0-.43-.19h-2.33a.57.57,0,0,0-.46.2.68.68,0,0,0-.15.42.72.72,0,0,0,.15.43.59.59,0,0,0,.46.19h1.71v1.89a1.89,1.89,0,0,1-.14.72,2,2,0,0,1-.4.59,2,2,0,0,1-.59.39,1.72,1.72,0,0,1-.72.15h-.17a1.75,1.75,0,0,1-.72-.15,1.91,1.91,0,0,1-.58-.39,2,2,0,0,1-.4-.59,1.72,1.72,0,0,1-.15-.72V149a1.66,1.66,0,0,1,.15-.7,1.87,1.87,0,0,1,.4-.59,1.76,1.76,0,0,1,1.3-.54h.17a1.74,1.74,0,0,1,1.26.45,2.06,2.06,0,0,1,.59,1.14.58.58,0,0,0,.23.4.69.69,0,0,0,.39.12.68.68,0,0,0,.42-.15.54.54,0,0,0,.19-.45v-.1a3,3,0,0,0-.34-1.06,2.91,2.91,0,0,0-.69-.83,3.4,3.4,0,0,0-.94-.56,3.17,3.17,0,0,0-1.11-.2h-.17a2.9,2.9,0,0,0-1.2.25,3.16,3.16,0,0,0-1,.65,3.06,3.06,0,0,0-.9,2.19v5.25a3.06,3.06,0,0,0,.9,2.19,3.16,3.16,0,0,0,1,.65,3.05,3.05,0,0,0,1.2.23h.17a3.05,3.05,0,0,0,1.2-.23,3.21,3.21,0,0,0,1-.65,3.16,3.16,0,0,0,.65-1,2.88,2.88,0,0,0,.24-1.21Zm-12.86-1.91a12.09,12.09,0,0,0-.51-1.93,9.22,9.22,0,0,0-.78-1.64,5.73,5.73,0,0,0-1-1.25.59.59,0,0,0-.43-.19.69.69,0,0,0-.41.18.53.53,0,0,0,0,.81,5,5,0,0,1,.8,1,8.25,8.25,0,0,1,.68,1.43,11.77,11.77,0,0,1,.46,1.73,10.22,10.22,0,0,1,.17,1.94,10.6,10.6,0,0,1-.18,2,11,11,0,0,1-.48,1.74,8.15,8.15,0,0,1-.69,1.42,5.6,5.6,0,0,1-.81,1,.54.54,0,0,0-.18.39.59.59,0,0,0,.2.42.63.63,0,0,0,.43.2.57.57,0,0,0,.41-.2,6.3,6.3,0,0,0,1-1.23,8.9,8.9,0,0,0,.78-1.64,12,12,0,0,0,.53-2,11.83,11.83,0,0,0,.2-2.17,12.38,12.38,0,0,0-.19-2.12m-5.6,6.38a.55.55,0,0,0-.46-.19h-4.1l4.62-8.86a1,1,0,0,0,.11-.43.69.69,0,0,0-.21-.5.73.73,0,0,0-.54-.21h-4.65a.56.56,0,0,0-.47.19.76.76,0,0,0-.14.43.73.73,0,0,0,.14.42.56.56,0,0,0,.47.2h3.86L297,156.1a.76.76,0,0,0-.1.39.84.84,0,0,0,.19.55.64.64,0,0,0,.52.23h4.9a.55.55,0,0,0,.46-.19.64.64,0,0,0,0-.85m-9-9.67a.54.54,0,0,0-.19-.46.64.64,0,0,0-.43-.16.63.63,0,0,0-.42.16.54.54,0,0,0-.19.46v10.19a.54.54,0,0,0,.19.46.66.66,0,0,0,.42.14.67.67,0,0,0,.43-.14.54.54,0,0,0,.19-.46Zm-4.5,5.2a.59.59,0,0,0-.19-.43.56.56,0,0,0-.43-.19H286.5a.54.54,0,0,0-.46.2.63.63,0,0,0-.16.42.68.68,0,0,0,.16.43.57.57,0,0,0,.46.19h1.7v1.89a1.71,1.71,0,0,1-.14.72,1.87,1.87,0,0,1-.4.59,1.91,1.91,0,0,1-.58.39,1.8,1.8,0,0,1-.73.15h-.16a1.72,1.72,0,0,1-.72-.15,2,2,0,0,1-.59-.39,2,2,0,0,1-.4-.59,1.71,1.71,0,0,1-.14-.72V149a1.65,1.65,0,0,1,.14-.7,1.87,1.87,0,0,1,.4-.59,2,2,0,0,1,.59-.4,1.89,1.89,0,0,1,.72-.14h.16a1.72,1.72,0,0,1,1.26.45,2.06,2.06,0,0,1,.59,1.14.61.61,0,0,0,.23.4.69.69,0,0,0,.39.12.7.7,0,0,0,.43-.15.54.54,0,0,0,.19-.45v-.1a3,3,0,0,0-.35-1.06,2.88,2.88,0,0,0-.68-.83,3.55,3.55,0,0,0-.94-.56,3.26,3.26,0,0,0-1.12-.2h-.16a2.9,2.9,0,0,0-1.2.25,3,3,0,0,0-1.64,1.63,2.88,2.88,0,0,0-.25,1.21v5.25a2.88,2.88,0,0,0,.25,1.21,3,3,0,0,0,2.84,1.86h.16a3.1,3.1,0,0,0,1.21-.23,3.16,3.16,0,0,0,1-.65,3.06,3.06,0,0,0,.9-2.19Zm-9.25,5.36a8.15,8.15,0,0,1-.69-1.42A11,11,0,0,1,279,154a10.6,10.6,0,0,1-.18-2A10.22,10.22,0,0,1,279,150a11.76,11.76,0,0,1,.47-1.73,8.25,8.25,0,0,1,.68-1.43,5.31,5.31,0,0,1,.78-1,.54.54,0,0,0,.18-.39.57.57,0,0,0-.19-.42.72.72,0,0,0-.42-.18.55.55,0,0,0-.42.19,7.18,7.18,0,0,0-1,1.26,9.43,9.43,0,0,0-.77,1.63,12.25,12.25,0,0,0-.52,1.92,11.4,11.4,0,0,0-.19,2.13,11.84,11.84,0,0,0,.19,2.17,12,12,0,0,0,.53,2,8.31,8.31,0,0,0,.79,1.64,6.28,6.28,0,0,0,1,1.23.59.59,0,0,0,.41.2.62.62,0,0,0,.44-.2.49.49,0,0,0,.21-.4.6.6,0,0,0-.19-.41,5.23,5.23,0,0,1-.82-1m-9.18-.79a.57.57,0,0,0-.43-.21,1.11,1.11,0,0,1-.65-.27.81.81,0,0,1-.29-.66v-4.57h.88a.55.55,0,0,0,.46-.19.64.64,0,0,0,0-.85.55.55,0,0,0-.46-.19h-.88v-2.83a.57.57,0,0,0-.19-.46.66.66,0,0,0-.43-.16.63.63,0,0,0-.42.16.54.54,0,0,0-.19.46v2.83h-.57a.57.57,0,0,0-.47.19.68.68,0,0,0,0,.85.57.57,0,0,0,.47.19h.57v4.6a2.08,2.08,0,0,0,.16.83,2,2,0,0,0,1.14,1.14,2,2,0,0,0,.82.16.57.57,0,0,0,.48-.19.68.68,0,0,0,.14-.42.62.62,0,0,0-.14-.41M264.59,150a.58.58,0,0,0-.2-.47.68.68,0,0,0-.42-.15.72.72,0,0,0-.43.15.6.6,0,0,0-.19.47v6.79a.57.57,0,0,0,.19.46.71.71,0,0,0,.43.14.66.66,0,0,0,.42-.14.54.54,0,0,0,.2-.46Zm0-3.4a.54.54,0,0,0-.2-.46.63.63,0,0,0-.42-.16.68.68,0,0,0-.43.16.57.57,0,0,0-.19.46v.36a.58.58,0,0,0,.19.46.66.66,0,0,0,.43.15.62.62,0,0,0,.42-.15.56.56,0,0,0,.2-.46Zm-5.24,6.22h-2.93V152a1.31,1.31,0,0,1,.42-1,1.34,1.34,0,0,1,1-.4H258a1.4,1.4,0,0,1,1.37,1.4Zm1.23-.81a2.8,2.8,0,0,0-.2-1.05,2.64,2.64,0,0,0-.56-.83,2.53,2.53,0,0,0-.84-.56,2.87,2.87,0,0,0-1-.19h-.17a2.6,2.6,0,0,0-2.61,2.62v2.79a2.7,2.7,0,0,0,.2,1,2.6,2.6,0,0,0,.56.82,2.84,2.84,0,0,0,.84.55,2.5,2.5,0,0,0,1,.2H258a2.54,2.54,0,0,0,2.37-1.54.61.61,0,0,0,.07-.28.59.59,0,0,0-.2-.45.64.64,0,0,0-.44-.18.59.59,0,0,0-.31.09.6.6,0,0,0-.23.3,1.59,1.59,0,0,1-.48.59,1.25,1.25,0,0,1-.78.24h-.17a1.4,1.4,0,0,1-1.38-1.37v-.83H260a.6.6,0,0,0,.61-.61Zm-9.3,2.77a1.31,1.31,0,0,1-.4,1,1.39,1.39,0,0,1-1,.41h-.14a1.47,1.47,0,0,1-1-.34,1.14,1.14,0,0,1-.41-.94v-3a1.08,1.08,0,0,1,.41-.9,1.47,1.47,0,0,1,1-.34h.14a1.38,1.38,0,0,1,1,.4,1.33,1.33,0,0,1,.4,1Zm1.24-2.78a2.57,2.57,0,0,0-.77-1.86,2.64,2.64,0,0,0-.83-.56,2.75,2.75,0,0,0-1-.2h-.11a2.23,2.23,0,0,0-.81.14,1.31,1.31,0,0,0-.6.39v-3.31a.54.54,0,0,0-.2-.46.63.63,0,0,0-.84,0,.54.54,0,0,0-.2.46v10.23a.51.51,0,0,0,.2.43.72.72,0,0,0,.42.13.77.77,0,0,0,.39-.11.48.48,0,0,0,.21-.36,1.61,1.61,0,0,0,.53.32,2.19,2.19,0,0,0,.87.15h.14a2.51,2.51,0,0,0,1-.2,2.84,2.84,0,0,0,.84-.55,2.8,2.8,0,0,0,.57-.82,2.53,2.53,0,0,0,.21-1Zm-8.05-1.82a1.54,1.54,0,0,0-.75-.61,2.39,2.39,0,0,0-.94-.19,2,2,0,0,0-.53,0,2.22,2.22,0,0,0-.36.11,1,1,0,0,0-.28.16.54.54,0,0,0-.22-.25.87.87,0,0,0-.31-.07.77.77,0,0,0-.44.16.57.57,0,0,0-.2.46v6.76a.57.57,0,0,0,.2.48.66.66,0,0,0,.84,0,.57.57,0,0,0,.2-.48v-5.05a2.6,2.6,0,0,1,0-.4.89.89,0,0,1,.14-.35,1,1,0,0,1,.33-.25,1.55,1.55,0,0,1,.59-.09.85.85,0,0,1,.48.12,1.56,1.56,0,0,1,.26.22.71.71,0,0,0,.51.22.6.6,0,0,0,.42-.16.54.54,0,0,0,.18-.42.77.77,0,0,0-.15-.42m-8.66,4.6a1.29,1.29,0,0,1-.42,1,1.38,1.38,0,0,1-1,.4h-.15a1.59,1.59,0,0,1-1-.31,1,1,0,0,1-.38-.83v-.13a.78.78,0,0,1,.28-.65,2.37,2.37,0,0,1,.73-.36,7.92,7.92,0,0,1,1-.2,9.25,9.25,0,0,0,1-.19Zm2.05,1.63a.58.58,0,0,0-.4-.22.48.48,0,0,1-.42-.54v-3.77a2.46,2.46,0,0,0-.73-1.77,2.5,2.5,0,0,0-.81-.54,2.83,2.83,0,0,0-1-.19h-.12a3.9,3.9,0,0,0-.66.07,2.48,2.48,0,0,0-.67.25,2.18,2.18,0,0,0-.61.46,2.44,2.44,0,0,0-.48.73.62.62,0,0,0-.06.29.5.5,0,0,0,.19.42.7.7,0,0,0,.74.08.64.64,0,0,0,.24-.25,1.78,1.78,0,0,1,.52-.61,1.34,1.34,0,0,1,.79-.2h.12a1.49,1.49,0,0,1,.93.29,1.21,1.21,0,0,1,.39,1s0,.09,0,.15a.4.4,0,0,1,0,.13.86.86,0,0,1-.45.2l-.8.16a9.25,9.25,0,0,0-1,.21,3.19,3.19,0,0,0-.93.38,2.13,2.13,0,0,0-.7.67,1.85,1.85,0,0,0-.28,1v.2a2.21,2.21,0,0,0,.23,1,2.34,2.34,0,0,0,.59.73,2.81,2.81,0,0,0,.84.44,3.19,3.19,0,0,0,1,.14h.15a2.6,2.6,0,0,0,1.75-.63,1.48,1.48,0,0,0,.43.39,1.87,1.87,0,0,0,.68.23h.11a.55.55,0,0,0,.45-.18.69.69,0,0,0,.16-.43.66.66,0,0,0-.13-.37M229.1,152a2.76,2.76,0,0,0-.21-1.16,2.25,2.25,0,0,0-.56-.83,2.38,2.38,0,0,0-.83-.48,3.3,3.3,0,0,0-1-.15h-.15a2.36,2.36,0,0,0-.8.13,1.6,1.6,0,0,0-.6.36.53.53,0,0,0-.23-.37.69.69,0,0,0-.39-.12.72.72,0,0,0-.44.16.56.56,0,0,0-.19.46v6.79a.54.54,0,0,0,.19.46.69.69,0,0,0,.43.14.66.66,0,0,0,.42-.14.54.54,0,0,0,.19-.46V152a1.32,1.32,0,0,1,.42-1,1.37,1.37,0,0,1,1-.39h.14a1.34,1.34,0,0,1,1,.4,1.38,1.38,0,0,1,.4,1v4.79a.54.54,0,0,0,.2.46.67.67,0,0,0,.43.14.66.66,0,0,0,.42-.14.56.56,0,0,0,.18-.46Zm-9.3.82h-2.93V152a1.34,1.34,0,0,1,.41-1,1.37,1.37,0,0,1,1-.4h.16a1.4,1.4,0,0,1,1.37,1.4ZM221,152a2.57,2.57,0,0,0-.76-1.88,2.53,2.53,0,0,0-.84-.56,2.89,2.89,0,0,0-1-.19h-.16a2.64,2.64,0,0,0-1,.2,2.69,2.69,0,0,0-.84.56,2.61,2.61,0,0,0-.76,1.86v2.79a2.52,2.52,0,0,0,.2,1,2.44,2.44,0,0,0,.56.82,2.84,2.84,0,0,0,.84.55,2.46,2.46,0,0,0,1,.2h.16a2.54,2.54,0,0,0,2.38-1.54.61.61,0,0,0,.06-.28.58.58,0,0,0-.19-.45.64.64,0,0,0-.44-.18.59.59,0,0,0-.31.09.6.6,0,0,0-.23.3,1.59,1.59,0,0,1-.48.59,1.26,1.26,0,0,1-.79.24h-.16a1.4,1.4,0,0,1-1.38-1.37v-.83h3.54a.59.59,0,0,0,.44-.18.61.61,0,0,0,.18-.43Zm-8.12,0a3,3,0,0,0-.21-1.16,2.32,2.32,0,0,0-.57-.82,2.67,2.67,0,0,0-.84-.47,3.3,3.3,0,0,0-1-.15h-.15a2.64,2.64,0,0,0-1.13.25,2.94,2.94,0,0,0-.89.67,2.78,2.78,0,0,0-.88-.67,2.64,2.64,0,0,0-1.13-.25H206a2.3,2.3,0,0,0-.79.13,1.6,1.6,0,0,0-.6.36.57.57,0,0,0-.23-.37.68.68,0,0,0-.38-.12.74.74,0,0,0-.44.16.56.56,0,0,0-.19.46v6.79a.54.54,0,0,0,.19.46.69.69,0,0,0,.43.14.66.66,0,0,0,.42-.14.54.54,0,0,0,.2-.46v-4.92a1.08,1.08,0,0,1,.42-.91,1.49,1.49,0,0,1,1-.34h.15a1.41,1.41,0,0,1,1,.38,1.36,1.36,0,0,1,.41,1v4.75a.57.57,0,0,0,.19.48.68.68,0,0,0,.85,0,.57.57,0,0,0,.19-.48V152a1.36,1.36,0,0,1,.41-1,1.37,1.37,0,0,1,1-.39h.15a1.4,1.4,0,0,1,1,.34,1.28,1.28,0,0,1,.39,1v4.81a.52.52,0,0,0,.2.46.62.62,0,0,0,.41.14.67.67,0,0,0,.43-.14.54.54,0,0,0,.19-.46Zm-12.44,0a2.79,2.79,0,0,0-.22-1.16,2.32,2.32,0,0,0-.57-.82,2.57,2.57,0,0,0-.84-.47,3.21,3.21,0,0,0-1-.15h-.15a2.67,2.67,0,0,0-1.13.25,2.78,2.78,0,0,0-.88.67,2.94,2.94,0,0,0-.89-.67,2.64,2.64,0,0,0-1.13-.25h-.14a2.32,2.32,0,0,0-.8.13,1.6,1.6,0,0,0-.6.36.53.53,0,0,0-.23-.37.65.65,0,0,0-.37-.12.7.7,0,0,0-.44.16.57.57,0,0,0-.2.46v6.79a.54.54,0,0,0,.2.46.7.7,0,0,0,.84,0,.54.54,0,0,0,.2-.46v-4.92a1.1,1.1,0,0,1,.42-.91,1.5,1.5,0,0,1,1-.34h.14a1.41,1.41,0,0,1,1,.38,1.36,1.36,0,0,1,.41,1v4.75a.57.57,0,0,0,.19.48.68.68,0,0,0,.85,0,.57.57,0,0,0,.2-.48V152a1.35,1.35,0,0,1,.4-1,1.37,1.37,0,0,1,1-.39h.15a1.44,1.44,0,0,1,1,.34,1.31,1.31,0,0,1,.38,1v4.81a.52.52,0,0,0,.2.46.65.65,0,0,0,.42.14.66.66,0,0,0,.42-.14.54.54,0,0,0,.2-.46Zm-14.26,2.8a1.31,1.31,0,0,1-.41,1,1.42,1.42,0,0,1-1,.4h-.14a1.57,1.57,0,0,1-1-.31,1,1,0,0,1-.38-.83v-.13a.78.78,0,0,1,.28-.65,2.21,2.21,0,0,1,.72-.36,8.36,8.36,0,0,1,1-.2,8.34,8.34,0,0,0,1-.19Zm2.06,1.63a.63.63,0,0,0-.4-.22.48.48,0,0,1-.42-.54v-3.77a2.44,2.44,0,0,0-.2-1,2.6,2.6,0,0,0-.53-.8,2.44,2.44,0,0,0-.82-.54,2.78,2.78,0,0,0-1-.19h-.12a3.91,3.91,0,0,0-.67.07,2.42,2.42,0,0,0-.66.25,2.18,2.18,0,0,0-.61.46,2.44,2.44,0,0,0-.48.73.62.62,0,0,0-.07.29.5.5,0,0,0,.2.42.69.69,0,0,0,.73.08.6.6,0,0,0,.25-.25,1.68,1.68,0,0,1,.52-.61,1.3,1.3,0,0,1,.79-.2h.12a1.46,1.46,0,0,1,.92.29,1.18,1.18,0,0,1,.39,1,.86.86,0,0,1,0,.15.25.25,0,0,1,0,.13.78.78,0,0,1-.44.2l-.81.16q-.45.08-1,.21a3.44,3.44,0,0,0-.93.38,2.1,2.1,0,0,0-.69.67,1.77,1.77,0,0,0-.28,1v.2a2.09,2.09,0,0,0,.23,1,2.34,2.34,0,0,0,.59.73,2.59,2.59,0,0,0,.84.44,3.1,3.1,0,0,0,1,.14h.14a2.6,2.6,0,0,0,1.76-.63,1.57,1.57,0,0,0,.42.39,1.93,1.93,0,0,0,.69.23h.11a.54.54,0,0,0,.44-.18.64.64,0,0,0,.16-.43.65.65,0,0,0-.12-.37M179.69,155a2,2,0,0,0-1.1-2,3.77,3.77,0,0,0-1-.38l-1-.24a2.55,2.55,0,0,1-.78-.33.68.68,0,0,1-.32-.62v-.05a.81.81,0,0,1,.38-.62,1.78,1.78,0,0,1,1-.25h.06a2,2,0,0,1,.86.15l.57.28a.76.76,0,0,0,.36.1.54.54,0,0,0,.42-.18.58.58,0,0,0,.17-.4.59.59,0,0,0-.23-.48,2.22,2.22,0,0,0-.29-.21,2.35,2.35,0,0,0-.45-.23,5.78,5.78,0,0,0-.62-.19,3.64,3.64,0,0,0-.77-.08h-.07a4.54,4.54,0,0,0-.85.1,3.11,3.11,0,0,0-.86.35,2.44,2.44,0,0,0-.68.64,1.71,1.71,0,0,0-.27,1,1.91,1.91,0,0,0,.31,1.18,2.18,2.18,0,0,0,.78.64,4.07,4.07,0,0,0,1,.33c.37.08.71.16,1,.26a2.29,2.29,0,0,1,.78.39.93.93,0,0,1,.31.77V155a1.06,1.06,0,0,1-.41.75,1.77,1.77,0,0,1-1.15.34h-.08a1.77,1.77,0,0,1-.93-.31,3.1,3.1,0,0,1-.77-.71.64.64,0,0,0-.27-.23.93.93,0,0,0-.29-.05.66.66,0,0,0-.44.16.53.53,0,0,0-.19.44,1.19,1.19,0,0,0,.08.31,3,3,0,0,0,.5.68,3.66,3.66,0,0,0,.68.51,4.84,4.84,0,0,0,.79.32,3.35,3.35,0,0,0,.81.11h.1a3.45,3.45,0,0,0,1-.14,3.05,3.05,0,0,0,.91-.43,2.2,2.2,0,0,0,.65-.71,1.87,1.87,0,0,0,.25-1ZM171.36,150a.57.57,0,0,0-.19-.47.68.68,0,0,0-.85,0,.57.57,0,0,0-.19.47v4.78a1.32,1.32,0,0,1-.41,1,1.35,1.35,0,0,1-1,.41h-.15a1.4,1.4,0,0,1-1.38-1.38V150a.55.55,0,0,0-.2-.47.66.66,0,0,0-.42-.15.68.68,0,0,0-.42.15.57.57,0,0,0-.19.47v4.79a2.75,2.75,0,0,0,.21,1.17,2.19,2.19,0,0,0,.57.81,2.27,2.27,0,0,0,.83.47,3.37,3.37,0,0,0,1,.15h.15a2.52,2.52,0,0,0,.79-.12,1.51,1.51,0,0,0,.61-.35.56.56,0,0,0,.22.36.77.77,0,0,0,.4.11.68.68,0,0,0,.42-.15.53.53,0,0,0,.19-.45Zm-8,6.27a.56.56,0,0,0-.47-.19h-4.09l4.61-8.86a.85.85,0,0,0,.12-.43.69.69,0,0,0-.21-.5.73.73,0,0,0-.54-.21h-4.65a.54.54,0,0,0-.47.19.7.7,0,0,0-.15.43.68.68,0,0,0,.15.42.55.55,0,0,0,.47.2H162l-4.6,8.82a.86.86,0,0,0-.09.39.89.89,0,0,0,.18.55.66.66,0,0,0,.53.23h4.89a.56.56,0,0,0,.47-.19.68.68,0,0,0,0-.85"/></g><g id="g310"><path id="path312" class="cls-1" d="M277.13,135H274.2v-.82a1.31,1.31,0,0,1,.42-1,1.35,1.35,0,0,1,1-.4h.16a1.34,1.34,0,0,1,1,.4,1.36,1.36,0,0,1,.41,1Zm1.23-.81a2.59,2.59,0,0,0-.2-1.05,2.69,2.69,0,0,0-.56-.84,2.56,2.56,0,0,0-.83-.55,2.73,2.73,0,0,0-1-.2h-.16a2.57,2.57,0,0,0-1.86.77,2.48,2.48,0,0,0-.56.83,2.51,2.51,0,0,0-.2,1V137a2.46,2.46,0,0,0,.2,1,2.35,2.35,0,0,0,.56.82,2.87,2.87,0,0,0,.84.56,2.69,2.69,0,0,0,1,.2h.16a2.48,2.48,0,0,0,1.45-.43,2.51,2.51,0,0,0,.92-1.12.54.54,0,0,0,.06-.27.59.59,0,0,0-.19-.46.64.64,0,0,0-.44-.18.59.59,0,0,0-.31.09.54.54,0,0,0-.22.3,1.72,1.72,0,0,1-.49.59,1.25,1.25,0,0,1-.78.24h-.16A1.38,1.38,0,0,1,274.2,137v-.82h3.55a.57.57,0,0,0,.43-.19.6.6,0,0,0,.18-.43Zm-7.78,4.34a.56.56,0,0,0-.47-.2.92.92,0,0,1-.64-.28.86.86,0,0,1-.26-.63v-8.65a.55.55,0,0,0-.19-.46.68.68,0,0,0-.42-.15.7.7,0,0,0-.43.15.55.55,0,0,0-.19.46v8.67a2.12,2.12,0,0,0,.16.83,2,2,0,0,0,.46.68,2.12,2.12,0,0,0,.68.45,2.09,2.09,0,0,0,.83.17.59.59,0,0,0,.47-.19.66.66,0,0,0,.14-.42.67.67,0,0,0-.14-.43M263.34,137a1.29,1.29,0,0,1-.42,1,1.34,1.34,0,0,1-1,.4h-.15a1.53,1.53,0,0,1-1-.31,1,1,0,0,1-.38-.83v-.13a.79.79,0,0,1,.29-.65,2.11,2.11,0,0,1,.72-.36,7.92,7.92,0,0,1,.95-.2c.34-.05.66-.11,1-.18Zm2.05,1.63a.57.57,0,0,0-.39-.21.49.49,0,0,1-.43-.54v-3.78a2.43,2.43,0,0,0-.19-1,2.57,2.57,0,0,0-.54-.8,2.47,2.47,0,0,0-.81-.53,2.6,2.6,0,0,0-1-.2h-.11a3.91,3.91,0,0,0-.67.07,2.48,2.48,0,0,0-.67.25,2.57,2.57,0,0,0-.61.46,2.7,2.7,0,0,0-.48.74.6.6,0,0,0-.06.29.49.49,0,0,0,.19.41.72.72,0,0,0,.43.16.68.68,0,0,0,.31-.08.58.58,0,0,0,.24-.25,1.77,1.77,0,0,1,.52-.61,1.41,1.41,0,0,1,.8-.2H262a1.54,1.54,0,0,1,.93.29,1.21,1.21,0,0,1,.39,1s0,.1,0,.15a.33.33,0,0,1,0,.13c-.06.09-.21.15-.45.2l-.8.16a9.25,9.25,0,0,0-1,.21,3.49,3.49,0,0,0-.93.38,2.24,2.24,0,0,0-.7.67,1.88,1.88,0,0,0-.27,1v.19a2.18,2.18,0,0,0,.22,1,2.14,2.14,0,0,0,.6.73,2.41,2.41,0,0,0,.84.44,3.09,3.09,0,0,0,1,.15h.15a2.63,2.63,0,0,0,1.76-.64,1.22,1.22,0,0,0,.42.39,1.7,1.7,0,0,0,.68.23.2.2,0,0,0,.11,0,.56.56,0,0,0,.45-.19.62.62,0,0,0,.16-.43.6.6,0,0,0-.13-.37m-8.75-4.41a2.93,2.93,0,0,0-.21-1.16,2.5,2.5,0,0,0-.57-.82,2.23,2.23,0,0,0-.83-.48,3,3,0,0,0-1-.16h-.15a2.63,2.63,0,0,0-.8.13,1.6,1.6,0,0,0-.6.36.58.58,0,0,0-.22-.37.7.7,0,0,0-.84,0,.61.61,0,0,0-.19.46V139a.57.57,0,0,0,.19.46.72.72,0,0,0,.43.15.68.68,0,0,0,.42-.15.54.54,0,0,0,.2-.46v-4.79a1.28,1.28,0,0,1,.41-1,1.34,1.34,0,0,1,1-.4H254a1.37,1.37,0,0,1,1.39,1.38V139a.54.54,0,0,0,.2.46.68.68,0,0,0,.85,0,.57.57,0,0,0,.19-.46ZM247.18,137a1.37,1.37,0,0,1-1.38,1.38h-.14a1.38,1.38,0,0,1-1-.4,1.34,1.34,0,0,1-.4-1v-2.78a1.34,1.34,0,0,1,.4-1,1.35,1.35,0,0,1,1-.4h.16a1.37,1.37,0,0,1,1.38,1.38Zm1.24-2.78a2.69,2.69,0,0,0-.2-1,2.82,2.82,0,0,0-.56-.83,2.57,2.57,0,0,0-1.86-.77h-.16a2.57,2.57,0,0,0-1.85.77,2.52,2.52,0,0,0-.77,1.85V137a2.63,2.63,0,0,0,.2,1,2.52,2.52,0,0,0,.57.82,2.74,2.74,0,0,0,.84.56,2.6,2.6,0,0,0,1,.2h.16a2.69,2.69,0,0,0,1-.2,2.87,2.87,0,0,0,.84-.56,2.52,2.52,0,0,0,.76-1.85Zm-8.31-2a.54.54,0,0,0-.19-.46.64.64,0,0,0-.43-.16.63.63,0,0,0-.42.16.54.54,0,0,0-.19.46V139a.54.54,0,0,0,.19.46.68.68,0,0,0,.85,0,.54.54,0,0,0,.19-.46Zm0-3.4a.55.55,0,0,0-.19-.46.68.68,0,0,0-.85,0,.55.55,0,0,0-.19.46v.36a.54.54,0,0,0,.19.46.64.64,0,0,0,.85,0,.54.54,0,0,0,.19-.46Zm-4,9.78a.58.58,0,0,0-.43-.22,1.14,1.14,0,0,1-.66-.27.78.78,0,0,1-.28-.65v-4.57h.88a.56.56,0,0,0,.46-.2.63.63,0,0,0,0-.84.53.53,0,0,0-.46-.2h-.88v-2.83a.56.56,0,0,0-.2-.46.66.66,0,0,0-.84,0,.56.56,0,0,0-.2.46v2.83h-.56a.54.54,0,0,0-.47.2.66.66,0,0,0,0,.84.56.56,0,0,0,.47.2h.56v4.6a2.12,2.12,0,0,0,.17.83,1.84,1.84,0,0,0,.45.68,2.24,2.24,0,0,0,.68.45,2.12,2.12,0,0,0,.83.17.56.56,0,0,0,.47-.19.68.68,0,0,0,.15-.42.6.6,0,0,0-.14-.41m-7.56-1.6a1.29,1.29,0,0,1-.42,1,1.34,1.34,0,0,1-1,.4H227a1.5,1.5,0,0,1-1-.31,1,1,0,0,1-.39-.83v-.13a.79.79,0,0,1,.29-.65,2.21,2.21,0,0,1,.72-.36,7.92,7.92,0,0,1,1-.2c.34-.05.67-.11,1-.18Zm2.06,1.63a.62.62,0,0,0-.41-.21.49.49,0,0,1-.41-.54v-3.78a2.44,2.44,0,0,0-.2-1,2.57,2.57,0,0,0-.54-.8,2.37,2.37,0,0,0-.81-.53,2.64,2.64,0,0,0-1-.2h-.11a3.91,3.91,0,0,0-.67.07,2.3,2.3,0,0,0-.66.25,2.62,2.62,0,0,0-.62.46,2.68,2.68,0,0,0-.47.74.56.56,0,0,0,.13.7.69.69,0,0,0,.42.16.68.68,0,0,0,.31-.08.58.58,0,0,0,.24-.25,1.88,1.88,0,0,1,.52-.61,1.43,1.43,0,0,1,.8-.2h.11a1.54,1.54,0,0,1,.93.29,1.21,1.21,0,0,1,.39,1,.76.76,0,0,1,0,.15.33.33,0,0,1,0,.13.75.75,0,0,1-.45.2l-.8.16c-.3.05-.63.12-1,.21a3.49,3.49,0,0,0-.93.38,2.1,2.1,0,0,0-.69.67,1.81,1.81,0,0,0-.28,1v.19a2.18,2.18,0,0,0,.22,1,2.26,2.26,0,0,0,.6.73,2.45,2.45,0,0,0,.83.44,3.22,3.22,0,0,0,1,.15h.14a2.63,2.63,0,0,0,1.76-.64,1.31,1.31,0,0,0,.42.39,1.7,1.7,0,0,0,.68.23.22.22,0,0,0,.12,0,.55.55,0,0,0,.44-.19.62.62,0,0,0,.16-.43.65.65,0,0,0-.12-.37m-8.76-4.41a2.93,2.93,0,0,0-.21-1.16,2.25,2.25,0,0,0-1.4-1.3,3,3,0,0,0-1-.16h-.15a2.52,2.52,0,0,0-.79.13,1.65,1.65,0,0,0-.61.36.55.55,0,0,0-.23-.37.67.67,0,0,0-.82,0,.58.58,0,0,0-.2.46V139a.54.54,0,0,0,.2.46.66.66,0,0,0,.84,0,.54.54,0,0,0,.2-.46v-4.79a1.31,1.31,0,0,1,.41-1,1.34,1.34,0,0,1,1-.4h.14a1.37,1.37,0,0,1,1.39,1.38V139a.54.54,0,0,0,.2.46.68.68,0,0,0,.85,0,.54.54,0,0,0,.19-.46Zm-7.66-1.82a1.65,1.65,0,0,0-.75-.61,2.63,2.63,0,0,0-.94-.19,2.68,2.68,0,0,0-.54.05,2.42,2.42,0,0,0-.35.11.83.83,0,0,0-.28.17.49.49,0,0,0-.23-.26.78.78,0,0,0-.3-.07.64.64,0,0,0-.43.16.56.56,0,0,0-.21.46V139a.57.57,0,0,0,.2.48.61.61,0,0,0,.42.16.63.63,0,0,0,.42-.16.57.57,0,0,0,.2-.48v-5a2.56,2.56,0,0,1,0-.39.83.83,0,0,1,.14-.35.85.85,0,0,1,.33-.25,1.34,1.34,0,0,1,.58-.1.81.81,0,0,1,.48.12,1.78,1.78,0,0,1,.27.22.71.71,0,0,0,.51.23.61.61,0,0,0,.42-.17.53.53,0,0,0,.18-.42.77.77,0,0,0-.15-.42m-7.9,2.65h-2.93v-.82a1.31,1.31,0,0,1,.42-1,1.36,1.36,0,0,1,1-.4h.16a1.38,1.38,0,0,1,1.36,1.41Zm1.24-.81a2.59,2.59,0,0,0-.21-1.05,2.66,2.66,0,0,0-.55-.84,2.6,2.6,0,0,0-.84-.55,2.69,2.69,0,0,0-1-.2h-.16a2.69,2.69,0,0,0-1,.2,2.56,2.56,0,0,0-.83.57,2.52,2.52,0,0,0-.77,1.85V137a2.63,2.63,0,0,0,.2,1,2.52,2.52,0,0,0,.57.82,2.57,2.57,0,0,0,1.85.76h.16a2.46,2.46,0,0,0,1.45-.43,2.51,2.51,0,0,0,.92-1.12.45.45,0,0,0,.07-.27.63.63,0,0,0-.19-.46.66.66,0,0,0-.44-.18.56.56,0,0,0-.31.09.55.55,0,0,0-.23.3,1.69,1.69,0,0,1-.48.59,1.26,1.26,0,0,1-.79.24h-.16a1.38,1.38,0,0,1-1.39-1.37v-.82h3.55a.61.61,0,0,0,.44-.19.6.6,0,0,0,.18-.43Zm-7.78,4.36a.62.62,0,0,0-.43-.22,1.09,1.09,0,0,1-.66-.27.79.79,0,0,1-.29-.65v-4.57h.88a.56.56,0,0,0,.46-.2.63.63,0,0,0,0-.84.53.53,0,0,0-.46-.2h-.88v-2.83a.58.58,0,0,0-.19-.46.7.7,0,0,0-.43-.15.68.68,0,0,0-.42.15.55.55,0,0,0-.19.46v2.83h-.57a.55.55,0,0,0-.47.2.66.66,0,0,0,0,.84.58.58,0,0,0,.47.2h.57v4.6a2.12,2.12,0,0,0,.61,1.51,2.29,2.29,0,0,0,.69.45,2.09,2.09,0,0,0,.83.17.59.59,0,0,0,.47-.19.73.73,0,0,0,.14-.42.65.65,0,0,0-.13-.41m-6.09-4.38a2.76,2.76,0,0,0-.22-1.16,2.23,2.23,0,0,0-.57-.82,2.12,2.12,0,0,0-.82-.48,3,3,0,0,0-1-.16h-.14a2.63,2.63,0,0,0-.8.13,1.6,1.6,0,0,0-.6.36.55.55,0,0,0-.23-.37.69.69,0,0,0-.83,0,.58.58,0,0,0-.19.46V139a.54.54,0,0,0,.19.46.68.68,0,0,0,.85,0,.54.54,0,0,0,.2-.46v-4.79a1.28,1.28,0,0,1,.41-1,1.33,1.33,0,0,1,1-.4H191a1.37,1.37,0,0,1,1.39,1.38V139a.54.54,0,0,0,.2.46.68.68,0,0,0,.85,0,.57.57,0,0,0,.19-.46Zm-8.69-5.4a.55.55,0,0,0-.19-.46.68.68,0,0,0-.85,0,.55.55,0,0,0-.19.46V139a.54.54,0,0,0,.19.46.68.68,0,0,0,.85,0A.54.54,0,0,0,185,139Zm-9.26,3.58a1.67,1.67,0,0,0-.76-.61,2.58,2.58,0,0,0-.93-.19,2.61,2.61,0,0,0-.54.05,2.22,2.22,0,0,0-.36.11.7.7,0,0,0-.27.17.54.54,0,0,0-.23-.26.82.82,0,0,0-.31-.07.66.66,0,0,0-.43.16.58.58,0,0,0-.2.46V139a.57.57,0,0,0,.19.48.64.64,0,0,0,.43.16.63.63,0,0,0,.42-.16.57.57,0,0,0,.19-.48v-5a2.56,2.56,0,0,1,0-.39.78.78,0,0,1,.48-.6,1.31,1.31,0,0,1,.58-.1.81.81,0,0,1,.48.12,1.78,1.78,0,0,1,.27.22.7.7,0,0,0,.5.23.61.61,0,0,0,.43-.17.56.56,0,0,0,.17-.42.75.75,0,0,0-.14-.42m-6.93-.18a.54.54,0,0,0-.2-.46.63.63,0,0,0-.84,0,.54.54,0,0,0-.2.46V137a1.38,1.38,0,0,1-1.39,1.38H166a1.34,1.34,0,0,1-1-.4,1.35,1.35,0,0,1-.4-1v-4.78a.54.54,0,0,0-.2-.46.63.63,0,0,0-.84,0,.54.54,0,0,0-.2.46V137a3,3,0,0,0,.21,1.18,2.24,2.24,0,0,0,.57.8,2.31,2.31,0,0,0,.84.47,3,3,0,0,0,1,.16h.15a2.3,2.3,0,0,0,.79-.13,1.47,1.47,0,0,0,.6-.35.55.55,0,0,0,.23.36.69.69,0,0,0,.39.12.63.63,0,0,0,.42-.16.54.54,0,0,0,.2-.45Zm-3.59-3.4a.56.56,0,0,0-.2-.46.66.66,0,0,0-.84,0,.53.53,0,0,0-.2.46v.36a.52.52,0,0,0,.2.46.63.63,0,0,0,.84,0,.54.54,0,0,0,.2-.46Zm3,0a.54.54,0,0,0-.21-.46.7.7,0,0,0-.43-.15.63.63,0,0,0-.41.15.55.55,0,0,0-.19.46v.36a.57.57,0,0,0,.19.46.74.74,0,0,0,.43.16.69.69,0,0,0,.42-.16.54.54,0,0,0,.2-.46Zm-7.24-.42a.55.55,0,0,0-.46-.19,2.13,2.13,0,0,0-.84.16,1.89,1.89,0,0,0-.66.45,1.78,1.78,0,0,0-.44.68,2.18,2.18,0,0,0-.16.85v1.3H158a.55.55,0,0,0-.47.2.66.66,0,0,0,0,.84.58.58,0,0,0,.47.2h.35V139a.54.54,0,0,0,.2.46.66.66,0,0,0,.84,0,.54.54,0,0,0,.2-.46v-6.12h.76a.58.58,0,0,0,.47-.2.66.66,0,0,0,0-.84.51.51,0,0,0-.47-.2h-.76v-1.3a1,1,0,0,1,.23-.64.8.8,0,0,1,.63-.27.58.58,0,0,0,.46-.19.72.72,0,0,0,.16-.43.69.69,0,0,0-.16-.42"/></g><g id="g314"><path id="path316" class="cls-1" d="M311.64,120.8a.57.57,0,0,0-.43-.21,1.29,1.29,0,0,1-.66-.27.84.84,0,0,1-.28-.66v-4.57h.88a.55.55,0,0,0,.46-.19.64.64,0,0,0,.16-.43.63.63,0,0,0-.16-.42.55.55,0,0,0-.46-.19h-.88V111a.55.55,0,0,0-.2-.47.65.65,0,0,0-.41-.15.68.68,0,0,0-.43.15.57.57,0,0,0-.19.47v2.83h-.57a.57.57,0,0,0-.47.19.68.68,0,0,0,0,.85.57.57,0,0,0,.47.19H309v4.6a2.12,2.12,0,0,0,.16.83,2,2,0,0,0,.46.68,1.9,1.9,0,0,0,.68.46,2.07,2.07,0,0,0,.82.16.57.57,0,0,0,.48-.19.71.71,0,0,0,.14-.42.62.62,0,0,0-.14-.41m-5.33-10.2a.54.54,0,0,0-.46-.19,2.32,2.32,0,0,0-.84.16,2.19,2.19,0,0,0-.67.45,2.07,2.07,0,0,0-.43.68,2.23,2.23,0,0,0-.16.86v1.3h-.35a.57.57,0,0,0-.47.19.68.68,0,0,0,0,.85.57.57,0,0,0,.47.19h.35v6.13a.54.54,0,0,0,.2.46.7.7,0,0,0,.84,0,.54.54,0,0,0,.2-.46v-6.13h.76a.54.54,0,0,0,.46-.19.64.64,0,0,0,.16-.43.68.68,0,0,0-.15-.42.53.53,0,0,0-.47-.19H305v-1.3a1,1,0,0,1,.23-.65.83.83,0,0,1,.63-.26.54.54,0,0,0,.46-.2.63.63,0,0,0,.16-.42.66.66,0,0,0-.16-.43m-7.5,8.6a1.4,1.4,0,0,1-1.4,1.39h-.15a1.59,1.59,0,0,1-1-.31,1,1,0,0,1-.38-.83v-.13a.79.79,0,0,1,.29-.65,2,2,0,0,1,.72-.36,6.36,6.36,0,0,1,.95-.2c.34,0,.66-.12,1-.19Zm2.05,1.64a.58.58,0,0,0-.4-.22.49.49,0,0,1-.42-.54v-3.77a2.4,2.4,0,0,0-.19-1,2.46,2.46,0,0,0-.54-.8,2.4,2.4,0,0,0-.81-.54,2.63,2.63,0,0,0-1-.19h-.11a3.11,3.11,0,0,0-.67.07,2.61,2.61,0,0,0-.67.25,2.33,2.33,0,0,0-.61.46,2.62,2.62,0,0,0-.47.73.52.52,0,0,0-.07.29.53.53,0,0,0,.2.42.66.66,0,0,0,.42.15.67.67,0,0,0,.31-.07.58.58,0,0,0,.24-.25,1.68,1.68,0,0,1,.52-.61,1.33,1.33,0,0,1,.8-.21h.11a1.48,1.48,0,0,1,.93.3,1.18,1.18,0,0,1,.39,1s0,.09,0,.15a.4.4,0,0,1,0,.13.82.82,0,0,1-.45.2l-.81.15-.95.21a3.66,3.66,0,0,0-.93.39,2.32,2.32,0,0,0-.7.66,1.91,1.91,0,0,0-.27,1v.2a2.11,2.11,0,0,0,.82,1.73,2.47,2.47,0,0,0,.83.45,3.54,3.54,0,0,0,1,.14h.15a2.58,2.58,0,0,0,1.75-.63,1.48,1.48,0,0,0,.43.39,1.7,1.7,0,0,0,.68.22s.05,0,.11,0a.55.55,0,0,0,.45-.18.64.64,0,0,0,.15-.44.54.54,0,0,0-.12-.36m-8.72-4.41a2.51,2.51,0,0,0-.2-1,2.69,2.69,0,0,0-.56-.84,2.76,2.76,0,0,0-.83-.56,2.54,2.54,0,0,0-1-.2h-.13a2.51,2.51,0,0,0-.82.13,1.4,1.4,0,0,0-.6.35V111a.57.57,0,0,0-.19-.47.68.68,0,0,0-.42-.15.7.7,0,0,0-.43.15.57.57,0,0,0-.19.47v10.19a.54.54,0,0,0,.19.46.76.76,0,0,0,.43.14.73.73,0,0,0,.42-.14.54.54,0,0,0,.19-.46v-4.88a1.24,1.24,0,0,1,.13-.55,1.36,1.36,0,0,1,.34-.41,1.12,1.12,0,0,1,.47-.25,1.7,1.7,0,0,1,.54-.09,1.54,1.54,0,0,1,.52.09,1.25,1.25,0,0,1,.81.68,1.46,1.46,0,0,1,.12.62v4.79a.54.54,0,0,0,.19.46.76.76,0,0,0,.43.14.73.73,0,0,0,.42-.14.54.54,0,0,0,.19-.46Zm-8.19,2.3a.63.63,0,0,0-.84,0,.63.63,0,0,0-.2.47,1.49,1.49,0,0,1-.42,1,1.28,1.28,0,0,1-1,.41h-.15a1.35,1.35,0,0,1-1-.41,1.31,1.31,0,0,1-.4-1v-2.79a1.31,1.31,0,0,1,.4-1,1.34,1.34,0,0,1,1-.41h.16a1.3,1.3,0,0,1,1,.39,1.48,1.48,0,0,1,.42,1,.6.6,0,0,0,.2.46.73.73,0,0,0,.42.14.68.68,0,0,0,.42-.15.57.57,0,0,0,.2-.46,2.37,2.37,0,0,0-.22-1,2.84,2.84,0,0,0-.55-.84,2.76,2.76,0,0,0-.83-.56,2.51,2.51,0,0,0-1-.2h-.16a2.51,2.51,0,0,0-1,.2,2.67,2.67,0,0,0-.83.55,2.82,2.82,0,0,0-.56.83,2.58,2.58,0,0,0-.21,1v2.79a2.7,2.7,0,0,0,.2,1,2.91,2.91,0,0,0,.56.82,2.84,2.84,0,0,0,.84.55,2.51,2.51,0,0,0,1,.2h.16a2.69,2.69,0,0,0,1-.2,2.79,2.79,0,0,0,.83-.57,2.52,2.52,0,0,0,.57-.82,2.66,2.66,0,0,0,.2-1,.56.56,0,0,0-.2-.47m-7.69.76a2.16,2.16,0,0,0-.32-1.25,2.2,2.2,0,0,0-.78-.71,4.12,4.12,0,0,0-1-.37l-1-.24a2.82,2.82,0,0,1-.78-.33A.68.68,0,0,1,272,116v0a.8.8,0,0,1,.38-.62,1.74,1.74,0,0,1,1-.26h.07a2,2,0,0,1,.86.16l.57.28a.76.76,0,0,0,.36.1.54.54,0,0,0,.42-.18.59.59,0,0,0,.16-.41.57.57,0,0,0-.22-.47,2.22,2.22,0,0,0-.29-.21,2.35,2.35,0,0,0-.45-.23,5.78,5.78,0,0,0-.62-.19,3.09,3.09,0,0,0-.77-.08h-.07a3.84,3.84,0,0,0-.85.1,2.83,2.83,0,0,0-.86.35,2.44,2.44,0,0,0-.68.64,1.71,1.71,0,0,0-.27,1,1.93,1.93,0,0,0,.31,1.18,2.1,2.1,0,0,0,.78.64,4.07,4.07,0,0,0,1,.33c.36.07.71.16,1,.25a2.55,2.55,0,0,1,.79.4.92.92,0,0,1,.31.77v0a1.06,1.06,0,0,1-.41.75,1.77,1.77,0,0,1-1.15.34h-.08a1.77,1.77,0,0,1-.93-.31,3.38,3.38,0,0,1-.78-.72.6.6,0,0,0-.26-.22.93.93,0,0,0-.29,0,.66.66,0,0,0-.44.16.54.54,0,0,0-.2.44,1.45,1.45,0,0,0,.09.31,3.21,3.21,0,0,0,.5.68,3,3,0,0,0,.68.5,3.89,3.89,0,0,0,.79.33,3.35,3.35,0,0,0,.81.11h.09a3.85,3.85,0,0,0,1-.14,3.05,3.05,0,0,0,.91-.43,2.2,2.2,0,0,0,.65-.71,2,2,0,0,0,.25-1Zm-8,1.3a.52.52,0,0,0-.47-.2,1,1,0,0,1-.64-.28.86.86,0,0,1-.26-.63V111a.57.57,0,0,0-.19-.47.68.68,0,0,0-.85,0,.57.57,0,0,0-.19.47v8.66a2.12,2.12,0,0,0,.61,1.51,2.14,2.14,0,0,0,.69.46,2.12,2.12,0,0,0,.83.16.54.54,0,0,0,.47-.19.66.66,0,0,0,.15-.42.68.68,0,0,0-.15-.42m-5.11,0a.51.51,0,0,0-.47-.2.92.92,0,0,1-.63-.28.82.82,0,0,1-.26-.63V111a.58.58,0,0,0-.2-.47.66.66,0,0,0-.42-.15.68.68,0,0,0-.42.15.57.57,0,0,0-.19.47v8.66a2.12,2.12,0,0,0,.16.83,1.84,1.84,0,0,0,.45.68,2.07,2.07,0,0,0,1.51.62.53.53,0,0,0,.47-.19.66.66,0,0,0,.15-.42.68.68,0,0,0-.15-.42m-6.6-3.54H253.6v-.81a1.32,1.32,0,0,1,.41-1,1.39,1.39,0,0,1,1-.4h.17a1.38,1.38,0,0,1,1.36,1.41Zm1.24-.81a2.77,2.77,0,0,0-.2-1,2.56,2.56,0,0,0-.57-.83,2.43,2.43,0,0,0-.84-.56,2.59,2.59,0,0,0-1-.19H255a2.51,2.51,0,0,0-1,.2,2.6,2.6,0,0,0-1.6,2.42v2.79a2.52,2.52,0,0,0,.76,1.85,2.84,2.84,0,0,0,.84.55,2.51,2.51,0,0,0,1,.2h.16a2.51,2.51,0,0,0,1.46-.43,2.47,2.47,0,0,0,.91-1.11.51.51,0,0,0,.07-.28.59.59,0,0,0-.2-.45.62.62,0,0,0-.44-.18.61.61,0,0,0-.31.09.59.59,0,0,0-.22.3,1.66,1.66,0,0,1-.48.58,1.28,1.28,0,0,1-.79.25H255a1.34,1.34,0,0,1-1-.41,1.31,1.31,0,0,1-.4-1v-.83h3.54a.58.58,0,0,0,.44-.19.6.6,0,0,0,.18-.43Zm-7.89,3a2.16,2.16,0,0,0-.31-1.25,2.29,2.29,0,0,0-.78-.71,4.12,4.12,0,0,0-1-.37l-1-.24a2.82,2.82,0,0,1-.78-.33.66.66,0,0,1-.32-.62v0a.79.79,0,0,1,.37-.62,1.79,1.79,0,0,1,1-.26h.07a2,2,0,0,1,.86.16l.57.28a.75.75,0,0,0,.35.1.55.55,0,0,0,.43-.18.59.59,0,0,0,.16-.41.58.58,0,0,0-.23-.47,2,2,0,0,0-.28-.21,2.46,2.46,0,0,0-.46-.23,5,5,0,0,0-.61-.19,3.17,3.17,0,0,0-.78-.08h-.06a4,4,0,0,0-.86.1,3.05,3.05,0,0,0-.86.35,2.4,2.4,0,0,0-.67.64,1.72,1.72,0,0,0-.28,1,1.93,1.93,0,0,0,.32,1.18,2.1,2.1,0,0,0,.78.64,4.13,4.13,0,0,0,1,.33,10.17,10.17,0,0,1,1,.25,2.39,2.39,0,0,1,.78.4.93.93,0,0,1,.32.77v0a1.06,1.06,0,0,1-.41.75,1.77,1.77,0,0,1-1.15.34H247a1.75,1.75,0,0,1-.93-.31,3.18,3.18,0,0,1-.78-.72.67.67,0,0,0-.26-.22,1,1,0,0,0-.29,0,.66.66,0,0,0-.44.16.54.54,0,0,0-.2.44,1.45,1.45,0,0,0,.09.31,2.65,2.65,0,0,0,.5.68,3,3,0,0,0,.68.5,3.66,3.66,0,0,0,.79.33,3.29,3.29,0,0,0,.81.11h.09a3.9,3.9,0,0,0,1-.14,3.18,3.18,0,0,0,.91-.43,2.2,2.2,0,0,0,.65-.71,2,2,0,0,0,.24-1Zm-9.33-2.24h-2.93v-.81a1.33,1.33,0,0,1,.42-1,1.38,1.38,0,0,1,1-.4h.16a1.4,1.4,0,0,1,1.37,1.41Zm1.23-.81a2.77,2.77,0,0,0-.2-1,2.6,2.6,0,0,0-1.4-1.39,2.68,2.68,0,0,0-1-.19H239a2.46,2.46,0,0,0-1,.2,2.69,2.69,0,0,0-.84.56,2.68,2.68,0,0,0-.77,1.86v2.79a2.58,2.58,0,0,0,.77,1.85,2.84,2.84,0,0,0,.84.55,2.46,2.46,0,0,0,1,.2h.16a2.54,2.54,0,0,0,2.38-1.54.61.61,0,0,0,.06-.28.58.58,0,0,0-.19-.45.64.64,0,0,0-.44-.18.59.59,0,0,0-.31.09.6.6,0,0,0-.23.3,1.66,1.66,0,0,1-.48.58,1.26,1.26,0,0,1-.79.25H239a1.4,1.4,0,0,1-1.38-1.37v-.83h3.54a.56.56,0,0,0,.44-.19.6.6,0,0,0,.18-.43Zm-8.25-.21a.6.6,0,0,0-.18-.43.63.63,0,0,0-.43-.19h-2.33a.54.54,0,0,0-.46.2.63.63,0,0,0,0,.84.54.54,0,0,0,.46.2h1.71v1.89a1.72,1.72,0,0,1-.15.72,1.82,1.82,0,0,1-.4.58,1.94,1.94,0,0,1-.58.4,1.77,1.77,0,0,1-.73.15h-.16a1.72,1.72,0,0,1-.72-.15,2,2,0,0,1-.59-.4,1.76,1.76,0,0,1-.54-1.3v-5.26a1.87,1.87,0,0,1,.14-.71,1.94,1.94,0,0,1,.4-.58,2,2,0,0,1,.59-.4,1.71,1.71,0,0,1,.72-.14h.16a1.7,1.7,0,0,1,1.26.45,2.1,2.1,0,0,1,.6,1.14.61.61,0,0,0,.22.4.7.7,0,0,0,.4.12.63.63,0,0,0,.42-.16.52.52,0,0,0,.19-.44v-.1a3,3,0,0,0-.35-1.06,2.88,2.88,0,0,0-.68-.83,3.3,3.3,0,0,0-.94-.56,3.26,3.26,0,0,0-1.12-.2h-.16a3.06,3.06,0,0,0-1.2.24,3.25,3.25,0,0,0-1,.66,3.13,3.13,0,0,0-.91,2.19v5.25a3,3,0,0,0,.25,1.21,2.88,2.88,0,0,0,.66,1,2.92,2.92,0,0,0,1,.66,3.24,3.24,0,0,0,1.2.23h.16a3.26,3.26,0,0,0,1.21-.23,3.13,3.13,0,0,0,1-.66,3,3,0,0,0,.9-2.18Zm-15.62,1H215v-.81a1.32,1.32,0,0,1,.41-1,1.39,1.39,0,0,1,1-.4h.16a1.38,1.38,0,0,1,1.37,1.41Zm1.24-.81a2.59,2.59,0,0,0-.21-1,2.39,2.39,0,0,0-.56-.83,2.43,2.43,0,0,0-.84-.56,2.59,2.59,0,0,0-1-.19h-.16a2.51,2.51,0,0,0-1,.2,2.6,2.6,0,0,0-1.6,2.42v2.79a2.52,2.52,0,0,0,.76,1.85,2.84,2.84,0,0,0,.84.55,2.51,2.51,0,0,0,1,.2h.16a2.46,2.46,0,0,0,1.45-.43,2.43,2.43,0,0,0,.92-1.11A.51.51,0,0,0,219,120a.59.59,0,0,0-.2-.45.62.62,0,0,0-.44-.18.61.61,0,0,0-.31.09.59.59,0,0,0-.22.3,1.66,1.66,0,0,1-.48.58,1.28,1.28,0,0,1-.79.25h-.16a1.34,1.34,0,0,1-1-.41,1.31,1.31,0,0,1-.4-1v-.83h3.54a.58.58,0,0,0,.44-.19.6.6,0,0,0,.18-.43Zm-8.06,0a2.6,2.6,0,0,0-2.62-2.62h-.13a2.45,2.45,0,0,0-.81.13,1.35,1.35,0,0,0-.6.35V111a.58.58,0,0,0-.2-.47.66.66,0,0,0-.84,0,.58.58,0,0,0-.2.47v10.19a.54.54,0,0,0,.2.46.7.7,0,0,0,.84,0,.54.54,0,0,0,.2-.46v-4.88a1.12,1.12,0,0,1,.13-.55,1.33,1.33,0,0,1,.33-.41,1.19,1.19,0,0,1,.47-.25,1.71,1.71,0,0,1,.55-.09,1.63,1.63,0,0,1,.52.09,1.26,1.26,0,0,1,.47.25,1.18,1.18,0,0,1,.33.43,1.46,1.46,0,0,1,.12.62v4.79a.54.54,0,0,0,.2.46.7.7,0,0,0,.84,0,.54.54,0,0,0,.2-.46Zm-8.35,2.3a.63.63,0,0,0-.84,0,.63.63,0,0,0-.2.47,1.5,1.5,0,0,1-.43,1,1.25,1.25,0,0,1-.95.41h-.15a1.35,1.35,0,0,1-1-.41,1.32,1.32,0,0,1-.41-1v-2.79a1.32,1.32,0,0,1,.41-1,1.34,1.34,0,0,1,1-.41h.17a1.27,1.27,0,0,1,.95.39,1.49,1.49,0,0,1,.43,1,.6.6,0,0,0,.2.46.73.73,0,0,0,.42.14.68.68,0,0,0,.42-.15.56.56,0,0,0,.19-.46,2.52,2.52,0,0,0-.21-1,2.87,2.87,0,0,0-.56-.84,2.53,2.53,0,0,0-.83-.56,2.5,2.5,0,0,0-1-.2h-.17a2.46,2.46,0,0,0-1,.2,2.67,2.67,0,0,0-.83.55,2.82,2.82,0,0,0-.56.83,2.58,2.58,0,0,0-.21,1v2.79a2.52,2.52,0,0,0,.2,1,2.72,2.72,0,0,0,.56.82,2.84,2.84,0,0,0,.84.55,2.46,2.46,0,0,0,1,.2h.17a2.67,2.67,0,0,0,1-.2,2.71,2.71,0,0,0,.84-.57,2.35,2.35,0,0,0,.56-.82,2.49,2.49,0,0,0,.2-1,.56.56,0,0,0-.19-.47m-7.7.76a2.16,2.16,0,0,0-.31-1.25,2.32,2.32,0,0,0-.79-.71,3.9,3.9,0,0,0-1-.37l-1-.24a3,3,0,0,1-.78-.33.68.68,0,0,1-.31-.62v0a.79.79,0,0,1,.37-.62,1.79,1.79,0,0,1,1-.26h.07a2,2,0,0,1,.86.16l.57.28a.72.72,0,0,0,.35.1.55.55,0,0,0,.43-.18.64.64,0,0,0,.16-.41.58.58,0,0,0-.23-.47,2,2,0,0,0-.28-.21,2.81,2.81,0,0,0-.46-.23,5.56,5.56,0,0,0-.61-.19,3.17,3.17,0,0,0-.78-.08h-.06a3.92,3.92,0,0,0-.86.1,3.05,3.05,0,0,0-.86.35,2.4,2.4,0,0,0-.67.64,1.64,1.64,0,0,0-.28,1,1.93,1.93,0,0,0,.32,1.18,2.1,2.1,0,0,0,.78.64,4.13,4.13,0,0,0,1,.33c.37.07.71.16,1,.25a2.39,2.39,0,0,1,.78.4.93.93,0,0,1,.32.77v0a1,1,0,0,1-.42.75,1.72,1.72,0,0,1-1.14.34h-.09a1.72,1.72,0,0,1-.92-.31,3.38,3.38,0,0,1-.78-.72.67.67,0,0,0-.26-.22,1,1,0,0,0-.29,0,.66.66,0,0,0-.44.16.54.54,0,0,0-.2.44,1.92,1.92,0,0,0,.08.31,3,3,0,0,0,.51.68,2.78,2.78,0,0,0,.68.5,3.66,3.66,0,0,0,.79.33,3.27,3.27,0,0,0,.8.11h.1a3.9,3.9,0,0,0,1-.14,3.18,3.18,0,0,0,.91-.43,2.2,2.2,0,0,0,.65-.71,2,2,0,0,0,.24-1Zm-8,1.31a.59.59,0,0,0-.43-.21,1.29,1.29,0,0,1-.66-.27.81.81,0,0,1-.28-.66v-4.57h.88a.56.56,0,0,0,.46-.19.68.68,0,0,0,0-.85.56.56,0,0,0-.46-.19h-.88V111a.58.58,0,0,0-.2-.47.66.66,0,0,0-.84,0,.58.58,0,0,0-.2.47v2.83h-.57a.55.55,0,0,0-.46.19.68.68,0,0,0,0,.85.55.55,0,0,0,.46.19h.57v4.6a2.31,2.31,0,0,0,.16.83,2.15,2.15,0,0,0,.46.68,2.07,2.07,0,0,0,1.51.62.54.54,0,0,0,.47-.19.66.66,0,0,0,.15-.42.68.68,0,0,0-.14-.41m-6.3-6.37a.58.58,0,0,0-.2-.47.68.68,0,0,0-.42-.15.7.7,0,0,0-.43.15.57.57,0,0,0-.19.47v4.78a1.31,1.31,0,0,1-.4,1,1.39,1.39,0,0,1-1,.41h-.14a1.4,1.4,0,0,1-1.39-1.38v-4.78a.57.57,0,0,0-.19-.47.68.68,0,0,0-.85,0,.57.57,0,0,0-.19.47v4.79a2.91,2.91,0,0,0,.21,1.17,2.28,2.28,0,0,0,.57.81,2.38,2.38,0,0,0,.84.47,3.32,3.32,0,0,0,1,.15h.14a2.63,2.63,0,0,0,.8-.12,1.38,1.38,0,0,0,.6-.36.53.53,0,0,0,.23.37.77.77,0,0,0,.39.11.68.68,0,0,0,.42-.15.56.56,0,0,0,.2-.45Zm-9.24,2.82h-2.92v-.81a1.36,1.36,0,0,1,.41-1,1.42,1.42,0,0,1,1-.4h.16a1.36,1.36,0,0,1,.95.4,1.38,1.38,0,0,1,.41,1Zm1.24-.81a2.77,2.77,0,0,0-.2-1,2.6,2.6,0,0,0-1.4-1.39,2.68,2.68,0,0,0-1-.19h-.16a2.43,2.43,0,0,0-1,.2,2.58,2.58,0,0,0-.84.56,2.57,2.57,0,0,0-.77,1.86v2.79a2.7,2.7,0,0,0,.2,1,2.63,2.63,0,0,0,1.41,1.37,2.43,2.43,0,0,0,1,.2h.16a2.49,2.49,0,0,0,1.46-.43,2.56,2.56,0,0,0,.92-1.11.61.61,0,0,0,.06-.28.56.56,0,0,0-.2-.45.6.6,0,0,0-.43-.18.59.59,0,0,0-.31.09.55.55,0,0,0-.23.3,1.66,1.66,0,0,1-.48.58,1.26,1.26,0,0,1-.79.25h-.16a1.36,1.36,0,0,1-1-.41,1.31,1.31,0,0,1-.4-1v-.83h3.54a.58.58,0,0,0,.44-.19.6.6,0,0,0,.18-.43Zm-9.49,2.21a1.8,1.8,0,0,1-.15.73,2.11,2.11,0,0,1-.39.58,2,2,0,0,1-.59.4,1.71,1.71,0,0,1-.72.14h-2v-8.76h2a1.75,1.75,0,0,1,.72.15,1.78,1.78,0,0,1,.57.4,2.11,2.11,0,0,1,.39.58,1.8,1.8,0,0,1,.15.73Zm1.23-5.07a3,3,0,0,0-.9-2.17,3.19,3.19,0,0,0-1-.66,3,3,0,0,0-1.19-.24h-2.63a.6.6,0,0,0-.43.18.59.59,0,0,0-.19.44v10a.65.65,0,0,0,.62.62h2.63a3,3,0,0,0,1.19-.24,3.19,3.19,0,0,0,1-.66,3.06,3.06,0,0,0,.9-2.19Z"/></g></g></svg>