<svg id="Layer_1" data-name="Layer 1" xmlns="http://www.w3.org/2000/svg" xmlns:xlink="http://www.w3.org/1999/xlink" viewBox="0 0 377.27 330.68"><defs><style>.cls-1{fill:none;}.cls-2{clip-path:url(#clip-path);}.cls-3,.cls-6{fill:#008d36;}.cls-4,.cls-5{fill:#9d9d9c;}.cls-5,.cls-6,.cls-7{fill-rule:evenodd;}.cls-7{fill:#fff;}</style><clipPath id="clip-path"><rect class="cls-1" x="-42.59" y="9.11" width="443.96" height="301.38"/></clipPath></defs><g class="cls-2"><polygon class="cls-3" points="111.13 248.68 105.9 254.13 105.9 263.97 96.95 263.97 96.95 225.05 105.9 225.05 105.9 243.23 123.14 225.05 133.15 225.05 117.02 242.4 134.09 263.97 123.58 263.97 111.13 248.68"/><polygon class="cls-3" points="170.46 256.75 170.46 263.97 140.31 263.97 140.31 225.05 169.73 225.05 169.73 232.28 149.27 232.28 149.27 240.73 167.34 240.73 167.34 247.74 149.27 247.74 149.27 256.75 170.46 256.75"/><g class="cls-2"><path class="cls-3" d="M215.55,253.35c0,6.73-5.34,10.63-15.57,10.63H179.85V225.05h19c9.73,0,14.73,4.06,14.73,10.12a9.34,9.34,0,0,1-5.17,8.56,9.61,9.61,0,0,1,7.12,9.62M188.8,231.83V241h9c4.39,0,6.78-1.56,6.78-4.62s-2.39-4.56-6.78-4.56Zm17.69,20.58c0-3.28-2.51-4.84-7.18-4.84H188.8v9.62h10.51c4.67,0,7.18-1.44,7.18-4.78"/><path class="cls-3" d="M260.31,253.35c0,6.73-5.34,10.63-15.57,10.63H224.61V225.05h19c9.73,0,14.74,4.06,14.74,10.12a9.35,9.35,0,0,1-5.18,8.56,9.61,9.61,0,0,1,7.12,9.62m-26.75-21.52V241h9c4.39,0,6.78-1.56,6.78-4.62s-2.39-4.56-6.78-4.56Zm17.69,20.58c0-3.28-2.51-4.84-7.18-4.84H233.56v9.62h10.51c4.67,0,7.18-1.44,7.18-4.78"/><rect class="cls-3" x="269.37" y="225.05" width="9.01" height="38.93"/><path class="cls-4" d="M96.65,274.74h6.27c4.94,0,8.26,3.17,8.26,7.7s-3.32,7.71-8.26,7.71H96.65Zm6.19,14c4.09,0,6.73-2.6,6.73-6.3s-2.64-6.29-6.73-6.29H98.28v12.59Z"/><path class="cls-4" d="M125.6,286H117l-1.85,4.12h-1.7l7.05-15.41h1.61l7,15.41h-1.71Zm-.6-1.32-3.7-8.28-3.7,8.28Z"/><polygon class="cls-4" points="135.26 276.15 129.84 276.15 129.84 274.74 142.31 274.74 142.31 276.15 136.89 276.15 136.89 290.15 135.26 290.15 135.26 276.15"/><path class="cls-4" d="M155.12,286h-8.59l-1.85,4.12H143L150,274.74h1.61l7,15.41H157Zm-.6-1.32-3.7-8.28-3.7,8.28Z"/><path class="cls-4" d="M181.71,280c0,3.28-2.38,5.27-6.3,5.27h-4.14v4.86h-1.63V274.74h5.77c3.92,0,6.3,2,6.3,5.28m-1.63,0c0-2.46-1.63-3.87-4.71-3.87h-4.1v7.7h4.1c3.08,0,4.71-1.41,4.71-3.83"/><path class="cls-4" d="M197.07,290.15l-3.52-4.95a12.27,12.27,0,0,1-1.24.06h-4.14v4.89h-1.62V274.74h5.76c3.92,0,6.3,2,6.3,5.28a4.79,4.79,0,0,1-3.52,4.85l3.76,5.28ZM197,280c0-2.46-1.63-3.87-4.71-3.87h-4.1v7.73h4.1c3.08,0,4.71-1.44,4.71-3.86"/><path class="cls-4" d="M202.41,282.44a8.1,8.1,0,1,1,8.11,7.84,7.76,7.76,0,0,1-8.11-7.84m14.56,0a6.48,6.48,0,1,0-6.45,6.39,6.24,6.24,0,0,0,6.45-6.39"/><path class="cls-4" d="M220.62,288.08l1-1.1a3.89,3.89,0,0,0,3.32,1.89c1.89,0,2.86-1.12,2.86-3.39v-9.33h-5.63v-1.41h7.24v10.68c0,3.26-1.54,4.86-4.49,4.86a5.05,5.05,0,0,1-4.27-2.2"/><polygon class="cls-4" points="246.48 288.74 246.48 290.15 235.58 290.15 235.58 274.74 246.15 274.74 246.15 276.15 237.21 276.15 237.21 281.63 245.19 281.63 245.19 283.02 237.21 283.02 237.21 288.74 246.48 288.74"/><path class="cls-4" d="M250.18,282.44a7.73,7.73,0,0,1,8.08-7.83,7.47,7.47,0,0,1,5.64,2.24l-1,1a6.1,6.1,0,0,0-4.56-1.83,6.39,6.39,0,1,0,0,12.77,6,6,0,0,0,4.56-1.85l1,1a7.54,7.54,0,0,1-5.66,2.26,7.73,7.73,0,0,1-8.06-7.84"/><polygon class="cls-4" points="271.49 276.15 266.07 276.15 266.07 274.74 278.53 274.74 278.53 276.15 273.12 276.15 273.12 290.15 271.49 290.15 271.49 276.15"/><path class="cls-5" d="M96.55,210.4q5.92-12,11.84-24.1,8.17-16.74,16.28-33.54a4.51,4.51,0,0,1,4.61-2.89c7.25.08,14.5,0,21.74,0a5.27,5.27,0,0,1,4.38,2c2.45,2.86,5,5.63,7.53,8.44.38.43.72.89,1.29,1.6H162c-8.5,0-17,0-25.51,0a4.07,4.07,0,0,0-4.09,2.56q-8.77,18.15-17.63,36.27c-.2.42-.35.85-.57,1.38h148.7c-.29-.66-.52-1.25-.79-1.81C256.39,188.49,250.63,176.75,245,165a4.85,4.85,0,0,0-5-3.11c-8.91.11-17.83,0-26.91,0a2.57,2.57,0,0,1,.28-.7c2.95-3.3,5.83-6.68,8.91-9.86a5.23,5.23,0,0,1,3.31-1.36c7.6-.12,15.21-.05,22.81-.08,2,0,3.14,1,4,2.73q13.89,28.63,27.84,57.22a5.23,5.23,0,0,0,.39.57v2.16c-1.19,1.65-3,1.55-4.69,1.55H134.65q-17,0-34,0c-1.6,0-3.1-.14-4.14-1.56Z"/><path class="cls-6" d="M189.55,31.93c25.71-.42,49.81,18.17,56.15,43.6,5,20.21,1,38.8-11.81,55.21-5.55,7.13-11.76,13.76-17.85,20.44-9.69,10.63-18.18,22-23.89,35.33-.83,1.92-2,3.33-4.33,3.28-2.16,0-3.37-1.36-4.11-3.21-6.23-15.58-16.49-28.43-27.55-40.75-6.84-7.61-13.62-15.27-18.67-24.29-11.8-21.1-9.48-48.81,5.75-67.66,10.34-12.8,23.63-20.16,40-22a53.66,53.66,0,0,1,6.34,0m-.46,27.68a31.05,31.05,0,0,0-.6,62.1,31.05,31.05,0,1,0,.6-62.1"/><path class="cls-7" d="M189.09,59.61a31.05,31.05,0,1,1-31.31,30.57,31,31,0,0,1,31.31-30.57"/></g></g></svg>