<svg id="Layer_1" data-name="Layer 1" xmlns="http://www.w3.org/2000/svg" viewBox="0 0 377.27 330.68"><defs><style>.cls-1{fill:#60b22f;}.cls-1,.cls-2,.cls-3{fill-rule:evenodd;}.cls-2{fill:#fefefe;}.cls-3,.cls-6{fill:#43a6de;}.cls-4{fill:#007233;}.cls-5{fill:#008d36;}</style></defs><path class="cls-1" d="M77.58,101.76a49.84,49.84,0,1,1-49.87,49.88,50,50,0,0,1,49.87-49.88"/><path class="cls-2" d="M77.58,105.85A45.75,45.75,0,1,1,31.8,151.64a45.84,45.84,0,0,1,45.78-45.79"/><path class="cls-1" d="M77,82.69a69.42,69.42,0,0,1,69.41,69.41h-4.87A64.52,64.52,0,0,0,77,87.55Z"/><path class="cls-3" d="M77,221.43A69.4,69.4,0,0,1,7.56,152h4.86A64.46,64.46,0,0,0,77,216.49Z"/><path class="cls-3" d="M34.81,109.87a59.55,59.55,0,0,1,84.31,0l-3.47,3.47a54.67,54.67,0,0,0-77.36,0Z"/><path class="cls-1" d="M119.12,194.18a59.69,59.69,0,0,1-84.31,0l3.48-3.48a54.8,54.8,0,0,0,77.36,0Z"/><path class="cls-4" d="M75.27,141c1.46,6.57-8.34,17.37,4.71,9.81.46-.85,2.08,0,2.7.46.31.31.62.16.85-.08,1.39-1.08,3.94,1.32,4.94-.85.7-1.15,2.08.24,3.17-.23.61-.07.85.62,1.23.93.7,1.16,2.39-.08,2.94,1.31,3.55,1.55,7.64-2.55,9.72,2.63.31,2-1.08,4.4,1.62,5.25,3.63,3.78-1.23,8.26-5.32,8.49C86.08,170.94,99,158,86.93,160.13c-2.32,1.31-7.49-.23-7.49,3.71.61,2.54,2.93,1.31,4.09,2.85.54.85,1.93,0,2.08,1.24.93,2.16-.77,3.94,1.32,5.56-3.25.46-2.24,1.93-5.1.92-.77,0-2,.47-1.54,1.39,0,1.32-.16,3.17.46,4.33.54.31,1.31.69,1.39,1.31-.46,1.23,1.47,1.62.93,2.62-.93,3.32-4.25-.3-5.64,1.63-.23.92.31,2.08-.15,2.85-.78.62-2.86-.61-3.09-1.23,1.54-1.7-1.32-2.78-.54-4.48,0-2.47,1.77-4.32,3.7-5.64,1.47-5.25,3-9.72-4.55-7.49-3.09,1-4.4-2.16-6.8-2.85a15.56,15.56,0,0,1-7-1.24c-1.47-.77-4-.31-4.56-2-1.08-2.16-2.93-3.93-4.17-6,.77-2.62,1.86-5.4,4.48-6.71,2.24-1.7-2.78-3.09-.85-4.87.46-.62,1.39-1.54,1-2.31-1.77-3.32,1.09-7.34.24-11.05.69-2.62,4.32-2.93,5.79-5.17,1.93-2.39,3.86-4.79,4.63-7.8.77-1.23-.08-3.86,1.08-4.47,4.17-.47,6.95,2.77,10.73,3.93,1.24.16,2-1.62,3.09-1.7.93,2.24-2.39,4.33-.23,6.49,1,1.93-.62,4.17.39,6.1.07,1.39.61,3.94-.78,4.79-.85-.08-.85-1.24-1.93-.54-3.32.84-2.62,4.16-2.62,6.71Z"/><polygon points="140.97 198.12 140.97 156.12 151.78 156.12 151.78 172.1 165.37 156.12 178.34 156.12 162.05 175.42 181.35 198.12 168.23 198.12 151.78 179.43 151.78 198.12 140.97 198.12"/><polygon points="185.06 198.12 185.06 156.12 216.94 156.12 216.94 165.53 195.87 165.53 195.87 171.25 212.62 171.25 212.62 180.36 195.87 180.36 195.87 188.62 217.49 188.62 217.49 198.12 185.06 198.12"/><path d="M223.58,198.12v-42H244c7.65,0,13,3.7,13,10.65a8.81,8.81,0,0,1-4.94,8.18,10,10,0,0,1,5.48,3.63,11.53,11.53,0,0,1,2.47,7.49,10.53,10.53,0,0,1-4.17,8.73c-2.7,2.24-6.33,3.32-10.88,3.32Zm10.81-26h8c2.63,0,4.33-1.39,4.33-3.62s-1.7-3.71-4.33-3.71h-8Zm0,16.91h8.73c3.32,0,5.25-1.62,5.25-4.47s-2.09-4.48-5.25-4.48h-8.73Z"/><path d="M271,192.79a22.19,22.19,0,0,1,0-31.5c4.4-4.09,10-6.1,16.68-6.1a25.73,25.73,0,0,1,12.27,3v10.11a23.93,23.93,0,0,0-11.42-3.16,13.13,13.13,0,0,0-9.35,3.4,11.34,11.34,0,0,0-3.63,8.72,11.38,11.38,0,0,0,11.74,12,10.17,10.17,0,0,0,6.64-2V173.56h10.89v18.69a20.12,20.12,0,0,1-7.26,4.71,28.37,28.37,0,0,1-10.27,1.93,22.62,22.62,0,0,1-16.29-6.1"/><rect x="311.76" y="156.12" width="10.81" height="42"/><path d="M329.44,194.41v-11a22.52,22.52,0,0,0,7.18,4.09,24.41,24.41,0,0,0,8.64,1.7c4.25,0,6.41-1.08,6.41-3.32,0-1.23-.69-1.78-1.62-2.47a12.07,12.07,0,0,0-2.7-1.08l-3.78-1.16-3.09-.93-2.78-1.08a18.13,18.13,0,0,1-2.78-1.31,16,16,0,0,1-4.09-3.86,13.65,13.65,0,0,1-1.47-6.18c0-8.1,6.41-12.58,16.52-12.58a30,30,0,0,1,14.21,3.47V169a27.66,27.66,0,0,0-6.64-2.86,25.76,25.76,0,0,0-7.41-1.23c-3.63,0-5.49.92-5.49,2.78,0,.77.47,1.39,1.78,1.93l1.93.69c1.24.39,4,1.16,5.79,1.7a27.32,27.32,0,0,1,9.5,5c2.31,2,3.39,4.79,3.39,8.41a11.64,11.64,0,0,1-4.78,9.81c-3.17,2.47-7.34,3.63-12.36,3.63-6.56.08-12-1.47-16.36-4.48"/><polygon class="cls-5" points="140.12 212.63 140.12 203.37 141.97 203.37 141.97 207 145.37 203.37 147.69 203.37 143.83 207.61 148.38 212.63 145.99 212.63 141.97 208.38 141.97 212.63 140.12 212.63"/><polygon class="cls-5" points="151.24 212.63 151.24 203.37 158.03 203.37 158.03 205.06 153.17 205.06 153.17 206.84 157.03 206.84 157.03 208.54 153.17 208.54 153.17 210.93 158.11 210.93 158.11 212.63 151.24 212.63"/><path class="cls-5" d="M161.51,212.63v-9.19h4.32c1.7,0,2.78.85,2.78,2.32a2,2,0,0,1-1.16,1.85,2.12,2.12,0,0,1,1.32.85,2.48,2.48,0,0,1,.54,1.62,2.62,2.62,0,0,1-.85,1.93,3.57,3.57,0,0,1-2.32.7h-4.63Zm1.85-5.63h2.16c.78,0,1.24-.39,1.24-1s-.46-1-1.24-1h-2.16Zm0,3.93h2.4c.92,0,1.46-.38,1.46-1.16s-.54-1.23-1.46-1.23h-2.4Z"/><path class="cls-5" d="M172.78,212.63v-9.19h4.32c1.7,0,2.78.85,2.78,2.32a2,2,0,0,1-1.15,1.85,2.1,2.1,0,0,1,1.31.85,2.48,2.48,0,0,1,.54,1.62,2.62,2.62,0,0,1-.85,1.93,3.57,3.57,0,0,1-2.32.7h-4.63Zm1.85-5.63h2.17c.77,0,1.23-.39,1.23-1s-.46-1-1.23-1h-2.17Zm0,3.93H177c.92,0,1.46-.38,1.46-1.16s-.54-1.23-1.46-1.23h-2.4Z"/><rect class="cls-5" x="184.05" y="203.37" width="1.85" height="9.19"/><path class="cls-5" d="M194.63,211.78v-2a4.75,4.75,0,0,0,1.55.85,5.49,5.49,0,0,0,1.93.39c1,0,1.77-.39,1.77-1.08a.84.84,0,0,0-.46-.77,1.65,1.65,0,0,0-.54-.23l-.31-.08-.77-.23-.7-.23a2.49,2.49,0,0,0-.62-.24,2,2,0,0,1-.61-.31,2.48,2.48,0,0,1-.85-.77,2.9,2.9,0,0,1-.31-1.31,2.25,2.25,0,0,1,.92-1.93,4.2,4.2,0,0,1,2.55-.69,5.82,5.82,0,0,1,3,.77v1.85a5.9,5.9,0,0,0-3-.85c-1,0-1.54.31-1.54.93,0,.31.15.46.46.61a3.69,3.69,0,0,0,.77.31c.24.08.7.24,1,.31a9.33,9.33,0,0,1,2,.93,2.24,2.24,0,0,1,.93,1.93,2.49,2.49,0,0,1-1,2.08,4.11,4.11,0,0,1-2.63.78,6,6,0,0,1-3.55-1"/><polygon class="cls-5" points="204.59 203.37 212.31 203.37 212.31 205.06 209.38 205.06 209.38 212.63 207.53 212.63 207.53 205.06 204.59 205.06 204.59 203.37"/><path class="cls-5" d="M214.78,212.63l3.94-9.26h1.85l3.94,9.26h-2.08l-.93-2.16h-3.86l-.93,2.16Zm3.48-3.7H221l-1.31-3.17Z"/><polygon class="cls-5" points="226.9 203.37 234.63 203.37 234.63 205.06 231.69 205.06 231.69 212.63 229.84 212.63 229.84 205.06 226.9 205.06 226.9 203.37"/><polygon class="cls-5" points="237.87 212.63 237.87 203.37 244.66 203.37 244.66 205.06 239.8 205.06 239.8 206.84 243.74 206.84 243.74 208.54 239.8 208.54 239.8 210.93 244.82 210.93 244.82 212.63 237.87 212.63"/><path class="cls-5" d="M254.47,211.47a5,5,0,0,1,0-6.95,4.84,4.84,0,0,1,3.55-1.31,5.24,5.24,0,0,1,2.78.7v1.85a4.73,4.73,0,0,0-2.63-.77,3.4,3.4,0,0,0-2.31.85,2.79,2.79,0,0,0-.85,2.24,2.91,2.91,0,0,0,.85,2.16,3,3,0,0,0,2.08.85,2.79,2.79,0,0,0,1.85-.62V207.3h1.93v4.1a4.42,4.42,0,0,1-1.54,1,5.09,5.09,0,0,1-2.16.39,5,5,0,0,1-3.55-1.32"/><polygon class="cls-5" points="265.28 212.63 265.28 203.37 272.07 203.37 272.07 205.06 267.21 205.06 267.21 206.84 271.07 206.84 271.07 208.54 267.21 208.54 267.21 210.93 272.15 210.93 272.15 212.63 265.28 212.63"/><path class="cls-5" d="M276.55,204.6a4.69,4.69,0,0,1,3.4-1.39,4.54,4.54,0,0,1,3.39,1.39,4.85,4.85,0,0,1,0,6.8,4.54,4.54,0,0,1-3.39,1.39,4.45,4.45,0,0,1-3.4-1.39,4.66,4.66,0,0,1-1.39-3.4,5.41,5.41,0,0,1,1.39-3.4M280,211a2.68,2.68,0,0,0,2-.85,3.17,3.17,0,0,0,0-4.32,2.8,2.8,0,0,0-2-.85,2.66,2.66,0,0,0-2,.85,3.38,3.38,0,0,0,0,4.32,2.54,2.54,0,0,0,2,.85"/><path class="cls-5" d="M289.44,211.47a5,5,0,0,1,0-6.95,4.86,4.86,0,0,1,3.55-1.31,5.24,5.24,0,0,1,2.78.7v1.85a4.72,4.72,0,0,0-2.62-.77,3.43,3.43,0,0,0-2.32.85,2.79,2.79,0,0,0-.85,2.24,2.91,2.91,0,0,0,.85,2.16,3,3,0,0,0,2.09.85,2.79,2.79,0,0,0,1.85-.62V207.3h1.93v4.1a4.61,4.61,0,0,1-1.54,1,5.13,5.13,0,0,1-2.17.39,5,5,0,0,1-3.55-1.32"/><path class="cls-5" d="M300.25,212.63v-9.19h4.25a3.11,3.11,0,0,1,2.31.78,2.49,2.49,0,0,1,.85,1.93,2.54,2.54,0,0,1-1.93,2.54l2.86,3.94h-2.16l-2.7-3.7H302.1v3.7Zm1.93-5.33h2.24c.85,0,1.39-.38,1.39-1.08s-.54-1.08-1.39-1.08h-2.24Z"/><path class="cls-5" d="M310.91,212.63l3.93-9.26h1.86l3.93,9.26h-2l-.93-2.16h-3.86l-.93,2.16Zm3.47-3.7h2.7l-1.31-3.17Z"/><path class="cls-5" d="M323.65,212.63v-9.19h4a3.14,3.14,0,0,1,2.32.78,2.43,2.43,0,0,1,.85,2,2.68,2.68,0,0,1-.85,2,3.24,3.24,0,0,1-2.32.77H325.5v3.63Zm1.93-5.33h2c.93,0,1.47-.38,1.47-1.15s-.54-1.16-1.47-1.16h-2Z"/><polygon class="cls-5" points="334.15 212.63 334.15 203.37 336.08 203.37 336.08 206.84 340.25 206.84 340.25 203.37 342.1 203.37 342.1 212.63 340.25 212.63 340.25 208.54 336.08 208.54 336.08 212.63 334.15 212.63"/><rect class="cls-5" x="346.04" y="203.37" width="1.85" height="9.19"/><path class="cls-5" d="M353,211.47a5,5,0,0,1,0-6.95,4.88,4.88,0,0,1,3.56-1.31,5.32,5.32,0,0,1,2.47.62v1.93a4.39,4.39,0,0,0-2.4-.69,3,3,0,0,0-2.16.84,2.76,2.76,0,0,0-.85,2.17,2.79,2.79,0,0,0,.93,2.16,3.22,3.22,0,0,0,2.24.85,4,4,0,0,0,2.55-.77v1.93a5,5,0,0,1-2.63.69,6,6,0,0,1-3.71-1.47"/><rect class="cls-5" x="140.2" y="219.19" width="1.85" height="9.19"/><polygon class="cls-5" points="144.45 228.38 144.45 219.19 146.07 219.19 150.7 225.06 150.7 219.19 152.55 219.19 152.55 228.38 150.93 228.38 146.3 222.44 146.3 228.38 144.45 228.38"/><polygon class="cls-5" points="154.79 228.38 154.79 219.19 161.59 219.19 161.59 220.89 156.72 220.89 156.72 222.75 160.43 222.75 160.43 224.44 156.72 224.44 156.72 228.38 154.79 228.38"/><path class="cls-5" d="M164.37,220.35a4.67,4.67,0,0,1,3.39-1.39,4.58,4.58,0,0,1,3.4,1.39,4.85,4.85,0,0,1,0,6.8,4.58,4.58,0,0,1-3.4,1.39,4.42,4.42,0,0,1-3.39-1.39,4.66,4.66,0,0,1-1.39-3.4,5,5,0,0,1,1.39-3.4m3.47,6.41a2.68,2.68,0,0,0,2-.85,3.17,3.17,0,0,0,0-4.32,2.81,2.81,0,0,0-2-.85,2.68,2.68,0,0,0-2,.85,3.41,3.41,0,0,0,0,4.32,2.34,2.34,0,0,0,2,.85"/><path class="cls-5" d="M174.56,228.38v-9.19h4.24a3.12,3.12,0,0,1,2.32.78,2.49,2.49,0,0,1,.85,1.93,2.55,2.55,0,0,1-1.93,2.54l2.86,3.94h-2.17l-2.7-3.7h-1.62v3.7Zm1.85-5.33h2.24c.85,0,1.39-.38,1.39-1.08s-.54-1.08-1.39-1.08h-2.24Z"/><polygon class="cls-5" points="184.44 228.38 184.44 219.19 186.29 219.19 189 222.98 191.62 219.19 193.47 219.19 193.47 228.38 191.62 228.38 191.62 222.05 189.53 225.06 188.46 225.06 186.29 222.05 186.29 228.38 184.44 228.38"/><path class="cls-5" d="M195,228.38l3.93-9.26h1.86l3.94,9.26h-2l-.93-2.16H198l-.93,2.16Zm3.47-3.7h2.7l-1.31-3.17Z"/><polygon class="cls-5" points="205.59 219.19 213.31 219.19 213.31 220.89 210.38 220.89 210.38 228.38 208.45 228.38 208.45 220.89 205.59 220.89 205.59 219.19"/><rect class="cls-5" x="215.01" y="219.19" width="1.85" height="9.19"/><path class="cls-5" d="M220.34,220.35a4.7,4.7,0,0,1,3.4-1.39,4.58,4.58,0,0,1,3.4,1.39,4.85,4.85,0,0,1,0,6.8,4.58,4.58,0,0,1-3.4,1.39,4.45,4.45,0,0,1-3.4-1.39,4.85,4.85,0,0,1,0-6.8m3.4,6.41a2.68,2.68,0,0,0,2-.85,3.17,3.17,0,0,0,0-4.32,2.81,2.81,0,0,0-2-.85,2.68,2.68,0,0,0-2,.85,3.41,3.41,0,0,0,0,4.32,2.33,2.33,0,0,0,2,.85"/><polygon class="cls-5" points="230.46 228.38 230.46 219.19 232.08 219.19 236.71 225.06 236.71 219.19 238.56 219.19 238.56 228.38 237.02 228.38 232.31 222.44 232.31 228.38 230.46 228.38"/><path class="cls-5" d="M244,227.61v-2a4.75,4.75,0,0,0,1.55.85,5.77,5.77,0,0,0,1.93.39c1,0,1.77-.39,1.77-1.08a.86.86,0,0,0-.46-.78,2.08,2.08,0,0,0-.54-.23l-.31-.07-.77-.24-.7-.23a2.92,2.92,0,0,0-.61-.23,2.2,2.2,0,0,1-.62-.31,2.57,2.57,0,0,1-.85-.77,3,3,0,0,1-.31-1.31,2.24,2.24,0,0,1,.93-1.93,4.11,4.11,0,0,1,2.55-.7,5.85,5.85,0,0,1,3,.77v1.86a5.92,5.92,0,0,0-3-.85c-1,0-1.55.31-1.55.92,0,.31.16.47.46.62a4.18,4.18,0,0,0,.78.31c.23.08.69.23,1,.31a9.66,9.66,0,0,1,2,.93,2.23,2.23,0,0,1,.92,1.93,2.46,2.46,0,0,1-1,2.08,4.06,4.06,0,0,1-2.62.77,7.07,7.07,0,0,1-3.56-1"/><polygon class="cls-5" points="255.7 228.38 255.7 224.21 252.07 219.19 254.31 219.19 256.63 222.44 258.94 219.19 261.11 219.19 257.56 224.21 257.56 228.38 255.7 228.38"/><path class="cls-5" d="M262,227.61v-2a4.75,4.75,0,0,0,1.55.85,5.77,5.77,0,0,0,1.93.39c1,0,1.77-.39,1.77-1.08a.86.86,0,0,0-.46-.78,2.08,2.08,0,0,0-.54-.23l-.31-.07-.77-.24-.7-.23a2.92,2.92,0,0,0-.61-.23,2.2,2.2,0,0,1-.62-.31,2.57,2.57,0,0,1-.85-.77,3,3,0,0,1-.31-1.31,2.24,2.24,0,0,1,.93-1.93,4.09,4.09,0,0,1,2.55-.7,5.85,5.85,0,0,1,3,.77v1.86a5.92,5.92,0,0,0-3-.85c-1,0-1.55.31-1.55.92,0,.31.16.47.46.62a4.18,4.18,0,0,0,.78.31c.23.08.69.23,1,.31a9.66,9.66,0,0,1,2,.93,2.23,2.23,0,0,1,.92,1.93,2.46,2.46,0,0,1-1,2.08,4.06,4.06,0,0,1-2.62.77,6.84,6.84,0,0,1-3.56-1"/><polygon class="cls-5" points="270.37 219.19 278.09 219.19 278.09 220.89 275.16 220.89 275.16 228.38 273.31 228.38 273.31 220.89 270.37 220.89 270.37 219.19"/><polygon class="cls-5" points="279.79 228.38 279.79 219.19 286.51 219.19 286.51 220.89 281.64 220.89 281.64 222.67 285.58 222.67 285.58 224.29 281.64 224.29 281.64 226.68 286.66 226.68 286.66 228.38 279.79 228.38"/><polygon class="cls-5" points="288.44 228.38 288.44 219.19 290.29 219.19 292.99 222.98 295.7 219.19 297.55 219.19 297.55 228.38 295.7 228.38 295.7 222.05 293.53 225.06 292.45 225.06 290.37 222.05 290.37 228.38 288.44 228.38"/><path class="cls-5" d="M302.64,228.38l3.94-9.26h1.78l3.94,9.26h-2l-.93-2.16H305.5l-.92,2.16Zm3.48-3.7h2.7l-1.31-3.17Z"/><path class="cls-5" d="M314.92,227.22a5,5,0,0,1,0-6.94,4.82,4.82,0,0,1,3.55-1.32,5.24,5.24,0,0,1,2.78.7v1.85a4.72,4.72,0,0,0-2.62-.77,3.43,3.43,0,0,0-2.32.85,2.79,2.79,0,0,0-.85,2.24,2.91,2.91,0,0,0,.85,2.16,3,3,0,0,0,2.09.85,2.79,2.79,0,0,0,1.85-.62v-3.17h1.93v4.1a4.56,4.56,0,0,1-1.55,1,5.09,5.09,0,0,1-2.16.39,4.82,4.82,0,0,1-3.55-1.32"/><polygon class="cls-5" points="324.19 228.38 324.19 219.19 330.98 219.19 330.98 220.89 326.12 220.89 326.12 222.67 329.98 222.67 329.98 224.29 326.12 224.29 326.12 226.68 331.13 226.68 331.13 228.38 324.19 228.38"/><polygon class="cls-5" points="332.91 228.38 332.91 219.19 334.53 219.19 339.16 225.06 339.16 219.19 341.02 219.19 341.02 228.38 339.4 228.38 334.76 222.44 334.76 228.38 332.91 228.38"/><path class="cls-5" d="M344.41,227.22a5,5,0,0,1,0-6.94A4.85,4.85,0,0,1,348,219a5.32,5.32,0,0,1,2.47.62v1.93a4.39,4.39,0,0,0-2.4-.69,3,3,0,0,0-2.16.84,2.76,2.76,0,0,0-.85,2.17A2.79,2.79,0,0,0,346,226a3.22,3.22,0,0,0,2.24.85,4,4,0,0,0,2.55-.77V228a5,5,0,0,1-2.63.69,5.58,5.58,0,0,1-3.71-1.47"/><polygon class="cls-5" points="355.07 228.38 355.07 224.21 351.52 219.19 353.76 219.19 356.07 222.44 358.31 219.19 360.47 219.19 356.92 224.21 356.92 228.38 355.07 228.38"/><polygon class="cls-6" points="45.47 174.57 42.38 176.58 41.99 175.96 43.15 175.11 41.22 174.8 40.76 174.03 42.99 174.41 43.61 171.79 44.15 172.64 43.61 174.88 45 173.95 45.47 174.57"/><polygon class="cls-6" points="43.3 171.25 40.06 172.95 38.83 170.55 39.44 170.25 40.37 171.94 40.99 171.63 40.22 170.25 40.83 169.94 41.53 171.32 42.38 170.86 41.45 169.16 41.99 168.85 43.3 171.25"/><path class="cls-6" d="M41.68,168l-3.32,1.39-.62-1.55c-.23-.62-.15-1.16.39-1.39a.7.7,0,0,1,.85.16,1.63,1.63,0,0,1,.08-.62.82.82,0,0,1,.54-.47,1.14,1.14,0,0,1,.85,0,1.62,1.62,0,0,1,.61.78Zm-2.39.15-.31-.77c-.15-.31-.31-.39-.54-.31s-.31.31-.15.62l.3.77Zm1.47-.54-.39-.85a.59.59,0,0,0-.69-.39.47.47,0,0,0-.24.7l.39.85Z"/><path class="cls-6" d="M40.22,164.38l-3.48,1-.46-1.62c-.16-.62,0-1.16.54-1.31a.83.83,0,0,1,.85.23,1,1,0,0,1,.15-.62,1.53,1.53,0,0,1,.54-.39,1.15,1.15,0,0,1,.85.08,1.4,1.4,0,0,1,.54.77Zm-2.4-.08-.23-.77c-.08-.31-.31-.47-.54-.39s-.31.31-.23.62l.23.77Zm1.55-.46-.24-.93c-.07-.39-.3-.54-.61-.46s-.39.38-.31.69l.23.93Z"/><rect class="cls-6" x="35.43" y="159.97" width="3.63" height="0.77" transform="translate(-32.83 11.39) rotate(-12.12)"/><path class="cls-6" d="M38.05,156.42l-.77.08a1.45,1.45,0,0,0,.31-.62,2.53,2.53,0,0,0,.08-.77c0-.38-.23-.69-.47-.69s-.23.07-.3.23-.08.08-.08.23V155l-.08.31-.08.31a.29.29,0,0,1-.07.23c0,.08-.08.16-.08.24s-.15.3-.31.38a1.06,1.06,0,0,1-.46.16.89.89,0,0,1-.77-.31,1.68,1.68,0,0,1-.39-1,2.35,2.35,0,0,1,.23-1.23l.7-.08a1.72,1.72,0,0,0-.24,1.24c0,.38.16.61.39.61s.15-.07.23-.23.08-.23.08-.31.08-.31.08-.38a2.45,2.45,0,0,1,.31-.85,1.12,1.12,0,0,1,.69-.47,1.17,1.17,0,0,1,.85.31,1.5,1.5,0,0,1,.39,1,2.16,2.16,0,0,1-.24,1.46"/><polygon class="cls-6" points="34.42 152.95 34.5 149.86 35.2 149.86 35.12 151.02 38.13 151.1 38.13 151.87 35.12 151.79 35.12 152.95 34.42 152.95"/><path class="cls-6" d="M38.13,149.32l-3.47-1.93.07-.69,3.79-1.16-.08.77-.85.23-.15,1.55.77.46Zm-1.31-1.54.08-1.08-1.32.38Z"/><polygon class="cls-6" points="35.04 144.3 35.74 141.29 36.35 141.45 36.12 142.6 39.06 143.22 38.9 143.92 35.97 143.3 35.74 144.46 35.04 144.3"/><polygon class="cls-6" points="39.52 141.21 36.05 140.13 36.82 137.59 37.44 137.82 36.9 139.67 37.51 139.82 37.98 138.36 38.59 138.59 38.21 140.06 39.06 140.29 39.67 138.44 40.29 138.59 39.52 141.21"/><path class="cls-6" d="M41.14,135.27a2,2,0,0,1-1.46-.08,1.77,1.77,0,0,1-.85-2.55,1.92,1.92,0,0,1,.69-.84l.7.3a2.63,2.63,0,0,0-.78.78,1,1,0,0,0-.07.92,1.11,1.11,0,0,0,.61.7,1.31,1.31,0,0,0,.93.07,1.08,1.08,0,0,0,.7-.61,1,1,0,0,0,.07-.78l-1.16-.54.31-.69,1.47.69a2.37,2.37,0,0,1,.08.78,1.81,1.81,0,0,1-.23.85,1.47,1.47,0,0,1-1,1"/><polygon class="cls-6" points="43.23 132.1 40.14 130.25 41.53 127.94 42.15 128.32 41.14 129.94 41.76 130.33 42.53 129.02 43.07 129.32 42.3 130.64 43.07 131.18 44.15 129.48 44.69 129.79 43.23 132.1"/><path class="cls-6" d="M42.92,126.85a1.74,1.74,0,0,1,.38-1.39,1.84,1.84,0,0,1,1.24-.77,1.75,1.75,0,0,1,1.39.39,1.94,1.94,0,0,1,.77,1.23,1.74,1.74,0,0,1-.39,1.39,1.78,1.78,0,0,1-2.62.39,1.48,1.48,0,0,1-.77-1.24m2.78.47a1.11,1.11,0,0,0,.23-.85,1.61,1.61,0,0,0-.46-.77.92.92,0,0,0-.85-.24,1,1,0,0,0-.78.47,1.11,1.11,0,0,0-.23.85,1.56,1.56,0,0,0,.47.77.91.91,0,0,0,.85.23.86.86,0,0,0,.77-.46"/><path class="cls-6" d="M47.86,125a1.85,1.85,0,0,1-1.39-.54,1.78,1.78,0,0,1,0-2.7,2.2,2.2,0,0,1,.93-.62l.54.54a1.87,1.87,0,0,0-.93.54,1.2,1.2,0,1,0,1.7,1.7,1,1,0,0,0,.31-.7l-.93-.84.54-.54,1.16,1.08a1.48,1.48,0,0,1-.16.77,2,2,0,0,1-.46.77,2.28,2.28,0,0,1-1.31.54"/><path class="cls-6" d="M50.87,122.61l-2.39-2.78,1.31-1.08a1.63,1.63,0,0,1,.93-.39,1.09,1.09,0,0,1,.77.39,1,1,0,0,1,.08,1.23l1.85.47-.7.54L51,120.52l-.47.39.93,1.08ZM50,120.52l.7-.61c.23-.24.3-.47.15-.7a.43.43,0,0,0-.69,0l-.7.62Z"/><path class="cls-6" d="M53.65,120.21l-.77-3.86.62-.38,3.39,2.16-.62.46-.77-.46-1.39.77.16.93Zm.31-2,.85-.62-1.16-.77Z"/><path class="cls-6" d="M57.43,117.74l-1.77-3.24,1.39-.77a1.39,1.39,0,0,1,.92-.16,1,1,0,0,1,.7.54,1.15,1.15,0,0,1,.08.85,1.06,1.06,0,0,1-.7.7l-.77.38.69,1.24Zm-.38-2.24.69-.38a.55.55,0,0,0,.31-.7.48.48,0,0,0-.69-.15l-.7.38Z"/><polygon class="cls-6" points="60.6 115.97 59.21 112.65 59.9 112.34 60.44 113.57 61.91 112.96 61.37 111.72 62.06 111.41 63.53 114.73 62.84 115.04 62.22 113.57 60.68 114.19 61.29 115.66 60.6 115.97"/><rect class="cls-6" x="64.14" y="110.63" width="0.77" height="3.63" transform="translate(-32.25 26.18) rotate(-18.44)"/><path class="cls-6" d="M67,113.11a1.46,1.46,0,0,1-.85-1.16,1.62,1.62,0,0,1,.23-1.46,2,2,0,0,1,1.23-.85,2.16,2.16,0,0,1,1,0l.15.69a1.49,1.49,0,0,0-1,0,1.1,1.1,0,0,0-.77.54,1.23,1.23,0,0,0-.16.93,1.41,1.41,0,0,0,.54.77,1.37,1.37,0,0,0,.93.08,1.92,1.92,0,0,0,.93-.54l.15.69a2.59,2.59,0,0,1-.93.54,1.91,1.91,0,0,1-1.46-.23"/><rect class="cls-6" x="72.42" y="108.87" width="0.77" height="3.63" transform="translate(-12.21 9.08) rotate(-6.59)"/><polygon class="cls-6" points="74.65 112.26 74.5 108.63 75.19 108.63 77.04 110.87 76.97 108.56 77.74 108.48 77.82 112.18 77.2 112.18 75.27 109.87 75.34 112.26 74.65 112.26"/><polygon class="cls-6" points="78.9 112.18 79.13 108.56 81.83 108.71 81.75 109.41 79.9 109.25 79.82 110.02 81.29 110.1 81.29 110.79 79.75 110.64 79.67 112.26 78.9 112.18"/><path class="cls-6" d="M83.3,109.4a1.8,1.8,0,0,1,1.39-.3,1.61,1.61,0,0,1,1.23.77,1.76,1.76,0,0,1,.31,1.39,1.66,1.66,0,0,1-.77,1.23,1.71,1.71,0,0,1-1.39.31,1.68,1.68,0,0,1-1.24-.77,1.82,1.82,0,0,1-.3-1.39,2.24,2.24,0,0,1,.77-1.24m.92,2.71a.89.89,0,0,0,.85-.23,1.38,1.38,0,0,0,.47-.78,1.32,1.32,0,0,0-.16-.92,1.11,1.11,0,0,0-.77-.47.87.87,0,0,0-.85.24,1.26,1.26,0,0,0-.46.77,1.32,1.32,0,0,0,.15.92,1.6,1.6,0,0,0,.77.47"/><path class="cls-6" d="M86.77,113.27l1-3.48,1.62.46a1.22,1.22,0,0,1,.77.54.85.85,0,0,1,.08.85,1.07,1.07,0,0,1-1,.78l.7,1.77-.85-.23-.62-1.7-.62-.15-.38,1.39Zm1.31-1.86.85.23c.31.08.54,0,.62-.31s-.08-.46-.38-.54l-.85-.23Z"/><polygon class="cls-6" points="90.56 114.35 91.94 110.95 92.64 111.26 93.03 113.03 94.57 112.03 95.27 112.34 93.88 115.66 93.18 115.43 94.11 113.11 92.95 113.88 92.56 113.73 92.18 112.34 91.25 114.58 90.56 114.35"/><path class="cls-6" d="M94.42,115.89l3.08-2.47.62.31-.38,3.94-.7-.39.08-.93-1.39-.69-.7.54Zm1.93-.62.92.54.16-1.39Z"/><polygon class="cls-6" points="100.28 114.96 102.83 116.66 102.44 117.2 101.44 116.58 99.82 119.06 99.2 118.59 100.82 116.2 99.9 115.5 100.28 114.96"/><rect class="cls-6" x="101.25" y="118.84" width="3.63" height="0.77" transform="translate(-54.36 126.53) rotate(-51.81)"/><path class="cls-6" d="M105.61,119.52a1.85,1.85,0,0,1,1.39.54,1.76,1.76,0,0,1,.62,1.31,1.7,1.7,0,0,1-.54,1.31,1.76,1.76,0,0,1-1.32.62,1.94,1.94,0,0,1-1.38-.54,1.74,1.74,0,0,1-.62-1.31,1.67,1.67,0,0,1,.54-1.31,2.28,2.28,0,0,1,1.31-.62m-.69,2.78a1.16,1.16,0,0,0,.84.31,1.25,1.25,0,0,0,.85-.39.89.89,0,0,0,.31-.85,1.06,1.06,0,0,0-.38-.77,1.17,1.17,0,0,0-.85-.31,1.34,1.34,0,0,0-1.24,1.24,1.3,1.3,0,0,0,.47.77"/><polygon class="cls-6" points="106.38 124.69 109.16 122.3 109.55 122.76 109.01 125.7 110.78 124.15 111.25 124.69 108.47 127.08 108.08 126.62 108.62 123.69 106.92 125.23 106.38 124.69"/><path class="cls-6" d="M110.55,129.32l.7-.38v.69a2.39,2.39,0,0,0,.31.7c.23.31.46.54.69.38a.37.37,0,0,0,.15-.3V130l-.07-.31-.08-.31a.27.27,0,0,0-.08-.23v-.23a.92.92,0,0,1,.08-.46,1,1,0,0,1,1.24-.47,1.34,1.34,0,0,1,.77.7,2.28,2.28,0,0,1,.38,1.15l-.61.39a2.64,2.64,0,0,0-.31-1.16c-.23-.31-.47-.46-.62-.31a.24.24,0,0,0-.08.31.45.45,0,0,0,.08.31c0,.08.08.31.08.39a1.71,1.71,0,0,1,.07.85.73.73,0,0,1-.46.69,1,1,0,0,1-.93.08,2.76,2.76,0,0,1-1.31-2.09"/><polygon class="cls-6" points="112.71 133.65 114.18 132.88 115.34 130.71 115.72 131.49 114.95 132.88 116.5 133.11 116.88 133.88 114.49 133.57 113.02 134.27 112.71 133.65"/><path class="cls-6" d="M114.18,135.89l.7-.31a1.62,1.62,0,0,0-.08.69,2.57,2.57,0,0,0,.15.78c.16.38.39.61.62.46s.23-.16.23-.31v-1.47a1.57,1.57,0,0,1,.16-.46,1.13,1.13,0,0,1,.46-.31.83.83,0,0,1,.85.08,1.88,1.88,0,0,1,.62.85,2.19,2.19,0,0,1,.15,1.23l-.69.23a2.29,2.29,0,0,0-.08-1.23c-.16-.39-.31-.54-.54-.46s-.16.15-.16.23v.69a2.89,2.89,0,0,1-.07.85.88.88,0,0,1-.54.62A1,1,0,0,1,115,138a2.61,2.61,0,0,1-.85-2.08"/><polygon class="cls-6" points="118.58 138.28 119.43 141.21 118.81 141.45 118.5 140.29 115.65 141.14 115.42 140.44 118.27 139.59 117.96 138.51 118.58 138.28"/><polygon class="cls-6" points="116.11 143.07 119.74 142.45 120.2 145.07 119.58 145.15 119.2 143.3 118.5 143.38 118.81 144.92 118.12 145.07 117.89 143.53 116.96 143.69 117.27 145.62 116.65 145.77 116.11 143.07"/><polygon class="cls-6" points="116.81 146.54 120.36 146.23 120.43 147 119.05 148.16 120.67 149.09 120.67 149.86 117.04 150.17 117.04 149.4 119.51 149.17 118.27 148.47 118.19 148.09 119.28 147.08 116.81 147.31 116.81 146.54"/><path class="cls-6" d="M117.11,152.87l3.56,1.86-.16.69-3.78,1.24.08-.78.84-.3.16-1.55-.77-.39Zm1.32,1.47-.08,1.08,1.31-.46Z"/><path class="cls-6" d="M117,157.89a1.91,1.91,0,0,1,1.46-.31,2,2,0,0,1,1.24.77,1.64,1.64,0,0,1,.23,1.47,2.1,2.1,0,0,1-.46,1l-.7-.16a1.79,1.79,0,0,0,.47-.93,1.19,1.19,0,0,0-.16-.92,1.36,1.36,0,0,0-.77-.54,1.21,1.21,0,0,0-.93.15,1.34,1.34,0,0,0-.46.77,1.26,1.26,0,0,0,.08.78l1.23.23-.15.77-1.55-.31a1.43,1.43,0,0,1-.3-.69,1.54,1.54,0,0,1,0-.85,1.71,1.71,0,0,1,.77-1.24"/><polygon class="cls-6" points="115.88 161.44 119.35 162.45 118.58 165.07 117.96 164.84 118.5 162.99 117.81 162.83 117.35 164.3 116.73 164.15 117.19 162.6 116.27 162.37 115.72 164.3 115.11 164.07 115.88 161.44"/><polygon class="cls-6" points="114.8 164.92 118.19 166.23 117.96 166.85 115.11 167.7 117.27 168.55 116.96 169.24 113.64 167.85 113.87 167.31 116.73 166.46 114.57 165.53 114.8 164.92"/><path class="cls-6" d="M113.41,169.4a1.65,1.65,0,0,1,1.47.15,1.76,1.76,0,0,1,.92,1.16,1.92,1.92,0,0,1-.15,1.46,3.18,3.18,0,0,1-.62.78l-.69-.39a1.54,1.54,0,0,0,.69-.69,1,1,0,0,0,.08-.93,1.12,1.12,0,0,0-.62-.7,1.31,1.31,0,0,0-.93-.07,1.07,1.07,0,0,0-.69.61,1.65,1.65,0,0,0-.16,1l-.69-.39a2.43,2.43,0,0,1,.23-1,1.66,1.66,0,0,1,1.16-1"/><polygon class="cls-6" points="110.78 172.95 112.17 173.87 114.64 173.8 114.1 174.49 112.56 174.57 113.1 176.03 112.64 176.73 111.79 174.49 110.4 173.56 110.78 172.95"/><path class="cls-6" d="M56.27,189.39l1.7-3.24,1.55.77c.62.31.85.77.54,1.31a.87.87,0,0,1-.77.47,1.19,1.19,0,0,1,.3.54,1.1,1.1,0,0,1-.07.69,1,1,0,0,1-.62.54,1.34,1.34,0,0,1-.93-.15Zm.93-.23.85.46c.31.16.62.16.77-.15s0-.54-.31-.7l-.85-.46Zm.77-1.39.78.39c.3.15.54.07.61-.16s0-.46-.23-.62l-.77-.38Z"/><rect class="cls-6" x="59.76" y="189.55" width="3.63" height="0.77" transform="translate(-137.43 173.61) rotate(-67.35)"/><path class="cls-6" d="M62.91,192.4,64,188.93l1.62.54a1.56,1.56,0,0,1,.77.54,1.11,1.11,0,0,1,.08.85.92.92,0,0,1-1,.69l.62,1.86-.85-.23-.54-1.7-.62-.16-.46,1.39Zm1.32-1.77.85.31c.31.07.54,0,.61-.24s-.07-.46-.38-.61l-.85-.31Z"/><polygon class="cls-6" points="67.31 193.79 68.09 190.16 68.7 190.32 70.02 192.94 70.48 190.71 71.18 190.86 70.48 194.41 69.86 194.26 68.55 191.63 68.09 193.87 67.31 193.79"/><rect class="cls-6" x="71.01" y="192.46" width="3.63" height="0.77" transform="translate(-127.1 243.06) rotate(-83.41)"/><polygon class="cls-6" points="74.73 194.87 74.88 191.25 75.5 191.25 77.28 193.64 77.35 191.32 78.05 191.32 77.97 194.95 77.35 194.95 75.58 192.56 75.5 194.87 74.73 194.87"/><polygon class="cls-6" points="82.06 194.72 81.6 191.17 82.29 191.01 82.53 192.48 83.68 190.86 84.53 190.71 83.22 192.56 85.31 194.33 84.38 194.41 82.6 192.94 82.83 194.64 82.06 194.72"/><polygon class="cls-6" points="86.54 194.03 85.77 190.47 88.32 189.85 88.47 190.55 86.62 191.01 86.77 191.63 88.32 191.32 88.47 191.94 86.93 192.33 87.16 193.18 89.09 192.71 89.24 193.41 86.54 194.03"/><path class="cls-6" d="M90.63,192.94l-1.23-3.39L91,189c.62-.24,1.16-.08,1.31.46a.8.8,0,0,1-.15.85.93.93,0,0,1,.61.15c.24.08.31.31.39.54a1.06,1.06,0,0,1-.08.85,1.14,1.14,0,0,1-.77.54Zm0-2.31.77-.31a.39.39,0,0,0,.31-.54c-.07-.23-.31-.31-.61-.23l-.78.31Zm.47,1.46.84-.3c.31-.16.47-.39.39-.62s-.39-.39-.69-.23l-.85.31Z"/><path class="cls-6" d="M95,191.4l-1.55-3.32,1.55-.77a1,1,0,0,1,1.39.31.85.85,0,0,1-.08.85.9.9,0,0,1,.62.07.7.7,0,0,1,.46.47.86.86,0,0,1,0,.85,1.4,1.4,0,0,1-.7.61ZM94.65,189l.77-.39c.31-.15.39-.31.31-.54s-.31-.31-.62-.15l-.77.38Zm.69,1.46.85-.38c.31-.16.46-.39.31-.7s-.39-.31-.77-.15l-.85.38Z"/><rect class="cls-6" x="98.21" y="185.66" width="0.77" height="3.63" transform="translate(-81.11 75.35) rotate(-30.3)"/></svg>