<svg id="Layer_1" data-name="Layer 1" xmlns="http://www.w3.org/2000/svg" viewBox="0 0 377.27 330.68"><defs><style>.cls-1{fill:#f28b0f;}</style></defs><path d="M24.2,159.29H34.68L39,180.43l4.46-21.14H53.94l3.35,33.64h-7.4L47.64,172.3l-4.28,20.63h-8.5L30.4,172.3l-2,20.63H20.94Z"/><path d="M69.79,168.35c7.54,0,10.67.87,10.67,9,0,4.69-2.58,6.34-7,6.34h-6.8c0,3.91,1.84,3.72,5.33,3.72a38.77,38.77,0,0,0,8-.5v5c-3.31,1.38-9,1.28-12.87,1.28-6.16,0-8-3.81-8-12.54C59.13,170.28,62,168.35,69.79,168.35Zm1.43,10.2a1.54,1.54,0,0,0,1.7-1.66c0-2.43-.23-3.07-2.67-3.07-2.76,0-3.67.27-3.58,4.73Z"/><path d="M82.29,170,86,168.48l1.19-6.8h6.34v6.8h4.88V174H93.55v8.87c0,3.45.74,4.14,1.93,4.69,0,0,2.39.92,2.67.92v4.5H92c-3.63,0-6-2.25-6-8.73V174H82.29Z"/><path d="M100.49,184.43c0-3.49,1.8-6.89,7.54-6.89,0,0,6.07,0,6.07,0a8.5,8.5,0,0,0,0-1c0-2.53-1.1-2.71-3.08-2.71-1.7,0-8.6.41-9.7.5v-4.55c3.22-1.33,6.3-1.7,10.85-1.7,5.79,0,9.47,1.7,9.47,8.13v16.73h-6l-1.56-2.57c-.32.69-2.85,2.94-6.39,2.85-5.19-.18-7.22-3.77-7.22-6.66Zm9.7,3a5.71,5.71,0,0,0,3.91-1.75V182l-4.32.37c-1.61.14-1.75,1.38-1.75,2.3v.78C108,187.37,109.14,187.42,110.19,187.42Z"/><path d="M125,157h7.54v25.92c0,3.35.83,4.09,1.93,4.6a23.25,23.25,0,0,0,2.76,1v4.5h-5.79c-4.14,0-6.44-2.2-6.44-8.68Z"/><path d="M140.07,166.78c0-5.83,4.18-7.58,7.86-7.49,0,0,10.89.19,14.89.74v6.29H150c-2.39,0-2.39,1.34-2.39,2.58v3.81l13.06.46v6.25l-13.06.42v13.09h-7.53Z"/><path d="M165.39,160.4c0-.74.37-1.2,1.1-1.2h5.7c.74,0,1.06.55,1.06,1.2V165a1,1,0,0,1-1.06,1.05h-5.7a1,1,0,0,1-1.1-1.05Zm.14,8.13h7.54v24.4h-7.54Z"/><path d="M176.6,168.53h6.21l1.33,2.53c1.84-1.47,3.59-2.94,7.31-2.94,6,0,7.22,3.95,7.22,8.82v16h-7.54V176.85c0-2.21-.83-2.94-2.21-2.94a6,6,0,0,0-4.78,1.93v17.09H176.6Z"/><path d="M209.6,168.16a17,17,0,0,1,6.81,1.52V156.86h7.53v36.07H217.6l-1.19-2.39a10.66,10.66,0,0,1-6.81,2.67c-5.74,0-7.9-4-7.9-12.36S202.89,168.16,209.6,168.16Zm2.3,18.8a7,7,0,0,0,4.51-1.29v-11a10.11,10.11,0,0,0-4.51-.82c-1.7,0-2.66.91-2.66,6.7C209.24,185.76,210.16,187,211.9,187Z"/><path d="M238,168.35c7.54,0,10.66.87,10.66,9,0,4.69-2.57,6.34-7,6.34h-6.8c0,3.91,1.83,3.72,5.33,3.72a38.63,38.63,0,0,0,8-.5v5c-3.3,1.38-9,1.28-12.86,1.28-6.16,0-8-3.81-8-12.54C227.3,170.28,230.15,168.35,238,168.35Zm1.43,10.2a1.54,1.54,0,0,0,1.7-1.66c0-2.43-.23-3.07-2.67-3.07-2.76,0-3.68.27-3.58,4.73Z"/><path d="M251.7,168.53h6.53l1,3.08a8.12,8.12,0,0,1,6.25-3.31,6.73,6.73,0,0,1,2.48.28v7.21c-.69,0-2.16,0-3.58,0-2.3,0-4.23.23-5.15,2.71v14.47H251.7Z"/><path class="cls-1" d="M23.48,210.16l-2.06,6.16H19.59l6.24-18.13a.72.72,0,0,1,.7-.52h2a.72.72,0,0,1,.7.52l6.24,18.13H33.67l-2.06-6.16Zm4.94-9.57c-.16-.51-.35-1-.48-1.51h-.76l-.51,1.51-2.68,8H31.1Z"/><path class="cls-1" d="M73.9,199.16a1.75,1.75,0,0,0-2,2v4.78h8.11v1.44H72v9H70.17V200.81a3,3,0,0,1,3.3-3.16c2.59,0,5.27,0,7.75.16l-.11,1.35Z"/><path class="cls-1" d="M127.45,216.32l-1.78-5.87c-.54-1.54-1.38-2.13-2.68-2.13-2,0-3.54,0-4.62,0v8h-1.75V197.67a57.86,57.86,0,0,1,6.24-.21c4.19,0,5.81,1.13,5.81,5.32,0,3.13-1,4.51-3.43,4.86v.11a3.55,3.55,0,0,1,2.21,2.65l1.89,5.92Zm-4.59-9.54c3,0,4-.87,4-3.92s-1-3.89-4-3.89c-1.84,0-3.41,0-4.49.05v7.76Z"/><path class="cls-1" d="M166.17,216.32V197.67h1.76v18.65Z"/><path class="cls-1" d="M216.62,216.07a19.1,19.1,0,0,1-5.35.57c-5.27,0-7.14-2.54-7.14-9.65s1.87-9.64,7.14-9.64a18,18,0,0,1,5,.51l-.22,1.33a34.38,34.38,0,0,0-4.75-.25c-4,0-5.3,2-5.3,8.05s1.35,8.06,5.3,8.06a32.75,32.75,0,0,0,5.13-.3Z"/><path class="cls-1" d="M251.61,210.16l-2.06,6.16h-1.83L254,198.19a.72.72,0,0,1,.7-.52h2a.72.72,0,0,1,.7.52l6.24,18.13H261.8l-2.06-6.16Zm4.94-9.57c-.16-.51-.35-1-.48-1.51h-.76l-.51,1.51-2.68,8h7.11Z"/><g id="SFLgMd.tif"><path class="cls-1" d="M238.58,117.08c33.5.92,60.4,14.67,80.16,41.81,10.3,14.16,15.8,30.26,17.4,47.68.06.64.46,1.45-.48,1.86s-1.6,0-1.75-1.34c-.4-3.53-.82-7.05-1.52-10.54a95.93,95.93,0,0,0-77.17-75.67,91.06,91.06,0,0,0-24.62-1.18c-.82.08-2.16.79-2.37-.86-.25-1.91,1.39-1.21,2.23-1.35C233.13,117,235.84,117.25,238.58,117.08Z"/><path class="cls-1" d="M313.66,213.79A78.69,78.69,0,0,1,310.14,238l-.33,1c-.21.66-.49,1.16-1.37.88a1.08,1.08,0,0,1-.82-1.59,63.83,63.83,0,0,0,2.5-9.69c4.05-25.15-2.57-47-20.52-65.19-10.59-10.73-23.49-17.22-38.3-20-.81-.15-2.31.24-2-1.47s1.59-.89,2.43-.73A73.81,73.81,0,0,1,290.47,161C305.81,175.79,313.32,194.05,313.66,213.79Z"/><path class="cls-1" d="M318.24,215.16A79.46,79.46,0,0,1,315,237.81c-.17.56-.1,1.35-1,1.48s-1.65-.63-1.32-1.78a71.65,71.65,0,0,0,2.07-8.92q5.92-39.15-21.34-67.88A75.64,75.64,0,0,0,271.28,145a7.73,7.73,0,0,1-.95-.49c-.64-.44-.34-1-.11-1.5a.79.79,0,0,1,1.2-.46c1.54.74,3.12,1.39,4.6,2.23q38.81,22.13,42.05,66.68C318.17,212.85,318.2,214.2,318.24,215.16Z"/><path class="cls-1" d="M238.16,144.61c34.66.33,63.2,24.24,69.67,57.91.17.91.31,1.82.49,2.73.16.74,0,1.22-.86,1.36s-1.22-.1-1.35-.91c-.19-1.12-.39-2.24-.63-3.35-5.51-25.46-20.6-42.69-44.93-51.73-10.09-3.75-20.62-4.45-31.3-3.16-.83.11-2.11.94-2.35-.76s1.17-1.27,2-1.43A78.63,78.63,0,0,1,238.16,144.61Z"/><path class="cls-1" d="M239.58,112.59a102.64,102.64,0,0,1,48.52,12.76,104,104,0,0,1,36.45,34c.45.69,1.21,1.37,0,2.1-.57.34-1.05.43-1.48-.16s-.74-1-1.1-1.57a99.21,99.21,0,0,0-45.4-37.35,95.67,95.67,0,0,0-26.09-6.78,86.14,86.14,0,0,0-16.37-.61c-.8.06-1.2-.18-1.27-1s.24-1.35,1.18-1.34C235.89,112.6,237.74,112.59,239.58,112.59Z"/><path class="cls-1" d="M237.8,126.21a89,89,0,0,1,69.88,33.24c.4.5,1.2.94.57,1.8s-1.31.88-2.2-.17c-2.41-2.8-4.82-5.6-7.49-8.15A85.54,85.54,0,0,0,251,129.55a91.65,91.65,0,0,0-22.93-.34c-.35,0-.71,0-1.06.11-.89.16-1.32-.2-1.4-1.11s.42-1.07,1.14-1.18C230.06,126.53,233.4,126.43,237.8,126.21Z"/><path class="cls-1" d="M322.81,214.69a83.83,83.83,0,0,1-2.65,21.48c-.08.28-.15.55-.23.82-.23.74-.76.69-1.37.56a.87.87,0,0,1-.77-1.23c.09-.41.19-.83.29-1.24q8.34-35.88-12.15-66.48A80.08,80.08,0,0,0,296.25,157c-.4-.41-.8-.81-1.22-1.19-.63-.55-.83-1.06-.16-1.78s1.16-.45,1.75.12a81.66,81.66,0,0,1,11.2,13.08C317.53,181.4,322.39,197.12,322.81,214.69Z"/><path class="cls-1" d="M304.48,217.56A63.72,63.72,0,0,1,301.13,236c-.18.54-.38,1.07-.56,1.61-.29.82-.87.81-1.55.55s-.8-.7-.58-1.35a57,57,0,0,0,2.32-8.19c4.5-24.58-2.47-45.27-21.09-62-.47-.42-1.1-.71-1.34-1.33s.28-.91.59-1.26c.56-.62,1-.16,1.46.2a61.75,61.75,0,0,1,6.94,6.59C298.52,183.19,304.58,199,304.48,217.56Z"/><path class="cls-1" d="M343.16,191.93a.86.86,0,0,1-.74,1.17c-.58.12-1.17.2-1.41-.54s-.38-1.37-.55-2.05A104.34,104.34,0,0,0,320.74,150a105.7,105.7,0,0,0-20.22-19.42c-.63-.47-1.25-1-1.9-1.37s-.72-.94-.27-1.6.9-.84,1.57-.31,1.27.92,1.89,1.38q31.85,23.57,41.1,62.08C343,191.21,343.1,191.63,343.16,191.93Z"/><path class="cls-1" d="M300.19,145.32c0,.44-.37.72-.66,1a.77.77,0,0,1-1.13.07c-.34-.26-.67-.53-1-.8a90.9,90.9,0,0,0-47.46-20.9,84.26,84.26,0,0,0-19.76-.37c-.63.07-1.27.09-1.91.16-.79.09-1.38,0-1.52-1s.49-1.13,1.26-1.22a83.89,83.89,0,0,1,9.77-.62,95.11,95.11,0,0,1,36.52,7.19,91.19,91.19,0,0,1,24.77,15.19C299.94,144.79,300.16,145.05,300.19,145.32Z"/><path class="cls-1" d="M331.89,213.3c0,2.13.05,4.26,0,6.39,0,.88.35,2.21-1.31,2.11s-1-1.33-.93-2.12a96.59,96.59,0,0,0-2.15-24.34,90.12,90.12,0,0,0-21.29-41.17c-.43-.48-.85-1-1.3-1.42s-.44-1.09.11-1.63,1.08-.52,1.6.09c1.94,2.26,4,4.44,5.81,6.8A92.42,92.42,0,0,1,331.89,213.3Z"/><path class="cls-1" d="M342.71,174.75c.17.78-.32.94-.79,1.13s-1,.21-1.28-.34-.42-.9-.61-1.36a109.32,109.32,0,0,0-47.75-54.4c-.53-.3-1.3-.44-1.38-1.19a1.49,1.49,0,0,1,.7-1.26c.52-.37.94.06,1.35.29a108.9,108.9,0,0,1,15.7,10.61,112,112,0,0,1,33.54,45.23C342.38,173.92,342.56,174.38,342.71,174.75Z"/><path class="cls-1" d="M311.64,125a1.3,1.3,0,0,1-2,1c-1.44-1-2.81-2.17-4.25-3.21a112.92,112.92,0,0,0-48.66-20.29,78,78,0,0,0-9.51-1.09c-.57,0-1.13-.12-1.7-.16-.79-.06-1.11-.46-1.05-1.26s.52-1.08,1.27-1c3,.3,5.95.49,8.9.91a115,115,0,0,1,49,18.92c2.41,1.64,4.72,3.42,7.06,5.15C311.09,124.25,311.59,124.47,311.64,125Z"/><path class="cls-1" d="M238.37,130.84a83.35,83.35,0,0,1,50.09,16.48l1,.77c.61.43.55.91.12,1.43s-.77.89-1.42.44-1.05-.73-1.57-1.1a81.35,81.35,0,0,0-33.35-14.35,86.14,86.14,0,0,0-26.72-.5,6.21,6.21,0,0,0-.84.16c-.86.19-1.32-.12-1.49-1s.33-1.16,1-1.27c1.26-.21,2.52-.45,3.79-.56C232.13,131.08,235.24,130.77,238.37,130.84Z"/><path class="cls-1" d="M299.88,213.67a62.56,62.56,0,0,1-2.3,18.21c-.18.6-.06,1.53-1.14,1.5s-1.46-.54-1.09-1.9a59.15,59.15,0,0,0,2-10.46q2.24-26.88-16.09-46.67c-.34-.36-.7-.7-1-1.07-.55-.62-.07-1,.33-1.43s.83-.54,1.29-.08c.64.65,1.31,1.29,1.93,2C294.22,185.29,299.75,199.42,299.88,213.67Z"/><path class="cls-1" d="M310.54,118.26a2.54,2.54,0,0,1,1.31.73,114.74,114.74,0,0,1,10.65,9.16,121.09,121.09,0,0,1,26.66,38.18c.2.46.4.91.58,1.38s-.07.93-.59,1.16-1.1.38-1.46-.29c-.23-.44-.43-.9-.63-1.35A119.16,119.16,0,0,0,310.71,121c-1.49-1.15-1.61-1.61-.66-2.41A4.22,4.22,0,0,1,310.54,118.26Z"/><path class="cls-1" d="M327.4,214.82a86.09,86.09,0,0,1-.87,12.73c-.11.75.13,1.89-1.27,1.73s-1.11-1.19-1-2.1a86.88,86.88,0,0,0-11.17-56,4.68,4.68,0,0,1-.68-1.31c-.15-.71.5-.94,1-1.2.74-.38,1,.23,1.3.71a87.28,87.28,0,0,1,5.59,11A89,89,0,0,1,327.4,214.82Z"/><path class="cls-1" d="M292.94,123.2a2.57,2.57,0,0,1-.7,1.32c-.5.49-.93,0-1.34-.18a104.79,104.79,0,0,0-11.62-5.79,102,102,0,0,0-37.64-8.19c-1,0-2-.09-3-.11s-1.26-.5-1.2-1.37.7-.95,1.37-.92c3.19.14,6.4.16,9.58.47a108,108,0,0,1,43.12,13.64C292.05,122.37,292.76,122.48,292.94,123.2Z"/><path class="cls-1" d="M250.79,94.85a119.46,119.46,0,0,1,51.52,17.66c.56.36,1.64.47,1,1.66s-1.37.8-2.22.26a112.69,112.69,0,0,0-18.95-9.59,116.58,116.58,0,0,0-30.43-7.6c-.5,0-1-.1-1.48-.17-.79-.11-1.06-.56-.94-1.35S249.91,94.66,250.79,94.85Z"/><path class="cls-1" d="M324.45,117.75a4,4,0,0,1,1.33,1,130.11,130.11,0,0,1,27.09,34.5c1.29,2.37,2.46,4.8,3.68,7.21.33.65.69,1.27-.28,1.77s-1.41,0-1.79-.78a132.25,132.25,0,0,0-7.42-13.65,128.2,128.2,0,0,0-22.54-27.09l-1.1-1a.78.78,0,0,1-.15-1.12C323.56,118.18,324.11,117.73,324.45,117.75Z"/><path class="cls-1" d="M275,160.63a1.26,1.26,0,0,1-1.84,1.14c-1.49-.83-2.9-1.8-4.4-2.6a63.94,63.94,0,0,0-37.22-7.34l-.64.08c-.69.09-1.26.05-1.4-.84s.24-1.3,1.1-1.42a53,53,0,0,1,7.86-.46,65.71,65.71,0,0,1,35.1,10.18C274.14,159.73,275,159.88,275,160.63Z"/><path class="cls-1" d="M320,132.57c.65.07,1,.67,1.42,1.11a112.81,112.81,0,0,1,13.59,16.62,117.9,117.9,0,0,1,10.4,19c.17.39.34.78.48,1.18.21.61-.16.91-.65,1.13s-1,.34-1.33-.19a13.66,13.66,0,0,1-.83-1.72,112.12,112.12,0,0,0-22.93-34.08,10.54,10.54,0,0,1-1.16-1.25A1.26,1.26,0,0,1,320,132.57Z"/><path class="cls-1" d="M330,129.53c-.09.54-.52.82-.9,1.12a.69.69,0,0,1-1-.08,10.57,10.57,0,0,1-.77-.73,123.64,123.64,0,0,0-29.63-22.72c-.6-.33-1.6-.46-1.06-1.66s1.09-1,2-.48a137.89,137.89,0,0,1,12.44,7.8,126.17,126.17,0,0,1,17.87,15.42C329.32,128.6,329.83,128.92,330,129.53Z"/><path class="cls-1" d="M244.58,103.49a113.77,113.77,0,0,1,35.35,7.86c1.3.51,1.47,1.06.82,2-.54.79-1.11.34-1.67.11a110,110,0,0,0-36.21-7.73c-.28,0-.57,0-.85,0-.83,0-1.1-.46-1.07-1.23s.4-1,1.08-1C242.88,103.5,243.73,103.49,244.58,103.49Z"/><path class="cls-1" d="M261.87,139.69c-.07,1-.66,1.46-1.74,1.15-2.66-.75-5.36-1.37-8.08-1.86a78.69,78.69,0,0,0-25.85-.29l-1,.18c-.82.15-1.13-.26-1.3-1s.23-1.19,1-1.3c1.9-.28,3.79-.62,5.69-.78a79.56,79.56,0,0,1,29.92,2.73C261,138.7,261.9,138.68,261.87,139.69Z"/><path class="cls-1" d="M340.42,203c0,.27-.11.74-.88.8s-1.3,0-1.42-.85c0-.28-.11-.56-.14-.84a99.52,99.52,0,0,0-10.31-32.95c-.22-.44-.58-.86-.46-1.38s.66-.72,1.13-.87c.62-.19.89.29,1.11.74,1.09,2.24,2.24,4.44,3.23,6.72A102.28,102.28,0,0,1,340.29,202C340.32,202.22,340.34,202.43,340.42,203Z"/><path class="cls-1" d="M307,99.18c.39.23.88.5,1.36.8A133.4,133.4,0,0,1,335,121.26c.43.44,1.41.76.89,1.65-.4.67-1.89.58-2.58-.11-3.47-3.46-7-6.8-10.81-9.92a141.36,141.36,0,0,0-15.8-11.14c-1.29-.8-1.42-1.38-.59-2.25A.76.76,0,0,1,307,99.18Z"/><path class="cls-1" d="M295.32,215.5a55.07,55.07,0,0,1-1,10.42c-.15.73-.23,1.41-1.28,1.26s-1.12-.83-.95-1.71a54.59,54.59,0,0,0,.19-19.29,53.9,53.9,0,0,0-4.52-14.39c-.26-.54-.82-1.07-.39-1.76.58-.93,1.68-.77,2.24.38a55.46,55.46,0,0,1,5,15.78A63.1,63.1,0,0,1,295.32,215.5Z"/><path class="cls-1" d="M353.45,164.78c.12.62-.23.84-.64,1s-1,.42-1.33-.11a9.77,9.77,0,0,1-.79-1.5,123.47,123.47,0,0,0-16-26c-.18-.22-.34-.45-.53-.66-.55-.61-.44-1.11.17-1.61a1,1,0,0,1,1.62.17c1.43,1.85,2.92,3.66,4.29,5.55A122.85,122.85,0,0,1,353,163.68Z"/><path class="cls-1" d="M309.08,219.05A73,73,0,0,1,305,238.77c-.21.57-.22,1.33-.95,1.55a1.57,1.57,0,0,1-1.35-.47c-.49-.4-.18-.92,0-1.37a69.73,69.73,0,0,0,3.2-12.32,70.66,70.66,0,0,0,.86-9.3c0-.75-.12-1.63,1.11-1.62.74,0,1.23.18,1.21,1S309.08,218.13,309.08,219.05Z"/><path class="cls-1" d="M237.81,156c-.8,0-2.22.09-3.63.19-.88.06-1.58,0-1.6-1.16s.74-1,1.46-1.1a59.91,59.91,0,0,1,20,1.86c1.23.34,2.46.71,3.68,1.08.64.19,1.22.4.92,1.31a1.13,1.13,0,0,1-1.62.84c-2-.61-3.94-1.19-5.95-1.63A64.94,64.94,0,0,0,237.81,156Z"/><path class="cls-1" d="M318.7,113.13a2.13,2.13,0,0,1-.81,1.18c-.64.5-1.05-.1-1.46-.42A116.07,116.07,0,0,0,303.27,105c-.42-.26-.84-.53-1.27-.76-.71-.37-.85-.82-.42-1.53s.82-.83,1.54-.41a131,131,0,0,1,15,10C318.37,112.51,318.67,112.71,318.7,113.13Z"/><path class="cls-1" d="M283.67,98.22c.09,1.39-.69,2-1.78,1.54-3.63-1.44-7.38-2.47-11.11-3.58-1.56-.46-3.16-.78-4.74-1.19-.64-.16-1.2-.36-1-1.28s.69-1,1.54-.83a149.14,149.14,0,0,1,16.08,4.77C283.16,97.82,283.61,98,283.67,98.22Z"/><path class="cls-1" d="M290.52,211c0,.28,0,.56.07.84.05.69,0,1.27-.91,1.34s-1.32-.19-1.37-1.12a47.28,47.28,0,0,0-2.86-13.86c-.26-.72-.14-1.22.64-1.51s1.27.09,1.55.88A50.65,50.65,0,0,1,290.52,211Z"/><path class="cls-1" d="M353.2,145.41c.52,0,.73.36.95.72,2.08,3.46,4,7,5.76,10.66.33.69.29,1.18-.48,1.54a1,1,0,0,1-1.56-.53q-2.69-5.43-5.75-10.66A1.17,1.17,0,0,1,353.2,145.41Z"/><path class="cls-1" d="M225.78,143.38c-.89.14-1.07-.47-1.2-1.13s.28-1,.91-1.13a65.11,65.11,0,0,1,11.65-1c.71,0,1.26.19,1.24,1.07,0,.67-.22,1.13-.95,1.14A78.49,78.49,0,0,0,225.78,143.38Z"/><path class="cls-1" d="M331.77,114.57c-.49,0-.76-.39-1.06-.66-2.63-2.38-5.3-4.69-8.12-6.83a1.31,1.31,0,0,1-.45-2c.34-.72.59-.85,1.21-.37,3,2.33,5.94,4.8,8.79,7.35.64.56.49,1.07.18,1.67C332.17,114.08,332.21,114.5,331.77,114.57Z"/><path class="cls-1" d="M358.41,145.36c.53-.08.78.28,1,.66,1.16,2.11,2.29,4.24,3.44,6.36.4.72.17,1.18-.54,1.53s-1.16.08-1.52-.6c-1.1-2.07-2.26-4.1-3.34-6.17A1.15,1.15,0,0,1,358.41,145.36Z"/><path class="cls-1" d="M281.06,94.61l-1.68-.55c-1.55-.5-3.09-1-4.65-1.49-.64-.2-.94-.54-.72-1.25s.52-1.19,1.34-.92q3.22,1,6.45,2.11c.64.22.57.73.38,1.22S281.87,94.72,281.06,94.61Z"/></g></svg>