<svg id="Layer_1" data-name="Layer 1" xmlns="http://www.w3.org/2000/svg" xmlns:xlink="http://www.w3.org/1999/xlink" viewBox="0 0 377.27 330.68"><defs><style>.cls-1{fill:none;}.cls-2{fill:#1d1d1b;}.cls-3{clip-path:url(#clip-path);}.cls-4{fill:#009540;}</style><clipPath id="clip-path"><rect id="SVGID" class="cls-1" x="-14.23" y="15.02" width="409.29" height="268.87"/></clipPath></defs><polygon class="cls-2" points="35.3 245.97 35.24 235.16 30 243.96 27.43 243.96 22.22 235.46 22.22 245.97 16.89 245.97 16.89 225.59 21.64 225.59 28.8 237.35 35.79 225.59 40.54 225.59 40.59 245.97 35.3 245.97"/><rect class="cls-2" x="44.67" y="225.58" width="5.77" height="20.38"/><polygon class="cls-2" points="73.94 225.58 73.94 245.97 69.19 245.97 60.2 235.11 60.2 245.97 54.55 245.97 54.55 225.58 59.3 225.58 68.29 236.45 68.29 225.58 73.94 225.58"/><rect class="cls-2" x="78.02" y="225.58" width="5.77" height="20.38"/><g class="cls-3"><path class="cls-2" d="M86.47,244.13l1.89-4.25a12.79,12.79,0,0,0,6.73,2c2.38,0,3.31-.67,3.31-1.66,0-3.23-11.58-.87-11.58-8.44,0-3.64,3-6.61,9-6.61a15.33,15.33,0,0,1,7.4,1.77l-1.78,4.28a12.13,12.13,0,0,0-5.65-1.57c-2.41,0-3.29.82-3.29,1.84,0,3.11,11.56.78,11.56,8.29,0,3.56-3,6.58-9,6.58a16,16,0,0,1-8.59-2.24"/><polygon class="cls-2" points="110.78 230.16 104.52 230.16 104.52 225.59 122.78 225.59 122.78 230.16 116.55 230.16 116.55 245.97 110.78 245.97 110.78 230.16"/><path class="cls-2" d="M133.85,240.55H130.7V246h-5.76V225.58h9.31c5.57,0,9.06,2.89,9.06,7.55a6.74,6.74,0,0,1-4,6.43l4.4,6.41h-6.17Zm.06-10.42H130.7v6h3.21c2.38,0,3.58-1.11,3.58-3s-1.2-3-3.58-3"/><polygon class="cls-2" points="157.12 238.66 157.12 245.97 151.35 245.97 151.35 238.57 143.58 225.58 149.66 225.58 154.5 233.68 159.33 225.58 164.92 225.58 157.12 238.66"/><path class="cls-2" d="M173.8,235.78c0-6.12,4.81-10.6,11.33-10.6s11.33,4.48,11.33,10.6-4.81,10.6-11.33,10.6-11.33-4.49-11.33-10.6m16.83,0c0-3.53-2.41-5.83-5.5-5.83s-5.5,2.3-5.5,5.83a5.51,5.51,0,1,0,11,0"/><polygon class="cls-2" points="205.25 230.04 205.25 234.52 214.25 234.52 214.25 238.98 205.25 238.98 205.25 245.97 199.49 245.97 199.49 225.58 215.47 225.58 215.47 230.04 205.25 230.04"/><polygon class="cls-2" points="232.43 230.04 232.43 234.52 241.42 234.52 241.42 238.98 232.43 238.98 232.43 245.97 226.66 245.97 226.66 225.58 242.65 225.58 242.65 230.04 232.43 230.04"/><rect class="cls-2" x="245.36" y="225.58" width="5.77" height="20.38"/><polygon class="cls-2" points="274.62 225.58 274.62 245.97 269.88 245.97 260.88 235.11 260.88 245.97 255.23 245.97 255.23 225.58 259.98 225.58 268.97 236.45 268.97 225.58 274.62 225.58"/><path class="cls-2" d="M292.36,242h-8.62l-1.6,4h-5.88l9-20.39h5.68L300,246h-6Zm-1.69-4.25-2.62-6.53-2.62,6.53Z"/><polygon class="cls-2" points="320.98 225.58 320.98 245.97 316.24 245.97 307.24 235.11 307.24 245.97 301.59 245.97 301.59 225.58 306.34 225.58 315.34 236.45 315.34 225.58 320.98 225.58"/><path class="cls-2" d="M324,235.78c0-6.21,4.74-10.6,11.21-10.6A10.79,10.79,0,0,1,344,229l-3.67,3.32a6,6,0,0,0-4.8-2.39,5.83,5.83,0,0,0,0,11.65,6,6,0,0,0,4.8-2.39l3.67,3.32a10.8,10.8,0,0,1-8.76,3.85c-6.47,0-11.21-4.4-11.21-10.6"/><polygon class="cls-2" points="362.92 241.51 362.92 245.97 346.56 245.97 346.56 225.59 362.54 225.59 362.54 230.04 352.26 230.04 352.26 233.47 361.32 233.47 361.32 237.78 352.26 237.78 352.26 241.51 362.92 241.51"/><path class="cls-4" d="M85,269.32l.45-.73a6.39,6.39,0,0,0,4.44,1.69c2.7,0,3.89-1.17,3.89-2.64,0-4-8.41-1.61-8.41-6.58,0-1.9,1.46-3.58,4.77-3.58a7.23,7.23,0,0,1,4.06,1.21l-.36.79a6.68,6.68,0,0,0-3.7-1.13c-2.62,0-3.79,1.21-3.79,2.69,0,4,8.41,1.66,8.41,6.55,0,1.9-1.52,3.55-4.85,3.55A7,7,0,0,1,85,269.32"/><path class="cls-4" d="M102.56,264.31a7,7,0,1,1,7,6.83,6.74,6.74,0,0,1-7-6.83m13,0a6,6,0,1,0-6,5.93,5.82,5.82,0,0,0,6-5.93"/><polygon class="cls-4" points="129.75 264.41 126.72 267.51 126.72 271.05 125.74 271.05 125.74 257.58 126.72 257.58 126.72 266.24 135.13 257.58 136.33 257.58 130.4 263.7 136.73 271.05 135.54 271.05 129.75 264.41"/><path class="cls-4" d="M143.27,264.31a7,7,0,1,1,7,6.83,6.74,6.74,0,0,1-7-6.83m13,0a6,6,0,1,0-6,5.93,5.82,5.82,0,0,0,6-5.93"/><polygon class="cls-4" points="168.84 258.46 163.99 258.46 163.99 257.58 174.67 257.58 174.67 258.46 169.82 258.46 169.82 271.05 168.84 271.05 168.84 258.46"/><path class="cls-4" d="M181.39,264.31a7,7,0,1,1,7,6.83,6.74,6.74,0,0,1-7-6.83m13,0a6,6,0,1,0-6,5.93,5.81,5.81,0,0,0,6-5.93"/><path class="cls-4" d="M213.92,269.32l.44-.73a6.44,6.44,0,0,0,4.45,1.69c2.69,0,3.89-1.17,3.89-2.64,0-4-8.41-1.61-8.41-6.58,0-1.9,1.46-3.58,4.77-3.58a7.23,7.23,0,0,1,4.06,1.21l-.37.79a6.62,6.62,0,0,0-3.69-1.13c-2.62,0-3.79,1.21-3.79,2.69,0,4,8.41,1.66,8.41,6.55,0,1.9-1.52,3.55-4.85,3.55a6.94,6.94,0,0,1-4.91-1.82"/><polygon class="cls-4" points="235.16 258.46 230.31 258.46 230.31 257.58 240.99 257.58 240.99 258.46 236.15 258.46 236.15 271.05 235.16 271.05 235.16 258.46"/><path class="cls-4" d="M256.85,267.26H249l-1.72,3.79h-1.06l6.2-13.47h1l6.2,13.47h-1.06Zm-.37-.83-3.54-7.77-3.52,7.77Z"/><polygon class="cls-4" points="269.76 258.46 264.91 258.46 264.91 257.58 275.59 257.58 275.59 258.46 270.74 258.46 270.74 271.05 269.76 271.05 269.76 258.46"/><polygon class="cls-4" points="293.07 270.16 293.07 271.05 283.78 271.05 283.78 257.58 292.79 257.58 292.79 258.46 284.76 258.46 284.76 263.78 291.94 263.78 291.94 264.64 284.76 264.64 284.76 270.16 293.07 270.16"/><polygon class="cls-4" points="125.65 132.23 125.65 212.73 113.31 212.73 114.61 198.04 120.37 132.23 125.65 132.23"/><rect class="cls-4" x="136.82" y="132.22" width="12.34" height="80.5"/><polygon class="cls-4" points="172.08 212.72 159.74 212.72 164.44 44.08 172.08 44.08 172.08 212.72"/><path class="cls-4" d="M195.79,44.09V79.38c-3.31-4.87-8.77-4.9-12.34-.14V44.09Z"/><polygon class="cls-4" points="114.61 207.45 113.31 212.73 16.87 212.73 16.87 207.45 114.61 207.45"/><polygon class="cls-4" points="265.79 212.73 253.45 212.73 253.45 132.23 258.71 132.23 264.49 198.04 265.79 212.73"/><rect class="cls-4" x="229.93" y="132.22" width="12.34" height="80.5"/><polygon class="cls-4" points="207.01 212.72 219.35 212.72 214.65 44.08 207.01 44.08 207.01 212.72"/><polygon class="cls-4" points="362.23 207.45 362.23 212.73 265.79 212.73 264.49 207.45 362.23 207.45"/></g></svg>