<svg id="Layer_1" data-name="Layer 1" xmlns="http://www.w3.org/2000/svg" viewBox="0 0 377.27 330.68"><defs><style>.cls-1{fill:#ffc403;}</style></defs><path class="cls-1" d="M47.43,54.72H268.66V276H47.43Z"/><path d="M145.77,152.28v25.25h-6.91V163.37l-4.61,6.83h-3.62l-5.07-6.83v14.16h-6.31V152.28h6.37l7.28,9.9,6.53-9.9Zm2,5.72v-5.72h23.58V158h-8.26v19.53h-7V158Zm49.56-5.72v25.25h-5.8L179.66,163.1v14.43h-6.32V152.28h6.29L191,166.2V152.28Z"/><path d="M158.05,203.92c-20.4,0-39.64-3.8-54.15-10.74-15.19-7.25-23.56-17.13-23.56-27.84s8.37-20.59,23.56-27.84c14.51-6.94,33.75-10.74,54.15-10.74s39.63,3.8,54.15,10.74c15.18,7.25,23.55,17.13,23.55,27.84s-8.37,20.59-23.55,27.84C197.68,200.12,178.44,203.92,158.05,203.92Zm0-71.47c-19.59,0-37.94,3.62-51.7,10.2C93.27,148.91,86,157,86,165.37s7.2,16.45,20.31,22.69c13.76,6.58,32.13,10.2,51.7,10.2s37.93-3.62,51.69-10.2c13.09-6.24,20.32-14.33,20.32-22.69s-7.21-16.46-20.32-22.69c-13.76-6.61-32.11-10.23-51.69-10.23Z"/></svg>