<?xml version="1.0" encoding="UTF-8"?>
<!DOCTYPE svg PUBLIC "-//W3C//DTD SVG 1.1//EN" "http://www.w3.org/Graphics/SVG/1.1/DTD/svg11.dtd">
<!-- Creator: CorelDRAW -->
<svg xmlns="http://www.w3.org/2000/svg" xml:space="preserve" width="147.22in" height="56.4615in" version="1.1" style="shape-rendering:geometricPrecision; text-rendering:geometricPrecision; image-rendering:optimizeQuality; fill-rule:evenodd; clip-rule:evenodd"
viewBox="0 0 127965.37 49076.94"
 xmlns:xlink="http://www.w3.org/1999/xlink"
 xmlns:xodm="http://www.corel.com/coreldraw/odm/2003">
 <defs>
  <style type="text/css">
   <![CDATA[
    .fil0 {fill:#046307;fill-rule:nonzero}
   ]]>
  </style>
 </defs>
 <g id="Layer_x0020_1">
  <metadata id="CorelCorpID_0Corel-Layer"/>
  <path class="fil0" d="M42625.64 49076.92l5450.95 0 0 -12755.4c0,-7050.45 -6212.88,-12809.16 -13891.16,-12809.16 -7678.21,0 -13891.16,5758.71 -13891.16,12809.16l0 12755.4 5451.02 0 0 -12755.4c0,-4305.61 3751.21,-7803.92 8440.14,-7803.92 4689.01,0 8440.21,3498.31 8440.21,7803.92l0 12755.4z"/>
  <path class="fil0" d="M79375.57 36321.59l0 12755.35 -5450.95 0 0 -2637.19 0 -10118.17c0,-1076.4 -224.66,-2090.01 -674.05,-3040.84 -449.36,-950.81 -1055,-1776.07 -1816.98,-2475.72 -761.94,-699.67 -1650.92,-1255.8 -2666.86,-1668.43 -1015.94,-412.63 -2110.05,-618.93 -3282.29,-618.93 -1172.26,0 -2276.12,206.29 -3311.59,618.93 -1035.49,412.63 -1934.22,968.76 -2696.2,1668.43 -761.94,699.65 -1357.83,1524.91 -1787.67,2475.72 -429.83,950.83 -644.73,1964.44 -644.73,3040.84 0,1076.41 214.89,2081.04 644.73,3013.92 429.83,932.89 1025.73,1749.15 1787.67,2448.82 761.98,699.65 1660.71,1255.8 2696.2,1668.41 1035.47,412.63 2139.32,618.95 3311.59,618.95l0 5005.26c-1914.69,0 -3712.12,-331.88 -5392.33,-995.68 -1680.24,-663.77 -3155.31,-1578.71 -4425.25,-2744.81 -1269.92,-1166.1 -2266.32,-2520.59 -2989.22,-4063.43 -722.88,-1542.83 -1084.32,-3193.31 -1084.32,-4951.44 0,-1758.12 361.45,-3417.58 1084.32,-4978.36 722.9,-1560.79 1719.3,-2915.25 2989.22,-4063.43 1269.94,-1148.15 2745.01,-2063.11 4425.25,-2744.83 1680.22,-681.72 3477.65,-1022.58 5392.33,-1022.58 1914.66,0 3712.12,340.86 5392.33,1022.58 1680.22,681.72 3155.28,1596.68 4425.22,2744.83 1269.94,1148.17 2266.37,2502.64 2989.25,4063.43 722.87,1560.78 1084.32,3220.24 1084.32,4978.36z"/>
  <path class="fil0" d="M96783.56 28517.67c-1172.26,0 -2276.11,206.29 -3311.58,618.93 -1035.49,412.63 -1934.22,968.76 -2696.18,1668.43 -761.96,699.65 -1357.86,1524.91 -1787.69,2475.72 -429.81,950.83 -644.73,1964.44 -644.73,3040.84 0,1076.41 214.91,2081.04 644.73,3013.92 429.83,932.89 1025.73,1749.15 1787.69,2448.82 761.96,699.65 1660.68,1255.8 2696.18,1668.41 1035.47,412.63 2139.32,618.95 3311.58,618.95 1172.24,0 2266.35,-206.31 3282.29,-618.95 1015.94,-412.61 1904.92,-968.76 2666.86,-1668.41 761.98,-699.67 1367.62,-1515.93 1816.98,-2448.82 449.39,-932.89 674.04,-1937.52 674.04,-3013.92l0 -10172.01 0 -6081.66 0 -3121.57 5450.97 0 0 19375.24c0,1758.12 -361.47,3408.61 -1084.34,4951.44 -722.87,1542.84 -1719.3,2897.33 -2989.24,4063.43 -1269.94,1166.1 -2745.01,2081.04 -4425.23,2744.81 -1680.22,663.79 -3477.67,995.68 -5392.33,995.68 -1914.66,0 -3712.12,-331.88 -5392.33,-995.68 -1680.24,-663.77 -3155.31,-1578.71 -4425.22,-2744.81 -1269.94,-1166.1 -2266.35,-2520.59 -2989.25,-4063.43 -722.87,-1542.83 -1084.32,-3193.31 -1084.32,-4951.44 0,-1758.12 361.45,-3417.58 1084.32,-4978.36 722.9,-1560.79 1719.3,-2915.25 2989.25,-4063.43 1269.92,-1148.15 2744.98,-2063.11 4425.22,-2744.83 1680.22,-681.72 3477.67,-1022.58 5392.33,-1022.58l0 5005.28z"/>
  <path class="fil0" d="M114191.49 49076.94l0 -21151.3c0,-1399.31 293.04,-2726.88 879.17,-3982.68 586.13,-1255.82 1377.39,-2350.15 2373.82,-3283.04 996.41,-932.88 2178.43,-1668.43 3546.05,-2206.63 1367.6,-538.2 2813.39,-807.29 4337.29,-807.29l2637.56 0 0 5005.26 -2637.56 0c-1602.07,0 -2950.13,511.3 -4044.25,1533.88 -1094.09,1022.58 -1641.15,2269.4 -1641.15,3740.49l0 6135.49 8322.96 0 0 5005.26 -8322.96 0 0 10010.55 -5450.93 0z"/>
  <path class="fil0" d="M33876.93 19434.24l69.89 -19434.24 585.63 1.84 -69.74 19432.03c-92.43,-1.25 -184.56,-3.24 -277.27,-3.24 -103.18,0 -205.77,2.06 -308.5,3.61zm-13910.82 6244.84l-19966.11 -11533.25 292.37 -505.87 20076.72 11597.25c-137.05,145.01 -271.23,292.52 -402.99,441.87zm2474.71 -2314.09l-6302.81 -5685.43 392.09 -434.43 6388.89 5762.83c-161.65,116.51 -320.95,235.67 -478.18,357.03zm2720.76 -1741.35l-9760.46 -13478.67 474.72 -343.04 9815.69 13554.9c-178.37,86.39 -355.12,175.28 -529.95,266.82zm2854.35 -1208.08l-3998.29 -9034.24 536.07 -235.22 4024.21 9093.38c-188.68,55.97 -376.03,114.67 -561.99,176.09zm2917.69 -719l-884.48 -4221.95 572.44 -121.74 891.85 4257.6c-194.13,26.14 -387.67,54.27 -579.81,86.09zm17103.21 5577.1l20050.65 -11390.9 289.13 509.26 -19937.6 11326.31c-131.61,-150.16 -265.12,-298.85 -402.18,-444.67zm-2566.7 -2252.74l6354.43 -5649.49 389.07 438.26 -6264.8 5569.96c-157.53,-121.81 -316.75,-241.78 -478.7,-358.73zm-2791.09 -1664.17l9868.13 -13423.44 470.67 347.02 -9809.14 13342.94c-174.76,-91.47 -351.36,-180.21 -529.66,-266.53zm-2902.66 -1122.28l4069.43 -9019.88 532.6 240.45 -4040.27 8955.07c-185.88,-61.2 -373.16,-119.9 -561.77,-175.65zm-2947.15 -627.68l917.48 -4227.62 572.15 124.24 -909.08 4188.81c-192.36,-31.6 -386.12,-59.43 -580.55,-85.43z"/>
 </g>
</svg>
