<svg id="Layer_1" data-name="Layer 1" xmlns="http://www.w3.org/2000/svg" viewBox="0 0 377.27 330.68"><defs><style>.cls-1{fill:#007a41;}</style></defs><path class="cls-1" d="M137.71,281.15h1q9.28,0,18.58-.06c1.62,0,1.79-.21,1.57-1.84l-.09-.41a15.25,15.25,0,0,0-4.93-8,10.1,10.1,0,0,0-6.42-2.8c-5.27-.16-9.39,1.92-12,6.6a17.24,17.24,0,0,0-2.13,10.82,15.33,15.33,0,0,0,6,10.57,9.51,9.51,0,0,0,2.58,1.36,16.71,16.71,0,0,0,9,.57,11.29,11.29,0,0,0,5.6-2.72c.35-.32.64-.7,1.11-1.22-.6,0-1,0-1.34-.06a2,2,0,0,0-1.74.7,6.5,6.5,0,0,1-2.05,1.4,13,13,0,0,1-3.11.9,8.61,8.61,0,0,1-8.7-3.43,14.64,14.64,0,0,1-1.26-1.94,18.12,18.12,0,0,1-1.88-9.87A3.89,3.89,0,0,1,137.71,281.15Zm.59-3.26c.53-3,1.59-5.66,4.24-7.42,3.15-2.1,6.22-1.85,9.15.59a10.51,10.51,0,0,1,3.46,5.86,3.64,3.64,0,0,1,.09.73c0,1.09-.4,1.54-1.5,1.55-2.38,0-4.76,0-7.13,0s-4.75,0-7.13,0C138.58,279.2,138.14,278.77,138.3,277.89ZM263.45,296q0-6.73-.07-13.45a23.51,23.51,0,0,0-1.06-6.92,9.48,9.48,0,0,0-6.83-6.51,15.55,15.55,0,0,0-6.85-.38,12.28,12.28,0,0,0-6.3,2.63,2.09,2.09,0,0,1-.44.2c-.07-.79-.13-1.5-.19-2.19h-4c0,.3-.06.54-.06.78q0,11,.1,22.06c0,1.64,0,3.29,0,4.94,0,.36,0,.73.07,1.1h3.65c0-.38,0-.62,0-.86q.06-9.09.13-18.17c0-1.09,0-2.18,0-3.26a1.79,1.79,0,0,1,.25-1c2.43-3.3,5.53-5.33,9.78-5.09a6.92,6.92,0,0,1,6.53,4.62,16.74,16.74,0,0,1,1.2,6.25q0,8.19,0,16.39v1.09h4ZM152.91,50.44a27.47,27.47,0,0,0-3.13-10.81c-.6-1.13-.35-1.39-2-.92a39,39,0,0,0-4.29,1.38A27.32,27.32,0,0,0,128.1,74.14c.12.34.27.68.44,1.11l5.75-4.11c.25,2.44.49,4.68.74,7.07.6-.24,1-.4,1.44-.58A27.35,27.35,0,0,0,152.91,50.44Zm-29.13,69.91c-.83-.28-1.67-.52-2.49-.83a9.39,9.39,0,0,1-2.57-1l6-5.38c-15.51-10.8-39-5.35-47.2,14,14.82,14.41,39.14,10.35,48.81-5.91ZM276.87,58c-.33.48-.52.76-.7,1.05q-35,57-70.07,114-6.58,10.74-13.2,21.47c-.21.33-.32.77-.85,1q-49.61-81.65-99.2-163.25l-.16.1q49.65,105,99.32,209.9l.17-.08a.8.8,0,0,0,.15-.15l0-.09.11-.17.06-.1,81.94-133.31,1.15-1.88.12-.18a1.74,1.74,0,0,1,.11-.18.24.24,0,0,1,.06-.08l.11-.18a.16.16,0,0,1,.08-.06l.1,0,.19,0L301.85,151l.23-.1C293.69,120,285.31,89.09,276.87,58Z"/><path class="cls-1" d="M193.24,298.49c-.82-.14-1.63-.34-2.46-.4a10.18,10.18,0,0,1-5-1.94,14.55,14.55,0,0,1-5.3-7A16.81,16.81,0,0,1,181.53,275a12.54,12.54,0,0,1,13.4-6.33,12.33,12.33,0,0,1,4.56,2.07l.81.59.15-.08a.46.46,0,0,0,.07-.07,1.81,1.81,0,0,0,0-.31l.09-14.5a.54.54,0,0,1,0-.1,11.2,11.2,0,0,1,4,0v1.2c-.06,8-.1,15.9-.18,23.84a1.55,1.55,0,0,0,.8,1.53,6.16,6.16,0,0,1,2.34,7.82,9,9,0,0,1-2.29,3.35,2,2,0,0,0-.72,1.75c0,.7,0,1.39,0,2.2l-1.95,0h-1.91l-.3-.67a.38.38,0,0,0-.2,0,18.84,18.84,0,0,1-4.93.93,3.43,3.43,0,0,0-.69.21Zm7.28-17.16a4,4,0,0,0,.09-.51c0-1.78,0-3.57,0-5.35a2.54,2.54,0,0,0-.28-1,8.5,8.5,0,0,0-6.06-4.59,6.71,6.71,0,0,0-5.26.71,10.5,10.5,0,0,0-4.59,5.8,21.38,21.38,0,0,0-.86,9.85,14.93,14.93,0,0,0,2.73,7.07,6.87,6.87,0,0,0,4.2,2.77,20.28,20.28,0,0,0,3,.44,13.7,13.7,0,0,0,6.25-1.06,1.32,1.32,0,0,0,.92-1.42c-.06-3.57,0-7.14,0-10.71,0-.32,0-.63,0-.91-1.29-.67-1.29-.67-1.38-1.27Zm4.21,2.39a54.27,54.27,0,0,0,0,9.2,6.22,6.22,0,0,0,2.38-5.62A4.54,4.54,0,0,0,204.73,283.72Z"/><path class="cls-1" d="M219.92,298.49a14.22,14.22,0,0,0-1.43-.24,10.15,10.15,0,0,1-4.64-1.51,6.33,6.33,0,0,1-2.12-8.57,11.09,11.09,0,0,1,5.45-4.57c2.61-1.1,5.21-2.22,7.83-3.31a12.88,12.88,0,0,0,4.5-3.37,4.26,4.26,0,0,0-1.36-6.72,9.66,9.66,0,0,0-6.85-.64,9,9,0,0,0-3.5,1.84,5.92,5.92,0,0,0-2.14,4.07c0,.41-.13.82-.2,1.29H212a4.07,4.07,0,0,1,.83-2.46,12.39,12.39,0,0,1,9.57-5.88,16,16,0,0,1,5.94.29,8.68,8.68,0,0,1,6.19,8.19c-.06,6.58,0,13.17.08,19.75V298H231l-.1-1.87a6.1,6.1,0,0,0-.7.2,20,20,0,0,1-7.88,2,11.9,11.9,0,0,0-1.33.22Zm10.94-19.18a31.92,31.92,0,0,1-2.79,1.65q-3.13,1.47-6.34,2.78a19.49,19.49,0,0,0-4.18,2.16,7.16,7.16,0,0,0-2.67,3.8,5.85,5.85,0,0,0,.82,5.11,4.15,4.15,0,0,0,2.86,1.81,14,14,0,0,0,9.52-1.67,5.25,5.25,0,0,0,2.84-4.91c0-3.18,0-6.37,0-9.56C230.9,280.14,230.88,279.8,230.86,279.31Z"/><path class="cls-1" d="M112.57,298.49c-.89-1.71-1.8-3.4-2.68-5.11Q104.07,282,98.26,270.55c-.15-.3-.28-.62-.49-1.07,1.17,0,2.18,0,3.19,0,.49,0,.65.32.83.67q1.41,2.7,2.8,5.41l8.55,16.5c.17.33.36.65.64,1.14.28-.54.48-.9.66-1.27q4.25-8.73,8.49-17.47a12.21,12.21,0,0,1,3.08-3.94,33.55,33.55,0,0,1,6.3-4.33c.3-.16.61-.28.91-.42l.18.22a1.61,1.61,0,0,0-.38.16,23.07,23.07,0,0,0-6.5,8.14c-3.86,8.05-7.62,16.14-11.43,24.21Z"/><path class="cls-1" d="M278.53,298.49l-1.92-.46a18.91,18.91,0,0,1-4.24-1.49,11.1,11.1,0,0,1-6.18-8.47,17.56,17.56,0,0,1-.26-3.24q0-13.29-.05-26.57v-2.11h3.85a19,19,0,0,1,.1,3.2c0,1,0,2.1,0,3.15v6.55l3.49,0c1.16,0,2.31,0,3.47,0h3.54v1.82c-.37,0-.77.08-1.17.08h-8c-.41,0-.82,0-1.35.07v1.12c0,4.09,0,8.19,0,12.28a14.65,14.65,0,0,0,1.49,6.38,8.37,8.37,0,0,0,7.44,5.17c.93.06,1.87.08,2.95.13l.45,1.94-1.53.4Z"/><path class="cls-1" d="M161.31,298.49a7.32,7.32,0,0,1-.16-1.13q0-13.32-.06-26.66v-1.31H165V272l.2.12a11.88,11.88,0,0,1,3.68-2.48,16.92,16.92,0,0,1,4.25-1.09,13.21,13.21,0,0,1,4.61.25,11.81,11.81,0,0,1-1.23,1.28,1.41,1.41,0,0,1-.88.12c-.62,0-1.24-.2-1.87-.21a9.34,9.34,0,0,0-8.29,4.26,2.87,2.87,0,0,0-.54,1.76q.09,10.71.14,21.41a7.28,7.28,0,0,1-.14,1Z"/><path class="cls-1" d="M276.87,58c8.44,31.12,16.83,62,25.21,92.92l-.23.1-25.44-45.34-.19,0a.31.31,0,0,0-.1,0,.16.16,0,0,0-.08.06l-.12.17a.41.41,0,0,1-.05.09l-.12.18a1.74,1.74,0,0,1-.11.18l-1.15,1.88L192.55,241.6l-.06.1-.11.17,0,.09a.8.8,0,0,1-.15.15l-.17.08q-49.66-105-99.32-209.9l.16-.1,99.21,163.25c.51-.19.63-.63.84-1q6.61-10.72,13.2-21.47,35-57,70.07-114C276.35,58.73,276.55,58.45,276.87,58Z"/><path class="cls-1" d="M77.53,127.13c8.25-19.35,31.71-24.8,47.21-14l-6,5.38a9.39,9.39,0,0,0,2.57,1c.82.31,1.66.55,2.49.83l2.58.87C116.68,137.47,92.36,141.54,77.53,127.13Z"/><path class="cls-1" d="M135,78.21l-.74-7.07-5.76,4.11c-.16-.43-.31-.77-.43-1.11a27.33,27.33,0,0,1,15.41-34,39.52,39.52,0,0,1,4.28-1.38c1.64-.47,1.39-.21,2,.92a27.39,27.39,0,0,1-13.31,38C136.05,77.81,135.63,78,135,78.21Z"/><path class="cls-1" d="M241.49,298.22h-3.65c0-.37-.07-.74-.07-1.1,0-1.65,0-3.3,0-4.94l-.09-22.06c0-.24,0-.48.05-.78h4l.19,2.19a1.76,1.76,0,0,0,.43-.2,12.35,12.35,0,0,1,6.31-2.63,15.55,15.55,0,0,1,6.85.38,9.49,9.49,0,0,1,6.83,6.5,23.58,23.58,0,0,1,1.06,6.93q0,6.72.07,13.45v2.25h-4v-1.09q0-8.19,0-16.39a16.74,16.74,0,0,0-1.2-6.25,6.9,6.9,0,0,0-6.53-4.61c-4.25-.25-7.35,1.78-9.78,5.08a1.88,1.88,0,0,0-.25,1c0,1.08,0,2.17,0,3.26q-.07,9.07-.13,18.17C241.54,297.6,241.51,297.84,241.49,298.22Z"/><path class="cls-1" d="M137.71,281.15h1q9.28,0,18.58-.06c1.62,0,1.79-.21,1.57-1.84l-.09-.41a15.25,15.25,0,0,0-4.93-8,10.1,10.1,0,0,0-6.42-2.8c-5.27-.16-9.39,1.92-12,6.6a17.24,17.24,0,0,0-2.13,10.82,15.33,15.33,0,0,0,6,10.57,9.51,9.51,0,0,0,2.58,1.36,16.71,16.71,0,0,0,9,.57,11.29,11.29,0,0,0,5.6-2.72c.35-.32.64-.7,1.11-1.22-.6,0-1,0-1.34-.06a2,2,0,0,0-1.74.7,6.5,6.5,0,0,1-2.05,1.4,13,13,0,0,1-3.11.9,8.61,8.61,0,0,1-8.7-3.43,14.64,14.64,0,0,1-1.26-1.94,18.12,18.12,0,0,1-1.88-9.87A3.89,3.89,0,0,1,137.71,281.15Zm.59-3.26c.53-3,1.59-5.66,4.24-7.42,3.15-2.1,6.22-1.85,9.15.59a10.51,10.51,0,0,1,3.46,5.86,3.64,3.64,0,0,1,.09.73c0,1.09-.4,1.54-1.5,1.55-2.38,0-4.76,0-7.13,0s-4.75,0-7.13,0C138.58,279.2,138.14,278.77,138.3,277.89Z"/></svg>