<svg id="Layer_1" data-name="Layer 1" xmlns="http://www.w3.org/2000/svg" xmlns:xlink="http://www.w3.org/1999/xlink" viewBox="0 0 377.27 330.68"><defs><style>.cls-1{fill:#002345;}.cls-2{fill:url(#radial-gradient);}</style><radialGradient id="radial-gradient" cx="7156.12" cy="-8062.62" r="1.52" gradientTransform="matrix(33.77, 0, 0, -33.77, -241562.76, -272094.26)" gradientUnits="userSpaceOnUse"><stop offset="0" stop-color="#fff"/><stop offset="0.06" stop-color="#ebf8fd"/><stop offset="0.18" stop-color="#b6e7f7"/><stop offset="0.36" stop-color="#60ccee"/><stop offset="0.54" stop-color="#00ade4"/><stop offset="1" stop-color="#002345"/></radialGradient></defs><path class="cls-1" d="M94,166.67h15.61v3.2h-5.73v16.06H99.78V169.87H94ZM116,185.93v-8.46h7.33v8.46h4.14V166.67h-4.19v7.6H116v-7.6h-4.14v19.26Zm14.83,0H144v-3.2H135v-5.15h8.22v-3.2H135v-4.51h8.78v-3.2H130.81Zm29.73-4.77h0l-3-14.49h-4.27l4.7,19.26h4.69l3.74-14.67h.05l3.47,14.67h4.58l4.91-19.26h-4l-3.1,14.49h0l-3.36-14.49h-4.66Zm20.26-4.85c0,5.68,2.88,10,9.26,10s9.26-4.34,9.26-10-2.88-10-9.26-10-9.26,4.34-9.26,10m4.4,0c0-3.31.78-7.05,4.86-7.05s4.86,3.74,4.86,7.05-.78,7-4.86,7-4.86-3.74-4.86-7m21,1.86h4.38c1.36.05,1.62,1.52,1.73,2.59.18,1.74.37,3.47.72,5.17h4.56c-.77-1.07-.93-3.33-1.12-4.56-.35-2.67-.35-4.62-3.52-5v0a4.63,4.63,0,0,0,4-4.67c0-3.92-3.39-5-6.7-5H202v19.26h4.14Zm0-8.3h3.46c1.82,0,2.88.75,2.88,2.45s-1.07,2.61-2.88,2.64h-3.46Zm26.39,16.06v-3.2h-8.35V166.67h-4.13v19.26Zm2.24,0h6.56c6,0,9.74-2.93,9.74-9.63s-3.74-9.69-9.74-9.63h-6.56ZM239,169.87h2.14c4.91-.05,5.63,3.36,5.63,6.43s-.72,6.48-5.63,6.43H239Zm29.92,16.06c3,.21,7.76-1.17,7.76-5a4.92,4.92,0,0,0-4.24-5v-.05a4.49,4.49,0,0,0,3.39-4.21c0-3.76-3.52-5.2-7-5h-7.23v19.26h7.28Zm-3.16-3.2v-5.12h3.23c1.95,0,3.28.35,3.28,2.56s-1.33,2.56-3.28,2.56Zm0-8.32v-4.54h3.23c1.73,0,2.69.72,2.69,2.27s-1,2.27-2.69,2.27Zm16.15,11.52,1.44-4.08h7.63l1.39,4.08h4.16l-6.69-19.26h-4.91l-7,19.26Zm2.51-7.28,2.82-8.22h.06l2.64,8.22ZM316,185.93V166.67h-3.87v15.1l-.05.06-7.34-15.15H298.6v19.26h3.87V170l0-.06,7.6,16Zm7.53-19.26h-4.13v19.26h4.13v-9.82h.05l6.7,9.82h5.15l-7.68-10.64,7.07-8.62H330l-6.4,8.33h-.05v-8.33Z"/><path class="cls-2" d="M82.92,171a1.43,1.43,0,0,0-.76,1.88,28,28,0,0,1,1.37,17.64,10,10,0,0,1-2.2,3.76c0-.49,0-1,0-1.48A36.93,36.93,0,0,0,77,176a11.16,11.16,0,0,0,3.85-6.44,1.45,1.45,0,0,0-1.15-1.68A1.43,1.43,0,0,0,78.06,169a8.13,8.13,0,0,1-2.47,4.39c-.41-.68-.84-1.35-1.29-2a41.72,41.72,0,0,0-8.8-9.45,27.53,27.53,0,0,1,11.56,3.14,1.43,1.43,0,0,0,1.83-2.15c-4.63-6.47-12.64-10-22.56-10a30.89,30.89,0,0,0-29.72,39.38c.05.18.09.36.14.54a1,1,0,0,0,0,.1,30.89,30.89,0,0,0,46.86,16.46l.14-.08c.3-.2.58-.41.86-.63A31,31,0,0,0,86.3,191.3c.1-.32.19-.66.26-1a2,2,0,0,0,0-.24,31,31,0,0,0-1.79-18.31A1.43,1.43,0,0,0,82.92,171Zm-11,2c.47.7.92,1.4,1.35,2.12a19.66,19.66,0,0,1-8.34,2.35,80.36,80.36,0,0,0-1.79-13.71A38.79,38.79,0,0,1,71.93,173ZM67.66,157.8a22.14,22.14,0,0,1,4.23,2.25,36,36,0,0,0-6.88-1A8.91,8.91,0,0,1,67.66,157.8Zm-3.8-1.19a18.81,18.81,0,0,0-2.47,1.61A15,15,0,0,0,60.18,156,32.27,32.27,0,0,1,63.86,156.61Zm-13.67,21a33.4,33.4,0,0,0,6.67,2.17,30.66,30.66,0,0,0,5.33.65c0,1.08.05,2.19.05,3.33a97.08,97.08,0,0,1-1.32,16.78,48.45,48.45,0,0,1-7.88-1,46.34,46.34,0,0,1-10-3.33,73.3,73.3,0,0,1,5.82-16C49.3,179.3,49.74,178.44,50.19,177.6Zm-5-6.64a13.14,13.14,0,0,1-2.7-3.44,39,39,0,0,1,8.85-3.9A41.17,41.17,0,0,1,57,162.34a66.87,66.87,0,0,0-8,11.43A20.77,20.77,0,0,1,45.17,171Zm16.9,6.57a27,27,0,0,1-4.61-.58,30.17,30.17,0,0,1-5.88-1.88,62.2,62.2,0,0,1,8.51-11.81A76,76,0,0,1,62.07,177.53Zm-5.78-21.76c.49,0,1.09.59,1.72,1.73q-.48-.21-1-.39A26.83,26.83,0,0,0,53.19,156,26.47,26.47,0,0,1,56.29,155.77Zm-14.61,7.07a7,7,0,0,1,2.6-3.93,18.06,18.06,0,0,1,11.36.74,45.33,45.33,0,0,0-5.16,1.21,41.46,41.46,0,0,0-8.9,3.84A6.8,6.8,0,0,1,41.68,162.84Zm-2.69-1c0,.15-.08.29-.11.45a9.11,9.11,0,0,0,.08,4.12A34.57,34.57,0,0,0,31,173.86a28.69,28.69,0,0,0-1.76,2.63A28.07,28.07,0,0,1,39,161.8Zm.46,44.36a28.15,28.15,0,0,1-10.08-14.69,15.39,15.39,0,0,1-.46-2.85,25.63,25.63,0,0,0,3.52,4,35.79,35.79,0,0,0,7.38,5.17A26.58,26.58,0,0,0,39.45,206.16Zm-5.06-15.67a18.35,18.35,0,0,1-5-7,22.29,22.29,0,0,1,3.92-7.88,31,31,0,0,1,6.73-6.49,16.32,16.32,0,0,0,3.15,4,23.52,23.52,0,0,0,4.42,3.23c-.46.86-.9,1.74-1.33,2.63a80.76,80.76,0,0,0-5.86,15.92A31.36,31.36,0,0,1,34.39,190.49Zm22,21.32-.2,0a27.9,27.9,0,0,1-12-2.76,1.34,1.34,0,0,0-.28-.18c-1.6-.78-2.24-4.34-1.41-9.78a50.68,50.68,0,0,0,17.83,4.27C59.06,208.91,57.43,211.81,56.35,211.81Zm16.56-5.43a27.86,27.86,0,0,1-12.4,5.14,28.59,28.59,0,0,0,2.78-8.08,37,37,0,0,0,11.32-1.79c.86-.29,1.67-.61,2.45-1A13.67,13.67,0,0,1,72.91,206.38Zm5.24-9.5a21.53,21.53,0,0,1-4.45,2,33.7,33.7,0,0,1-9.86,1.63,105.7,105.7,0,0,0,1.26-16.81c0-1.12,0-2.25,0-3.37a22.28,22.28,0,0,0,9.6-2.73,33.87,33.87,0,0,1,3.85,15.15A23.16,23.16,0,0,1,78.15,196.88Z"/></svg>